<svg xmlns="http://www.w3.org/2000/svg" width="45.46mm" height="24.9mm" viewBox="0 0 128.86 70.59"><defs><style>.cls-1{fill:#8e91a9;}</style></defs><title>Asset 1</title><g id="Layer_2" data-name="Layer 2"><g id="Ebene_1" data-name="Ebene 1"><path class="cls-1" d="M91.06,31c.84.36,5.51,1.79,10.85-10.51-1.81-.2-3.62-.38-5.42-.56A6,6,0,0,1,90.06,23c-.27-.18,0-.42.15-.42a8,8,0,0,0,1.63-.15,5.33,5.33,0,0,0,2.84-2.75l-3.56-.32C88.58,22.84,87.62,29.28,91.06,31Z"/><path class="cls-1" d="M94,17.27a4.6,4.6,0,0,0-2.34,1.49l3.29.28C95.21,18.12,95,17.35,94,17.27Z"/><path class="cls-1" d="M78.24,18c.3-1,.66-2.14,1.12-3.29,0,0,1.15-2.78-.64-2.57-.88.15-1.72.27-2.63.36-.54,1.52-1.24,3.3-2.14,5.36Z"/><path class="cls-1" d="M81.82,18.71c-.48,1.77-1.34,5.63-.62,8.37.24.85.67,1.45,1.33,1.57,1.07.13,2.37-1.46,3.5-3.33a14.81,14.81,0,0,1,1.87-6.18Q84.86,18.91,81.82,18.71Z"/><path class="cls-1" d="M75.49,3.87c-2.72.73-2.36,5.81.12,6.75a31.77,31.77,0,0,0,1.06-4C76.76,6.14,77.06,3.75,75.49,3.87Z"/><path class="cls-1" d="M112.9,18.18a2.35,2.35,0,0,0-1.85,1.54c-.27,1,.64,1.24,1.39.76C112.9,20.15,113.32,19.78,112.9,18.18Z"/><path class="cls-1" d="M103.16,19.81v0q3.64.39,7.28.84a1.33,1.33,0,0,1-.11-.35,2.66,2.66,0,0,1,2.21-2.75C109.9,14.61,104.7,16.18,103.16,19.81Z"/><path class="cls-1" d="M5.4,14.07c1.31-.15,2.63-.27,3.94-.4a1.24,1.24,0,0,0,1.27.81q7.28-1,14.56-1.92,6.51-.26,13-.24Q24,13.54,9.78,16.14c-1,.18-1.48,1.33-1.47,2.42l-1.82.35c-2.07.43-2,4.71.15,4.59L11,23.26c1.15-2.83,4.54-4.24,7.29-4.78,3.24-.61,6.5-.88,9.83-1.42A2.69,2.69,0,0,1,28.72,14a1.59,1.59,0,0,1,2.6.57,2.34,2.34,0,0,1-.67,2.06,4.09,4.09,0,0,1-1.39.85,5.17,5.17,0,0,0,6,.7,8.33,8.33,0,0,0,1.24-.88s.24-.24.6-.55a6.8,6.8,0,0,1,.85-.66s.06-.06.09-.06a3.47,3.47,0,0,1,1.33-.63c1.12-.21,1,1.09.94,1.63L39.1,20.87l1-.85c.42-.33.91-.67,1.42-1h0a11.23,11.23,0,0,1,3.21-1.42c4.29-.7,4.05,3.57,2.57,7.5a22,22,0,0,1-1.66,3.51c-.09.15-.21.3-.3.45a.94.94,0,0,1-.18.24,3.9,3.9,0,0,0,2.33.54,3.07,3.07,0,0,0,1.39-.91,12.37,12.37,0,0,0,1.73-2.84l.09-.2A22,22,0,0,1,51.4,23l0,0,1.85-5.84A1.59,1.59,0,0,1,55,16.52a1,1,0,0,1,.79,1.42c-1.45,4.51-1.66,5.69-2.12,7.26-.15.55-.76,2.78.24,3.81a1.72,1.72,0,0,0,2,.06c1.27-.85,2.57-3,3.6-4.93.63-1.15,1.15-2.36,1.72-3.69l.92-2.64-2.14-.06h2.16l1.17-3.35a1.89,1.89,0,0,1,2.06-.82,1.32,1.32,0,0,1,1,1.76l-.78,2.4q3.7,0,7.4.1c.63-1.54,1.39-3.47,2.07-5.4-2.69-.33-4.72-2-4.08-5.27.51-2.39,2.15-4.78,5.26-4.23,1.45.42,1.57,2.3,1.42,3.9a26.17,26.17,0,0,1-1,4.11,5.28,5.28,0,0,0,2.27-.15c1.3-.33,2.81-1,4-.76,1.85.54.48,3.87-.76,7.74v0l-.11.35q3.15.16,6.29.37a9.41,9.41,0,0,1,4.1-3.65c2.75-1.21,5.41.09,4.66,3.57a6.7,6.7,0,0,1-.23.76c1.81.16,3.63.33,5.44.52,1.83-4,7.94-6.58,11.09-2.37,2.57-.45,5.17-.46,7.83-.65A1.65,1.65,0,0,0,120,15c-3.29-.76-6.58-1.37-9.87-1.93q7.14.68,14.26,1.57c1.91.24,2.66-3.81.69-4.2q-3.76-.74-7.52-1.4c1.22-.64,1.51-3.22,0-3.76h0c-.1-.73-.45-1.33-1.07-1.39l-.39,0h-.06c-1.54-.15-3.08-.27-4.62-.4C95.49-.62,78.57-.06,62.57.15,57.14.22,51.72.4,46.29.65Q39.15.71,32,.92C23.7,1.17,13.46-.37,5.46,3.59,3.83,4.4,4.23,7.89,6,7.74l6.66-.56A2.47,2.47,0,0,0,13,8.83q-3.88.38-7.76.82C3.24,9.89,3.36,14.3,5.4,14.07ZM23.16,6.33l2-.15c-3.09.58-6.17,1.31-9.22,2.19A34.66,34.66,0,0,1,23.16,6.33Z"/><path class="cls-1" d="M125.55,18.28c-1.41-.32-2.82-.6-4.23-.89a74.53,74.53,0,0,0-7.7.64,3,3,0,0,1-.7,3c4,.52,7.95,1.07,11.92,1.7C126.85,23,127.61,18.74,125.55,18.28Z"/><path class="cls-1" d="M65.47,17.91c-1.26,3.88-2,6.15-2.46,7.74-.18.67-.91,3.42.3,4.69a2.09,2.09,0,0,0,2.39.06c1.57-1,3.18-3.66,4.42-6,.59-1.07,1.09-2.16,1.6-3.32l-.14,0s.5-1.14,1.2-2.82Q69.13,18,65.47,17.91Z"/><path class="cls-1" d="M56.26,29.78l3.08-.06A12.51,12.51,0,0,1,59.71,25,18.22,18.22,0,0,1,56.26,29.78Z"/><path class="cls-1" d="M49.84,29.25l-.48.57-.26.22L51.23,30a3.19,3.19,0,0,1-.59-1.37c0-.16,0-.33-.05-.5l0,0C50.35,28.53,50.08,28.89,49.84,29.25Z"/><path class="cls-1" d="M28.15,43.08a.43.43,0,0,0,.6,0,9.86,9.86,0,0,0,1.48-2.9l2-6.35.18-.54C30.05,36.33,27.42,40.9,28.15,43.08Z"/><path class="cls-1" d="M44.48,30.25l0,.08h.19Z"/><path class="cls-1" d="M127.65,34a106.41,106.41,0,0,0-11.81-3.77,3,3,0,0,0,.32-3.22c2.86.36,5.72.75,8.58,1.19,2,.32,2.8-4.11.72-4.47-7.53-1.3-15.07-2.35-22.63-3.21a37.34,37.34,0,0,1-5.38,8.86c-1.72,1.94-3.75,3.39-5.9,3.36a6,6,0,0,1-5.51-5.44c0-.17,0-.34,0-.52-1.9,2.81-3.44,3.75-4.64,3.75-5.2,0-4-8.44-4-8.44a25.27,25.27,0,0,1,.73-3.67l-4.32-.23c-.23.53-.47,1.06-.72,1.63h.12C70.91,25,66.88,33.46,62.38,32.73a3.45,3.45,0,0,1-2.27-1.21,3.85,3.85,0,0,1-.76-1.72v0l-3.23.13a3.77,3.77,0,0,1-3,1.08,2.86,2.86,0,0,1-1.69-.8l-2.77.2a4.49,4.49,0,0,1-.79.43s-.06,0-.06,0a4,4,0,0,1-2.39-.19l-1.33.11-.09.1a4.61,4.61,0,0,1-.7.67l-.18.18-.39.27a4.93,4.93,0,0,1-1.21.57c-1.54.52-3.22.41-3.94-1.08l-1.94.25-2.11,6.51c-.15.45-.36,1-.6,1.6-2.18,6.47-5,5.54-5,5.54a2.09,2.09,0,0,1-.85-.66c-1-1.48,0-4.3,0-4.42v0a30.19,30.19,0,0,1,2.54-5.05,21,21,0,0,1,2.33-3C26.49,33,21,34,15.52,35.29a2,2,0,0,0-1.38,1.59c-2.06.21-4.12.43-6.17.68-1.63.2-1.92,2.94-1,4.11a34.34,34.34,0,0,0-5.84,2.54c-1.73,1-1.36,4.72.57,4.52,9.06-.93,18.14-1.86,27.22-2.64a1.3,1.3,0,0,0,1.17.56c16.29-1.2,32.61-2.39,48.9-2.53a236.53,236.53,0,0,1,44.88,5.14c2,.44,2.7-3.84.71-4.34s-4.07-1-6.1-1.45c0-.91-.37-1.73-1.24-1.84-3.8-.49-7.61-.87-11.42-1.18L101.13,40q-6-1-11.94-1.85a279.45,279.45,0,0,1,36.28,3.66c1.44.25,2.24-1.87,1.85-3.28C129.06,38.29,129.54,34.78,127.65,34Z"/><path class="cls-1" d="M15.08,28.89c.76-.3,1.69-1.24,1-2.09A.89.89,0,0,0,15,26.44s0,0-.06,0a1,1,0,0,1-1.39-.12.92.92,0,0,1,0-1.16l-1,.16a1.59,1.59,0,0,0-1.1.82c0,.1,0,.2,0,.3C12,27.8,13.35,29.59,15.08,28.89Z"/><path class="cls-1" d="M37.38,30.87c0-.07,0-.12-.06-.2,0-2.9,3.18-5.63,5.78-2.93l.09.06c1.15-2.39,3-6.32,3-8.11a1.41,1.41,0,0,0-.76-1.15c-1.36-.7-3.54,1-4.87,2.36a15.86,15.86,0,0,0-1.21,1.48,15.34,15.34,0,0,0-1.48,2.48L36.5,29h0l-.65,2Z"/><path class="cls-1" d="M42.49,28.92l-.09-.09-.27-.33a2.62,2.62,0,0,0-1.66-.73A2.45,2.45,0,0,0,38.58,30a1.35,1.35,0,0,0,.2.78L41,30.58A5.52,5.52,0,0,0,42.49,28.92Z"/><path class="cls-1" d="M13.45,34Q23.21,32.32,33,31.31l.07-.06.18-.57,1.88-5.78,2.36-7.32c-2.48,2.33-6.5,3-9,.12-3.33.67-6.6.85-10.07,1.48-2.41.45-5.35,1.76-6.54,4q10.77-.56,21.55-.82Q24.23,23.45,15,25a4.63,4.63,0,0,1,.72.37,4.77,4.77,0,0,1,1,.91c1,1.27.06,2.78-1.24,3.39-1.71,1-3.67-.39-4.46-2C11,28.7,11.4,29.85,12.31,30,11.31,31.32,11.72,34.26,13.45,34Z"/><path class="cls-1" d="M30.63,15.22c.21-.91-.73-1.24-1.45-.67a1.91,1.91,0,0,0-.33,2.27v0A2.2,2.2,0,0,0,30.63,15.22Z"/><path class="cls-1" d="M33.92,64.86c0,2.11-1.77,3.5-4.45,3.5H25.65V55.57H29.2c2.08,0,3.95,1.14,3.95,3.2a3.35,3.35,0,0,1-2,2.82A3.35,3.35,0,0,1,33.92,64.86Zm-7-8.18v4.54h2.36a2.38,2.38,0,0,0,2.63-2.3c0-1.3-.9-2.25-3.1-2.25Zm5.74,8.15a2.75,2.75,0,0,0-3-2.54H26.89v5h2.54C31.43,67.25,32.63,66.48,32.63,64.84Z"/><path class="cls-1" d="M36.46,62.11c0-4.25,1.93-6.78,5.38-6.78s5.1,2.45,5.1,6.49c0,4.23-1.92,6.79-5.38,6.79S36.46,66.13,36.46,62.11ZM45.62,62c0-3.86-1.58-5.56-3.92-5.56S37.78,58.12,37.78,62s1.54,5.52,3.94,5.52S45.62,65.79,45.62,62Z"/><path class="cls-1" d="M50.4,64.13V55.57h1.25V64c0,2.59,1.44,3.5,3.11,3.5s3.11-.89,3.11-3.48V55.57H59.1v8.55a4.11,4.11,0,0,1-4.35,4.48C52,68.61,50.4,67.08,50.4,64.13Z"/><path class="cls-1" d="M70.41,56.68H66.63V68.37H65.39V56.68H61.52v-1.1h9Z"/><path class="cls-1" d="M72.88,55.57h1.25V68.37H72.88Z"/><path class="cls-1" d="M86,67.43l1.74,3.09v.07H86.44L85,68.08a5.31,5.31,0,0,1-2.36.53c-3.38,0-5.1-2.48-5.1-6.5,0-4.25,1.93-6.78,5.38-6.78s5.1,2.45,5.1,6.49C88.05,64.41,87.28,66.31,86,67.43Zm-1.49-.28-1.64-2.9v-.07h1.29l1.3,2.3c.83-.88,1.29-2.35,1.29-4.47,0-3.86-1.58-5.56-3.92-5.56S78.89,58.12,78.89,62s1.54,5.52,3.94,5.52A3.82,3.82,0,0,0,84.5,67.15Z"/><path class="cls-1" d="M91.51,55.57h1.25V68.37H91.51Z"/><path class="cls-1" d="M103.92,67.25v1.11H97V55.57h6.81v1.11H98.25v4.48H103l-.11,1.07H98.25v5Z"/></g></g></svg>