<svg xmlns="http://www.w3.org/2000/svg" width="37.85mm" height="37mm" viewBox="0 0 107.28 104.89"><defs><style>.cls-1{fill:#8e91a9;}</style></defs><title>Asset 1</title><g id="Layer_2" data-name="Layer 2"><g id="Ebene_1" data-name="Ebene 1"><path class="cls-1" d="M63.48,101.77a15,15,0,0,1-5.31-1.38,13.39,13.39,0,0,0-4.53-1.24,13.39,13.39,0,0,0-4.53,1.24c-2.18.86-4.44,1.75-6.69,1.23s-4-2.35-5.65-4.11a13,13,0,0,0-3.4-3,13.22,13.22,0,0,0-4.53-.83c-2.36-.18-4.81-.36-6.64-1.83S19.63,88,18.93,85.78a13.14,13.14,0,0,0-1.81-4.21,13.08,13.08,0,0,0-3.68-2.67c-2.07-1.19-4.2-2.42-5.24-4.56s-.65-4.52-.3-6.85a13.32,13.32,0,0,0,.2-4.64A12.88,12.88,0,0,0,6,58.9c-1.36-2-2.76-4-2.76-6.46S4.61,48,6,46A12.88,12.88,0,0,0,8.09,42a13.34,13.34,0,0,0-.2-4.64c-.35-2.34-.71-4.75.3-6.85s3.17-3.37,5.24-4.56a13.09,13.09,0,0,0,3.69-2.68,13.14,13.14,0,0,0,1.81-4.21c.7-2.27,1.42-4.62,3.27-6.09s4.28-1.65,6.64-1.83a13.23,13.23,0,0,0,4.53-.83,13,13,0,0,0,3.4-3c1.63-1.76,3.31-3.58,5.65-4.11s4.51.38,6.69,1.23a13.39,13.39,0,0,0,4.53,1.24A13.39,13.39,0,0,0,58.17,4.5c2.18-.86,4.44-1.75,6.69-1.23s4,2.35,5.65,4.11a13,13,0,0,0,3.4,3,13.22,13.22,0,0,0,4.53.83c2.36.18,4.81.36,6.64,1.83s2.57,3.82,3.27,6.09a13.11,13.11,0,0,0,1.81,4.21A13.09,13.09,0,0,0,93.85,26c2.07,1.19,4.2,2.42,5.24,4.56s.65,4.52.3,6.85a13.32,13.32,0,0,0-.2,4.64A12.88,12.88,0,0,0,101.31,46c1.36,2,2.76,4,2.76,6.46s-1.4,4.48-2.76,6.46a12.88,12.88,0,0,0-2.12,3.94,13.32,13.32,0,0,0,.2,4.64c.35,2.34.71,4.75-.3,6.85s-3.17,3.37-5.24,4.56a13.08,13.08,0,0,0-3.68,2.67,13.13,13.13,0,0,0-1.81,4.21c-.7,2.27-1.42,4.62-3.27,6.09s-4.28,1.65-6.64,1.83a13.22,13.22,0,0,0-4.53.83,13,13,0,0,0-3.4,3c-1.63,1.76-3.31,3.58-5.65,4.11A6.18,6.18,0,0,1,63.48,101.77Zm-9.84-5.25a15.41,15.41,0,0,1,5.49,1.42c1.9.75,3.69,1.44,5.15,1.12s2.89-1.8,4.3-3.33a15,15,0,0,1,4.18-3.55,15.25,15.25,0,0,1,5.47-1.09c2.06-.16,4-.3,5.2-1.26S85.23,87,85.84,85a15.14,15.14,0,0,1,2.26-5.08,15.08,15.08,0,0,1,4.43-3.31c1.8-1,3.5-2,4.18-3.42s.37-3.29.07-5.32a15.33,15.33,0,0,1-.16-5.61,14.86,14.86,0,0,1,2.51-4.84c1.18-1.73,2.3-3.37,2.3-5s-1.12-3.25-2.3-5a14.86,14.86,0,0,1-2.51-4.84A15.33,15.33,0,0,1,96.79,37c.31-2,.59-3.95-.07-5.32s-2.38-2.39-4.18-3.42A15.1,15.1,0,0,1,88.11,25a15.15,15.15,0,0,1-2.27-5.08c-.61-2-1.18-3.84-2.4-4.81S80.3,14,78.24,13.81a15.22,15.22,0,0,1-5.47-1.09,15,15,0,0,1-4.19-3.56c-1.42-1.53-2.75-3-4.3-3.33S61,6.2,59.13,6.95a15.42,15.42,0,0,1-5.49,1.42,15.42,15.42,0,0,1-5.49-1.42C46.25,6.2,44.46,5.5,43,5.83s-2.89,1.8-4.3,3.33a15,15,0,0,1-4.19,3.56A15.22,15.22,0,0,1,29,13.81c-2.06.16-4,.3-5.2,1.26s-1.79,2.84-2.4,4.81A15.14,15.14,0,0,1,19.17,25a15.09,15.09,0,0,1-4.43,3.31c-1.8,1-3.5,2-4.18,3.42S10.19,35,10.5,37a15.34,15.34,0,0,1,.16,5.61,14.84,14.84,0,0,1-2.52,4.84c-1.18,1.73-2.3,3.36-2.3,5s1.12,3.25,2.3,5a14.84,14.84,0,0,1,2.52,4.84,15.33,15.33,0,0,1-.16,5.61c-.31,2-.59,3.95.07,5.32s2.38,2.39,4.18,3.42a15.09,15.09,0,0,1,4.43,3.31A15.14,15.14,0,0,1,21.44,85c.61,2,1.18,3.84,2.4,4.81S27,90.92,29,91.08a15.25,15.25,0,0,1,5.47,1.09,15,15,0,0,1,4.19,3.56c1.42,1.53,2.75,3,4.3,3.33s3.25-.37,5.15-1.12A15.41,15.41,0,0,1,53.64,96.52Z"/><path class="cls-1" d="M42.95,104.88a5.55,5.55,0,0,1-1.24-.13c-2.21-.5-3.92-2.35-5.57-4.14a14.81,14.81,0,0,0-4-3.47,15.3,15.3,0,0,0-5.31-1c-2.4-.18-4.88-.37-6.61-1.75S17.72,90.61,17,88.3a15.22,15.22,0,0,0-2.15-4.93,15.15,15.15,0,0,0-4.31-3.17C8.45,79,6.28,77.75,5.3,75.72s-.59-4.43-.23-6.8a15.42,15.42,0,0,0,.2-5.44A14.68,14.68,0,0,0,2.8,58.84c-1.38-2-2.8-4.1-2.8-6.39s1.43-4.38,2.8-6.39A14.68,14.68,0,0,0,5.27,41.4,15.41,15.41,0,0,0,5.07,36c-.36-2.37-.73-4.82.23-6.8s3.15-3.27,5.24-4.48a15.12,15.12,0,0,0,4.31-3.17A15.19,15.19,0,0,0,17,16.58c.71-2.31,1.44-4.69,3.18-6.08s4.21-1.57,6.61-1.75a15.32,15.32,0,0,0,5.31-1,14.8,14.8,0,0,0,4-3.47C37.78,2.49,39.49.64,41.7.14s4.4.42,6.62,1.29a15.49,15.49,0,0,0,5.32,1.42A15.49,15.49,0,0,0,59,1.42C61.17.55,63.46-.35,65.58.14s3.92,2.35,5.57,4.14a14.82,14.82,0,0,0,4,3.47,15.26,15.26,0,0,0,5.31,1c2.4.18,4.88.37,6.61,1.75s2.47,3.77,3.18,6.08a15.22,15.22,0,0,0,2.15,4.93,15.15,15.15,0,0,0,4.31,3.17c2.1,1.21,4.27,2.45,5.25,4.48s.59,4.43.23,6.8a15.42,15.42,0,0,0-.2,5.44,14.67,14.67,0,0,0,2.47,4.65c1.38,2,2.8,4.1,2.8,6.39s-1.43,4.38-2.8,6.39A14.67,14.67,0,0,0,102,63.49a15.42,15.42,0,0,0,.2,5.44c.36,2.37.73,4.82-.23,6.8S98.84,79,96.74,80.2a15.14,15.14,0,0,0-4.31,3.17,15.18,15.18,0,0,0-2.15,4.93c-.71,2.31-1.44,4.69-3.19,6.08S82.88,96,80.48,96.13a15.3,15.3,0,0,0-5.31,1,14.81,14.81,0,0,0-4,3.47c-1.65,1.79-3.36,3.63-5.57,4.14s-4.4-.42-6.62-1.29A15.49,15.49,0,0,0,53.64,102a15.48,15.48,0,0,0-5.32,1.42A15.54,15.54,0,0,1,42.95,104.88Zm10.69-3.5a16,16,0,0,1,5.56,1.46c2.22.87,4.32,1.7,6.23,1.26s3.65-2.23,5.23-3.94a15.48,15.48,0,0,1,4.21-3.62,15.76,15.76,0,0,1,5.55-1.08c2.41-.18,4.68-.35,6.25-1.61s2.29-3.55,3-5.76A15.66,15.66,0,0,1,91.91,83a15.58,15.58,0,0,1,4.5-3.33c2-1.16,4.09-2.35,5-4.19s.53-4,.17-6.42a15.87,15.87,0,0,1-.19-5.68,15.34,15.34,0,0,1,2.57-4.87c1.32-1.93,2.69-3.93,2.69-6s-1.37-4.09-2.69-6a15.34,15.34,0,0,1-2.57-4.87,15.88,15.88,0,0,1,.19-5.68c.36-2.38.7-4.62-.17-6.41s-3-3-5-4.19a15.57,15.57,0,0,1-4.5-3.33,15.65,15.65,0,0,1-2.27-5.15c-.68-2.21-1.38-4.5-3-5.76s-3.84-1.43-6.25-1.61a15.76,15.76,0,0,1-5.55-1.08,15.49,15.49,0,0,1-4.21-3.62C69.08,3,67.45,1.23,65.43.78s-4,.39-6.23,1.26A16,16,0,0,1,53.64,3.5,16,16,0,0,1,48.08,2C45.86,1.17,43.76.34,41.85.78S38.2,3,36.62,4.72A15.51,15.51,0,0,1,32.4,8.33a15.75,15.75,0,0,1-5.55,1.07c-2.41.18-4.68.35-6.25,1.61s-2.29,3.55-3,5.76a15.66,15.66,0,0,1-2.27,5.15,15.6,15.6,0,0,1-4.5,3.33c-2,1.16-4.09,2.35-5,4.19s-.53,4-.17,6.42a15.86,15.86,0,0,1,.19,5.68,15.35,15.35,0,0,1-2.57,4.87C2,48.35.66,50.35.66,52.44s1.37,4.09,2.69,6a15.35,15.35,0,0,1,2.57,4.87A15.87,15.87,0,0,1,5.72,69c-.36,2.38-.7,4.62.17,6.42s3,3,5,4.19A15.56,15.56,0,0,1,15.37,83a15.65,15.65,0,0,1,2.27,5.15c.68,2.21,1.38,4.5,3,5.76s3.84,1.43,6.25,1.61a15.76,15.76,0,0,1,5.55,1.08,15.48,15.48,0,0,1,4.21,3.62c1.58,1.71,3.22,3.48,5.23,3.94s4-.39,6.23-1.26A16,16,0,0,1,53.64,101.39Z"/><path class="cls-1" d="M38.45,27.74c-1.13-2.62-.9-8.7,3.28-8.7.84,0,2.33,0,2.51,1.65a3.5,3.5,0,0,1-3.44,3.71c.09,3.59,1.31,3.35,1.85,3.68s3-.11,4.88-5.88c0,0,.36-.07.43,0a.89.89,0,0,1,.07.5C45.74,31.38,39.35,29.45,38.45,27.74Zm2.28-4.18c1.11-.09,2.21-.34,2.48-2.49-.07-1.31-.93-1.33-1.31-1.06A6.2,6.2,0,0,0,40.73,23.56Z"/><path class="cls-1" d="M57.84,22.2a.55.55,0,0,1,.43.07c.2.13.11.52.11.52a9.25,9.25,0,0,1-6.26,6.67c-2.26.7-4.72-2.15-4.7-4.9.07-8.25,4.84-6.26,5.76-5.74,1.42.81.95,2.39.48,3.32-.29.54-.57.09-.75.09.86-2.82-.14-2.78-.36-3-2.37.16-2.8,9.08-.23,8.93C56.12,27.92,57.84,22.2,57.84,22.2Z"/><path class="cls-1" d="M65,24a2.91,2.91,0,0,0,3.73-1.76s.09-.36.5-.11.11.59.11.59c-1.24,2.83-4.29,2.15-4.59,2.1-1,3.66-2.69,4.18-4.29,4.39-2,.14-2.71-2.58-2.83-3.84-.25-2.92.81-5.6,2.31-5.33a1.94,1.94,0,0,1,1.29-2.17,2.79,2.79,0,0,1,3.64,1.85A5.84,5.84,0,0,1,65,24Zm-4.84-3.59c0,.18.59,1.38.5,1.65-.18,1-.41,5.4,1,5.79.84-.14,1.67-1.33,2.4-3.23C63.22,24.41,61.23,22.65,60.19,20.37Zm4.18,3.19A5.17,5.17,0,0,0,63.55,19c-.57-.75-2-1.31-2.15.45C61.41,20.84,63,22.92,64.37,23.56Z"/><path class="cls-1" d="M37.82,83c-.67-1.56-.3-1.95.07-2.18.72-.44,1.16.38.54,1.43a14.13,14.13,0,0,0,.82,1.45,2.93,2.93,0,0,0,1.41-1.29.13.13,0,0,1,.16,0c.09.06,0,.17,0,.17a4,4,0,0,1-1.45,1.46,2.41,2.41,0,0,1,.3,1c.14,1.17-1,1.22-1.32,1.18-.53-.07-1.72-.74.05-2C38.29,83.94,37.93,83.28,37.82,83Zm.72,1.58c-1.42.77-.59,1.37,0,1.41C39.3,86.1,38.74,85.11,38.54,84.63ZM38.29,82a.9.9,0,0,0,.14-.66c-.07-.41-.23-.24-.31-.18C38,81.48,38.21,81.77,38.29,82Z"/><path class="cls-1" d="M43,82.41s.11,0,.13,0a.49.49,0,0,1,0,.19c-.29,2.34-1.1,3.24-2.09,3-.81-.24-.38-3.27-.34-3.44a.33.33,0,0,1,.44-.24c.33.21.41.47.36.64a17.52,17.52,0,0,0-.2,2.15C41.29,85.6,42.49,85.83,43,82.41ZM41.74,81c0,.14,0,.34-.09.41a.83.83,0,0,1-.57-.12c-.25-.46,0-.64,0-.64C41.29,80.64,41.72,80.76,41.74,81Z"/><path class="cls-1" d="M47.42,82.65c-.73,3.85-1.78,3.48-2,3.18a4.09,4.09,0,0,1-.53-2.56c0-.4.45-2,.06-1.69a7,7,0,0,0-1.15,2.13c.13.47,0,.56-.11.58-.55.09-.59-.25-.65-.44a5.17,5.17,0,0,1,.09-2.2c0-.13.22-.19.29-.14.27.16.52.29.46.6a7.86,7.86,0,0,0-.11,1,4.12,4.12,0,0,1,1-1.69c.33-.33,1,.1,1.11.56a6.08,6.08,0,0,1-.1,1.51c-.23,1.34,0,1.86.05,1.92s.61.43,1.38-2.93a.59.59,0,0,1,.14,0A.38.38,0,0,1,47.42,82.65Z"/><path class="cls-1" d="M50.48,82.47a.17.17,0,0,1,.14,0c.06,0,0,.16,0,.16a2.92,2.92,0,0,1-2,2.11c-.71.22-1.49-.68-1.49-1.55,0-2.61,1.53-2,1.82-1.81.45.26.3.76.15,1s-.18,0-.24,0c.27-.89,0-.88-.11-.95-.75.05-.88,2.87-.07,2.82C49.94,84.28,50.48,82.47,50.48,82.47Z"/><path class="cls-1" d="M50.6,84.22c-.36-.83-.29-2.75,1-2.75.26,0,.74,0,.79.52a1.1,1.1,0,0,1-1.09,1.17c0,1.13.42,1.06.59,1.16s1,0,1.54-1.86c0,0,.11,0,.14,0a.28.28,0,0,1,0,.16C52.9,85.37,50.88,84.76,50.6,84.22Zm.72-1.32c.35,0,.7-.11.79-.79,0-.41-.29-.42-.41-.33A2,2,0,0,0,51.31,82.9Z"/><path class="cls-1" d="M56.13,80.74c-.29-1.28,1.58-1.73,2.17-1a1.49,1.49,0,0,1,.11,1.63,23.93,23.93,0,0,0-1.71,3.36,1.51,1.51,0,0,1,1,.11,2,2,0,0,0,1,0c.22-.08.26.26.07.34a1.35,1.35,0,0,1-.92.14,1.76,1.76,0,0,0-1.51.06c-.35,0-.51-.49-.48-.68.1-.84,2.16-4.18,2-4.7-.24-.72-1.58,0-1.37.59C56.52,80.85,56.24,80.93,56.13,80.74Z"/><path class="cls-1" d="M61.86,80.17c.84,0,1.41.62,1.63,1.66.2,2.61-1.11,3.3-1.86,3.32-2.32.05-2.12-3.27-1.56-4.45a2.58,2.58,0,0,1,1.76-1.26c.53,0,.06.56,0,.6-2,1.26-1.22,5,.06,4.62,1.83-.57,1.38-4.28-.14-4.19C61.53,80.43,61.72,80.16,61.86,80.17Z"/><path class="cls-1" d="M64.3,80.13c.12-.62.53-.81.61-.74.68.44.56,1.54.51,1.89a22,22,0,0,1-.31,3.94c-.45.5-.78-.55-.78-.8a35.42,35.42,0,0,1,.21-4.1S64.35,80.33,64.3,80.13Z"/><path class="cls-1" d="M66.52,80.74c-.29-1.28,1.58-1.73,2.17-1a1.49,1.49,0,0,1,.11,1.63,23.93,23.93,0,0,0-1.71,3.36,1.51,1.51,0,0,1,1,.11,2,2,0,0,0,1,0c.22-.08.26.26.07.34a1.35,1.35,0,0,1-.92.14,1.76,1.76,0,0,0-1.51.06c-.35,0-.51-.49-.48-.68.1-.84,2.16-4.18,2-4.7-.24-.72-1.58,0-1.37.59C66.92,80.85,66.63,80.93,66.52,80.74Z"/><path class="cls-1" d="M28.51,49.51A8.25,8.25,0,0,1,29,50.69a8.58,8.58,0,0,1,.26,1.22,9.71,9.71,0,0,1-1.92.51,12.87,12.87,0,0,1-1.84.12A7.71,7.71,0,0,1,22.4,52,6.09,6.09,0,0,1,20.2,50.4,6.74,6.74,0,0,1,18.85,48a9.8,9.8,0,0,1-.45-3,9.52,9.52,0,0,1,.47-3,7.1,7.1,0,0,1,1.36-2.43,6.16,6.16,0,0,1,2.19-1.6,7.3,7.3,0,0,1,3-.57,12.45,12.45,0,0,1,1.82.12,7.91,7.91,0,0,1,1.79.51,4.52,4.52,0,0,1-.25,1.2c-.14.39-.29.78-.45,1.18A9.07,9.07,0,0,0,27,40a7.25,7.25,0,0,0-1.31-.1,3.7,3.7,0,0,0-3,1.28A5.87,5.87,0,0,0,21.64,45q0,5,4.25,5a7.61,7.61,0,0,0,1.33-.1A8.81,8.81,0,0,0,28.51,49.51Z"/><path class="cls-1" d="M37.35,52.55A6.63,6.63,0,0,1,34.48,52a5.36,5.36,0,0,1-2-1.59A6.91,6.91,0,0,1,31.34,48,11.37,11.37,0,0,1,31,45a11.61,11.61,0,0,1,.38-3,7,7,0,0,1,1.16-2.43,5.33,5.33,0,0,1,2-1.6,7.47,7.47,0,0,1,5.74,0,5.34,5.34,0,0,1,2,1.6,7,7,0,0,1,1.16,2.43,11.67,11.67,0,0,1,.38,3,11.43,11.43,0,0,1-.38,3,6.89,6.89,0,0,1-1.16,2.4,5.36,5.36,0,0,1-2,1.59A6.64,6.64,0,0,1,37.35,52.55Zm0-2.5q3.18,0,3.18-5.09a7.51,7.51,0,0,0-.77-3.81,2.59,2.59,0,0,0-2.39-1.27q-3.22,0-3.22,5.09T37.35,50Z"/><path class="cls-1" d="M46.75,37.55h8.37a6.39,6.39,0,0,1,.12,1.25,6.57,6.57,0,0,1-.12,1.29H49.74v3.47H54a6.8,6.8,0,0,1,.12,1.27A6.68,6.68,0,0,1,54,46.13H49.74V52.3a9.14,9.14,0,0,1-3,0Z"/><path class="cls-1" d="M57.66,37.55H66a6.4,6.4,0,0,1,.12,1.25A6.58,6.58,0,0,1,66,40.1H60.66v3.47h4.27A6.8,6.8,0,0,1,65,44.83a6.68,6.68,0,0,1-.12,1.29H60.66V52.3a9.14,9.14,0,0,1-3,0Z"/><path class="cls-1" d="M68.58,37.55h8.37a6.39,6.39,0,0,1,.12,1.25,6.57,6.57,0,0,1-.12,1.29H71.57v3.2h4.27A6.8,6.8,0,0,1,76,44.57a6.68,6.68,0,0,1-.12,1.29H71.57v3.9h5.52A6.38,6.38,0,0,1,77.21,51a6.6,6.6,0,0,1-.12,1.29H68.58Z"/><path class="cls-1" d="M80,37.55h8.37a6.39,6.39,0,0,1,.12,1.25,6.57,6.57,0,0,1-.12,1.29H83v3.2h4.27a6.8,6.8,0,0,1,.12,1.27,6.68,6.68,0,0,1-.12,1.29H83v3.9h5.52A6.39,6.39,0,0,1,88.62,51a6.61,6.61,0,0,1-.12,1.29H80Z"/><path class="cls-1" d="M30.75,65.16a8.77,8.77,0,0,1-1.25-.58,3.69,3.69,0,0,1-.94-.76,3.17,3.17,0,0,1-.6-1.06,5,5,0,0,1,.14-3.32,3.67,3.67,0,0,1,1-1.34,4.44,4.44,0,0,1,1.58-.82A7.17,7.17,0,0,1,32.76,57a9.85,9.85,0,0,1,2,.19,14.6,14.6,0,0,1,1.92.53A7.29,7.29,0,0,1,36,60.05l-.62-.25a5,5,0,0,0-.68-.21,7.53,7.53,0,0,0-.81-.13,9.09,9.09,0,0,0-1-.05,4.25,4.25,0,0,0-.71.06,2,2,0,0,0-.65.23,1.28,1.28,0,0,0-.47.48,1.65,1.65,0,0,0-.18.83,1.48,1.48,0,0,0,.14.69,1.43,1.43,0,0,0,.39.47,2.44,2.44,0,0,0,.55.33l.61.26,1.23.47q.78.31,1.41.63a3.83,3.83,0,0,1,1.08.81,3.41,3.41,0,0,1,.69,1.17,5.06,5.06,0,0,1,.25,1.69,4.69,4.69,0,0,1-.38,1.91,4.09,4.09,0,0,1-1.1,1.48,5.19,5.19,0,0,1-1.78,1,7.78,7.78,0,0,1-2.43.35q-.68,0-1.21,0a9.08,9.08,0,0,1-1-.13,9.64,9.64,0,0,1-1-.24q-.47-.14-1-.35a8.61,8.61,0,0,1,.23-1.24q.16-.65.39-1.3a10.74,10.74,0,0,0,1.62.52,7.21,7.21,0,0,0,1.62.18,3.68,3.68,0,0,0,2-.48A1.63,1.63,0,0,0,34,67.68a1.73,1.73,0,0,0-.18-.82,1.77,1.77,0,0,0-.45-.55,2.69,2.69,0,0,0-.62-.38l-.72-.3Z"/><path class="cls-1" d="M39.86,57.24a9.37,9.37,0,0,1,1.5-.12,9.76,9.76,0,0,1,1.52.12V63h4.94V57.24a9.37,9.37,0,0,1,1.5-.12,9.75,9.75,0,0,1,1.52.12V72a9.63,9.63,0,0,1-1.5.12A9.5,9.5,0,0,1,47.82,72V65.61H42.87V72a9.63,9.63,0,0,1-1.5.12A9.49,9.49,0,0,1,39.86,72Z"/><path class="cls-1" d="M60.23,72.24a6.63,6.63,0,0,1-2.87-.57,5.36,5.36,0,0,1-2-1.59,6.91,6.91,0,0,1-1.16-2.4,11.38,11.38,0,0,1-.38-3,11.61,11.61,0,0,1,.38-3,7,7,0,0,1,1.16-2.43,5.33,5.33,0,0,1,2-1.6,7.46,7.46,0,0,1,5.74,0,5.33,5.33,0,0,1,2,1.6,7,7,0,0,1,1.16,2.43,11.67,11.67,0,0,1,.38,3,11.43,11.43,0,0,1-.38,3,6.89,6.89,0,0,1-1.16,2.4,5.36,5.36,0,0,1-2,1.59A6.64,6.64,0,0,1,60.23,72.24Zm0-2.5q3.18,0,3.18-5.09a7.51,7.51,0,0,0-.77-3.81,2.59,2.59,0,0,0-2.39-1.27Q57,59.56,57,64.65T60.23,69.73Z"/><path class="cls-1" d="M69.62,57.18q.94-.08,1.91-.13T73.48,57a10.92,10.92,0,0,1,2.08.21,5.22,5.22,0,0,1,1.91.77,4.2,4.2,0,0,1,1.38,1.57,5.54,5.54,0,0,1,.53,2.61,5.47,5.47,0,0,1-.53,2.59,4.33,4.33,0,0,1-1.37,1.57,5,5,0,0,1-1.88.78,10.51,10.51,0,0,1-2,.2h-.5l-.44,0V72a7.17,7.17,0,0,1-.76.08l-.72,0-.72,0a7.92,7.92,0,0,1-.8-.08Zm3,7.59a2.81,2.81,0,0,0,.46,0h.52a3.82,3.82,0,0,0,1-.13,2.35,2.35,0,0,0,.87-.44,2.15,2.15,0,0,0,.6-.81,3,3,0,0,0,.23-1.24,3.23,3.23,0,0,0-.23-1.28,2.22,2.22,0,0,0-.6-.84,2.27,2.27,0,0,0-.87-.45,3.82,3.82,0,0,0-1-.13h-.42l-.56.05Z"/><path class="cls-1" d="M57.5,91.44H49.78a.33.33,0,1,1,0-.66H57.5a.33.33,0,1,1,0,.66Z"/><path class="cls-1" d="M34.19,24.82H26.48a.33.33,0,1,1,0-.66h7.71a.33.33,0,1,1,0,.66Z"/><path class="cls-1" d="M80.8,24.82H73.09a.33.33,0,1,1,0-.66H80.8a.33.33,0,1,1,0,.66Z"/></g></g></svg>