<svg id="Statistics_1" data-name="Statistics 1" xmlns="http://www.w3.org/2000/svg" width="360.5" height="444.56" viewBox="0 0 360.5 444.56">
  <metadata><?xpacket begin="﻿" id="W5M0MpCehiHzreSzNTczkc9d"?>
<x:xmpmeta xmlns:x="adobe:ns:meta/" x:xmptk="Adobe XMP Core 5.6-c138 79.159824, 2016/09/14-01:09:01        ">
   <rdf:RDF xmlns:rdf="http://www.w3.org/1999/02/22-rdf-syntax-ns#">
      <rdf:Description rdf:about=""/>
   </rdf:RDF>
</x:xmpmeta>
                                                                                                    
                                                                                                    
                                                                                                    
                                                                                                    
                                                                                                    
                                                                                                    
                                                                                                    
                                                                                                    
                                                                                                    
                                                                                                    
                                                                                                    
                                                                                                    
                                                                                                    
                                                                                                    
                                                                                                    
                                                                                                    
                                                                                                    
                                                                                                    
                                                                                                    
                                                                                                    
                           
<?xpacket end="w"?></metadata>
<defs>
    <style>
      .cls-1, .cls-10, .cls-8 {
        fill: #fff;
      }

      .cls-2 {
        fill: #ecf1f5;
      }

      .cls-12, .cls-15, .cls-2, .cls-7, .cls-9 {
        fill-rule: evenodd;
      }

      .cls-3, .cls-5 {
        font-size: 12px;
      }

      .cls-3 {
        fill: #6a6f7b;
        text-anchor: middle;
        text-transform: uppercase;
      }

      .cls-11, .cls-13, .cls-3, .cls-5 {
        font-family: Lato;
      }

      .cls-11, .cls-13, .cls-3 {
        font-weight: 500;
      }

      .cls-4 {
        fill: #1cc327;
      }

      .cls-5 {
        fill: #a0a1a4;
        font-weight: 700;
      }

      .cls-6 {
        fill: #b80add;
      }

      .cls-7, .cls-9 {
        fill: none;
      }

      .cls-7 {
        stroke: #15ba57;
        stroke-width: 2.5px;
      }

      .cls-8 {
        stroke: #1cc327;
      }

      .cls-10, .cls-8, .cls-9 {
        stroke-width: 3px;
      }

      .cls-10, .cls-9 {
        stroke: #b80add;
      }

      .cls-11 {
        font-size: 44px;
      }

      .cls-11, .cls-13 {
        fill: #32394d;
      }

      .cls-12 {
        fill: #4f5158;
        opacity: 0.76;
      }

      .cls-13 {
        font-size: 16px;
      }

      .cls-14, .cls-15 {
        fill: #d9e0e5;
      }
    </style>
  </defs>
  <rect id="frame" class="cls-1" width="360" height="444.56" rx="4" ry="4"/>
  <g id="week">
    <path id="Rectangle_6_copy_45" data-name="Rectangle 6 copy 45" class="cls-2" d="M80.5,3657.43h360v1H80.5v-1Z" transform="translate(-80 -3263.38)"/>
    <text id="Mon" class="cls-3" transform="translate(41.151 423.701)">Mon</text>
    <text id="Tue" class="cls-3" transform="translate(88.151 423.701)">Tue</text>
    <text id="Wed" class="cls-3" transform="translate(134.651 423.701)">Wed</text>
    <text id="Thu" class="cls-3" transform="translate(181.651 423.701)">Thu</text>
    <text id="Fri" class="cls-3" transform="translate(228.151 423.701)">Fri</text>
    <text id="Sat" class="cls-3" transform="translate(274.65 423.701)">Sat</text>
    <text id="Sun" class="cls-3" transform="translate(322.151 423.701)">Sun</text>
  </g>
  <g id="legend">
    <circle id="Ellipse_7_copy_3" data-name="Ellipse 7 copy 3" class="cls-4" cx="254.5" cy="101.53" r="4.5"/>
    <text id="Upcoming" class="cls-5" transform="translate(269.151 105.661)">Upcoming</text>
    <circle id="Ellipse_7_copy_4" data-name="Ellipse 7 copy 4" class="cls-6" cx="254.5" cy="126.53" r="4.5"/>
    <text id="Incoming" class="cls-5" transform="translate(269.151 130.663)">Incoming</text>
  </g>
  <g id="graph">
    <path id="Rectangle_6_copy_12" data-name="Rectangle 6 copy 12" class="cls-2" d="M120,3459.91h1v198.02h-1V3459.91Z" transform="translate(-80 -3263.38)"/>
    <path id="Rectangle_6_copy_13" data-name="Rectangle 6 copy 13" class="cls-2" d="M166.5,3459.91h1v198.02h-1V3459.91Z" transform="translate(-80 -3263.38)"/>
    <path id="Rectangle_6_copy_14" data-name="Rectangle 6 copy 14" class="cls-2" d="M213,3459.91h1v198.02h-1V3459.91Z" transform="translate(-80 -3263.38)"/>
    <path id="Rectangle_6_copy_15" data-name="Rectangle 6 copy 15" class="cls-2" d="M260,3459.91h1v198.02h-1V3459.91Z" transform="translate(-80 -3263.38)"/>
    <path id="Rectangle_6_copy_16" data-name="Rectangle 6 copy 16" class="cls-2" d="M399.5,3459.91h1v198.02h-1V3459.91Z" transform="translate(-80 -3263.38)"/>
    <path id="Rectangle_6_copy_44" data-name="Rectangle 6 copy 44" class="cls-2" d="M353,3459.91h1v198.02h-1V3459.91Z" transform="translate(-80 -3263.38)"/>
    <path id="Rectangle_6_copy_39" data-name="Rectangle 6 copy 39" class="cls-2" d="M306.5,3459.91h1v198.02h-1V3459.91Z" transform="translate(-80 -3263.38)"/>
    <path class="cls-7" d="M120.5,3535.42l47,21.5,46.5-21,46.5-35.51,47,25,46.5-4,46-54.5" transform="translate(-80 -3263.38)"/>
    <circle class="cls-8" cx="40.5" cy="273.03" r="6"/>
    <circle id="Ellipse_3_copy" data-name="Ellipse 3 copy" class="cls-8" cx="133.5" cy="272.53" r="6"/>
    <circle id="Ellipse_3_copy_6" data-name="Ellipse 3 copy 6" class="cls-8" cx="87" cy="293.53" r="6"/>
    <circle id="Ellipse_3_copy_2" data-name="Ellipse 3 copy 2" class="cls-8" cx="180.5" cy="238.03" r="6"/>
    <circle id="Ellipse_3_copy_3" data-name="Ellipse 3 copy 3" class="cls-8" cx="227.5" cy="262.03" r="6"/>
    <circle id="Ellipse_3_copy_7" data-name="Ellipse 3 copy 7" class="cls-8" cx="273.5" cy="259.03" r="6"/>
    <circle id="Ellipse_3_copy_4" data-name="Ellipse 3 copy 4" class="cls-8" cx="320" cy="204.53" r="6"/>
    <path class="cls-9" d="M121,3588.42l46.5,1.5,46.5,25.5,47,12.01,46.5-18.01,46.5-6,46.5,18.01" transform="translate(-80 -3263.38)"/>
    <circle id="Ellipse_3_copy_5" data-name="Ellipse 3 copy 5" class="cls-10" cx="41" cy="325.045" r="6"/>
    <circle id="Ellipse_3_copy_5-2" data-name="Ellipse 3 copy 5" class="cls-10" cx="87.5" cy="326.545" r="6"/>
    <circle id="Ellipse_3_copy_8" data-name="Ellipse 3 copy 8" class="cls-10" cx="133.5" cy="352.06" r="6"/>
    <circle id="Ellipse_3_copy_9" data-name="Ellipse 3 copy 9" class="cls-10" cx="181" cy="364.06" r="6"/>
    <circle id="Ellipse_3_copy_5-3" data-name="Ellipse 3 copy 5" class="cls-10" cx="227" cy="346.06" r="6"/>
    <circle id="Ellipse_3_copy_5-4" data-name="Ellipse 3 copy 5" class="cls-10" cx="320.5" cy="358.06" r="6"/>
    <circle id="Ellipse_3_copy_10" data-name="Ellipse 3 copy 10" class="cls-10" cx="274" cy="340.06" r="6"/>
  </g>
  <g id="Title">
    <text id="_54_" data-name="54%" class="cls-11" transform="translate(28.651 126.664)">54%</text>
    <path id="_2_341_new_customers" data-name="2,341 new customers" class="cls-12" d="M114.7,3409.56a2.758,2.758,0,0,0-.483.04c-0.17.03-.339,0.07-0.507,0.11l2.184-2.23c0.24-.24.467-0.48,0.681-0.71a6.008,6.008,0,0,0,.564-0.73,3.217,3.217,0,0,0,.384-0.78,2.705,2.705,0,0,0,.141-0.89,2.46,2.46,0,0,0-.2-1.01,2.208,2.208,0,0,0-.546-0.76,2.365,2.365,0,0,0-.825-0.48,3.165,3.165,0,0,0-1.041-.16,3.493,3.493,0,0,0-1.041.15,2.6,2.6,0,0,0-.855.47,2.517,2.517,0,0,0-.618.76,3.184,3.184,0,0,0-.33,1.06l0.612,0.11a0.547,0.547,0,0,0,.375-0.04,0.555,0.555,0,0,0,.213-0.3,1.43,1.43,0,0,1,.2-0.48,1.471,1.471,0,0,1,.807-0.64,1.748,1.748,0,0,1,.573-0.09,1.829,1.829,0,0,1,.582.09,1.3,1.3,0,0,1,.468.27,1.26,1.26,0,0,1,.312.45,1.7,1.7,0,0,1,.114.64,2.262,2.262,0,0,1-.105.69,3,3,0,0,1-.3.65,4.571,4.571,0,0,1-.468.63q-0.276.315-.618,0.66l-2.724,2.73a0.6,0.6,0,0,0-.162.24,0.79,0.79,0,0,0-.048.26v0.4h5.784v-0.71a0.407,0.407,0,0,0-.108-0.29,0.415,0.415,0,0,0-.3-0.11H114.7Zm5.166,1.11a1.382,1.382,0,0,1-.117.36,2.668,2.668,0,0,1-.174.32,2.23,2.23,0,0,1-.189.24c-0.064.08-.116,0.13-0.156,0.18a0.541,0.541,0,0,0-.069.09,0.142,0.142,0,0,0-.027.08,0.262,0.262,0,0,0,.09.19l0.2,0.18a3.478,3.478,0,0,0,.876-1.08,2.765,2.765,0,0,0,.228-0.59,2.267,2.267,0,0,0,.078-0.57,1.264,1.264,0,0,0-.048-0.35,0.765,0.765,0,0,0-.147-0.28,0.638,0.638,0,0,0-.246-0.19,0.735,0.735,0,0,0-.339-0.07,0.981,0.981,0,0,0-.306.05,0.7,0.7,0,0,0-.237.16,0.671,0.671,0,0,0-.153.22,0.722,0.722,0,0,0-.054.27,0.911,0.911,0,0,0,.054.32,0.8,0.8,0,0,0,.153.25,0.706,0.706,0,0,0,.234.16,0.723,0.723,0,0,0,.3.06h0.054Zm2.706-6.16a0.533,0.533,0,0,0,.369-0.04,0.555,0.555,0,0,0,.213-0.3,1.43,1.43,0,0,1,.2-0.48,1.52,1.52,0,0,1,.342-0.39,1.5,1.5,0,0,1,.468-0.25,1.775,1.775,0,0,1,.576-0.09,1.8,1.8,0,0,1,.579.09,1.124,1.124,0,0,1,.462.26,1.264,1.264,0,0,1,.3.44,1.636,1.636,0,0,1,.108.62,1.589,1.589,0,0,1-.105.59,1.089,1.089,0,0,1-.339.45,1.622,1.622,0,0,1-.615.3,3.5,3.5,0,0,1-.933.12v0.85a4.6,4.6,0,0,1,1.092.11,1.814,1.814,0,0,1,.657.32,0.963,0.963,0,0,1,.321.48,2.2,2.2,0,0,1,.084.62,1.535,1.535,0,0,1-.108.55,1.556,1.556,0,0,1-.324.5,1.578,1.578,0,0,1-.54.36,1.785,1.785,0,0,1-.756.14,1.813,1.813,0,0,1-.747-0.13,1.943,1.943,0,0,1-.5-0.34,1.922,1.922,0,0,1-.315-0.43c-0.078-.15-0.147-0.28-0.207-0.4a0.346,0.346,0,0,0-.27-0.21,0.645,0.645,0,0,0-.384.04l-0.51.22a5.372,5.372,0,0,0,.381.92,2.65,2.65,0,0,0,.567.71,2.408,2.408,0,0,0,.828.46,3.628,3.628,0,0,0,1.164.17,3.427,3.427,0,0,0,1.119-.18,2.884,2.884,0,0,0,.921-0.51,2.3,2.3,0,0,0,.624-0.82,2.5,2.5,0,0,0,.228-1.09,1.981,1.981,0,0,0-.414-1.29,2.342,2.342,0,0,0-1.236-.75,2.7,2.7,0,0,0,.606-0.27,1.7,1.7,0,0,0,.459-0.4,1.8,1.8,0,0,0,.291-0.56,2.4,2.4,0,0,0,.1-0.73,2.131,2.131,0,0,0-.186-0.9,1.937,1.937,0,0,0-.519-0.7,2.167,2.167,0,0,0-.8-0.45,3.067,3.067,0,0,0-1.026-.16,3.493,3.493,0,0,0-1.041.15,2.6,2.6,0,0,0-.855.47,2.517,2.517,0,0,0-.618.76,3.282,3.282,0,0,0-.336,1.06Zm6.984,3.02,3.018-4.14a4.044,4.044,0,0,0-.039.41c-0.006.13-.009,0.25-0.009,0.37v3.36h-2.97Zm4,0v-5.48h-1.1l-4.164,5.54,0.12,0.6a0.387,0.387,0,0,0,.12.19,0.332,0.332,0,0,0,.222.07h3.78v2.22h1.026v-2.22h1a0.233,0.233,0,0,0,.186-0.07,0.263,0.263,0,0,0,.066-0.18v-0.67H133.55Zm6.047,2.25v-7.74h-0.954l-2.58,2.22,0.366,0.51a0.3,0.3,0,0,0,.093.08,0.212,0.212,0,0,0,.132.05,0.425,0.425,0,0,0,.159,0,0.348,0.348,0,0,0,.168-0.09l1.464-1.24c-0.012.19-.018,0.38-0.018,0.56v5.65H136.6v0.89h4.656v-0.89H139.6Zm7.35-4.97a0.287,0.287,0,0,0-.306-0.24h-0.7v6.1h1.17v-4.47a2.856,2.856,0,0,1,.729-0.58,1.762,1.762,0,0,1,.843-0.21,1.127,1.127,0,0,1,.918.36,1.551,1.551,0,0,1,.3,1.02v3.88h1.176v-3.88a3.112,3.112,0,0,0-.132-0.94,1.979,1.979,0,0,0-.39-0.73,1.755,1.755,0,0,0-.639-0.47,2.051,2.051,0,0,0-.885-0.17,2.294,2.294,0,0,0-.6.07,2.254,2.254,0,0,0-.522.19,2.321,2.321,0,0,0-.459.3,3.489,3.489,0,0,0-.414.38Zm6.552,2.13a2.085,2.085,0,0,1,.537-1.18,1.791,1.791,0,0,1,1.8-.3,1.359,1.359,0,0,1,.468.33,1.574,1.574,0,0,1,.291.51,2.015,2.015,0,0,1,.1.64H153.5Zm3.822,2.43a0.264,0.264,0,0,0-.222-0.11,0.48,0.48,0,0,0-.249.09c-0.094.06-.21,0.13-0.348,0.2a3.3,3.3,0,0,1-.492.19,2.252,2.252,0,0,1-.675.09,2,2,0,0,1-.75-0.13,1.531,1.531,0,0,1-.579-0.4,1.944,1.944,0,0,1-.381-0.68,3.309,3.309,0,0,1-.156-0.95h4a0.248,0.248,0,0,0,.222-0.09,0.77,0.77,0,0,0,.06-0.37,3.244,3.244,0,0,0-.2-1.16,2.448,2.448,0,0,0-.537-0.86,2.283,2.283,0,0,0-.813-0.53,2.859,2.859,0,0,0-1.029-.18,3.063,3.063,0,0,0-1.2.23,2.691,2.691,0,0,0-.9.64,3.01,3.01,0,0,0-.567.96,3.488,3.488,0,0,0-.2,1.19,4.173,4.173,0,0,0,.219,1.4,2.954,2.954,0,0,0,.612,1.02,2.61,2.61,0,0,0,.93.62,3.177,3.177,0,0,0,1.167.21,3.811,3.811,0,0,0,.669-0.05,3.643,3.643,0,0,0,.657-0.17,2.68,2.68,0,0,0,.6-0.29,2.5,2.5,0,0,0,.5-0.44Zm9.216-4.8a0.392,0.392,0,0,0-.213.07,0.294,0.294,0,0,0-.123.17l-1.116,3.74c-0.04.16-.076,0.31-0.108,0.46s-0.06.29-.084,0.43c-0.032-.15-0.068-0.29-0.108-0.44s-0.082-.3-0.126-0.45l-1.188-3.77a0.316,0.316,0,0,0-.117-0.16,0.377,0.377,0,0,0-.219-0.06h-0.51a0.342,0.342,0,0,0-.2.06,0.322,0.322,0,0,0-.114.16l-1.218,3.77q-0.066.225-.129,0.45c-0.042.14-.081,0.28-0.117,0.43-0.024-.15-0.05-0.29-0.078-0.43s-0.06-.3-0.1-0.45l-1.1-3.74a0.294,0.294,0,0,0-.123-0.17,0.421,0.421,0,0,0-.231-0.07h-0.924l1.968,6.1h0.888a0.252,0.252,0,0,0,.258-0.22l1.3-3.96a4.453,4.453,0,0,0,.15-0.61q0.03,0.15.066,0.3t0.084,0.3l1.284,3.97a0.239,0.239,0,0,0,.228.22h0.936l1.962-6.1h-0.882Zm9.246,0.71a2.907,2.907,0,0,0-.888-0.59,2.945,2.945,0,0,0-1.152-.21,3.015,3.015,0,0,0-1.236.24,2.451,2.451,0,0,0-.909.65,2.83,2.83,0,0,0-.558.99,4.03,4.03,0,0,0-.189,1.26,3.949,3.949,0,0,0,.21,1.33,2.915,2.915,0,0,0,.573.98,2.383,2.383,0,0,0,.858.61,2.7,2.7,0,0,0,1.065.21,3.53,3.53,0,0,0,.651-0.05,3.138,3.138,0,0,0,.615-0.17,2.408,2.408,0,0,0,.555-0.29,2.329,2.329,0,0,0,.471-0.44l-0.336-.43a0.264,0.264,0,0,0-.222-0.11,0.345,0.345,0,0,0-.222.09,1.753,1.753,0,0,1-.27.2,2.029,2.029,0,0,1-.408.21,1.839,1.839,0,0,1-.624.09,1.639,1.639,0,0,1-.708-0.15,1.461,1.461,0,0,1-.54-0.43,2.025,2.025,0,0,1-.342-0.7,3.477,3.477,0,0,1-.12-0.95,3.441,3.441,0,0,1,.114-0.93,2.121,2.121,0,0,1,.333-0.71,1.438,1.438,0,0,1,.549-0.44,1.824,1.824,0,0,1,.762-0.16,1.761,1.761,0,0,1,.555.08,2.2,2.2,0,0,1,.384.16c0.106,0.06.194,0.11,0.264,0.16a0.359,0.359,0,0,0,.2.08,0.215,0.215,0,0,0,.147-0.04,0.622,0.622,0,0,0,.1-0.11Zm5.058-.71v4.47a2.757,2.757,0,0,1-.732.58,1.648,1.648,0,0,1-.84.22,1.1,1.1,0,0,1-.918-0.37,1.54,1.54,0,0,1-.3-1.01v-3.89h-1.176v3.89a3.207,3.207,0,0,0,.132.94,2.062,2.062,0,0,0,.39.73,1.755,1.755,0,0,0,.639.47,2.21,2.21,0,0,0,.885.17,2.779,2.779,0,0,0,.594-0.07,2.942,2.942,0,0,0,.522-0.19,3.661,3.661,0,0,0,.462-0.3,4.736,4.736,0,0,0,.414-0.39l0.084,0.62a0.3,0.3,0,0,0,.312.23h0.7v-6.1h-1.17Zm6.66,0.63a2.452,2.452,0,0,0-.837-0.53,2.937,2.937,0,0,0-1.095-.19,2.725,2.725,0,0,0-.939.15,1.873,1.873,0,0,0-.69.39,1.606,1.606,0,0,0-.426.57,1.584,1.584,0,0,0-.147.68,1.436,1.436,0,0,0,.489,1.14,2.053,2.053,0,0,0,.5.31,5.957,5.957,0,0,0,.576.23l0.576,0.18a2.88,2.88,0,0,1,.5.19,1.174,1.174,0,0,1,.354.28,0.587,0.587,0,0,1,.135.4,0.877,0.877,0,0,1-.072.35,0.891,0.891,0,0,1-.219.3,1.2,1.2,0,0,1-.369.2,1.627,1.627,0,0,1-.522.08,2.021,2.021,0,0,1-.6-0.08,3.336,3.336,0,0,1-.408-0.18c-0.112-.07-0.208-0.13-0.288-0.19a0.456,0.456,0,0,0-.234-0.08,0.359,0.359,0,0,0-.192.04,0.417,0.417,0,0,0-.12.13l-0.276.45a2.839,2.839,0,0,0,.894.54,3.153,3.153,0,0,0,1.164.21,3.091,3.091,0,0,0,1-.15,2.085,2.085,0,0,0,.735-0.42,1.669,1.669,0,0,0,.45-0.62,2.059,2.059,0,0,0,.153-0.79,1.308,1.308,0,0,0-.489-1.07,1.831,1.831,0,0,0-.5-0.31,5.781,5.781,0,0,0-.57-0.22c-0.195-.06-0.384-0.12-0.57-0.18a3.965,3.965,0,0,1-.5-0.2,1.119,1.119,0,0,1-.354-0.26,0.527,0.527,0,0,1-.135-0.37,0.7,0.7,0,0,1,.078-0.33,0.735,0.735,0,0,1,.222-0.26,0.956,0.956,0,0,1,.351-0.18,1.646,1.646,0,0,1,.459-0.06,2.041,2.041,0,0,1,.528.06q0.22,0.075.387,0.15c0.11,0.05.2,0.1,0.282,0.14a0.393,0.393,0,0,0,.213.07,0.282,0.282,0,0,0,.138-0.03,0.381,0.381,0,0,0,.1-0.12Zm4.091,5.42a1.877,1.877,0,0,0,.684-0.41l-0.348-.56a0.4,0.4,0,0,0-.069-0.09,0.222,0.222,0,0,0-.093-0.02,0.177,0.177,0,0,0-.108.04,1.131,1.131,0,0,1-.144.09,0.6,0.6,0,0,1-.2.09,0.772,0.772,0,0,1-.279.05,0.608,0.608,0,0,1-.453-0.18,0.741,0.741,0,0,1-.177-0.54v-3.57h1.728v-0.85H190.4v-2.05H189.81a0.26,0.26,0,0,0-.177.06,0.286,0.286,0,0,0-.093.16l-0.264,1.82-0.99.14v0.47a0.249,0.249,0,0,0,.069.19,0.251,0.251,0,0,0,.171.06h0.708v3.65a1.624,1.624,0,0,0,.4,1.18,1.494,1.494,0,0,0,1.137.42A2.3,2.3,0,0,0,191.592,3410.62Zm2.956-5.92a2.421,2.421,0,0,0-.927.63,2.75,2.75,0,0,0-.591.99,3.821,3.821,0,0,0-.207,1.3,3.862,3.862,0,0,0,.207,1.3,2.75,2.75,0,0,0,.591.99,2.666,2.666,0,0,0,.927.63,3.637,3.637,0,0,0,2.436,0,2.635,2.635,0,0,0,.924-0.63,2.739,2.739,0,0,0,.585-0.99,3.914,3.914,0,0,0,.2-1.3,3.872,3.872,0,0,0-.2-1.3,2.739,2.739,0,0,0-.585-0.99,2.4,2.4,0,0,0-.924-0.63A3.482,3.482,0,0,0,194.548,3404.7Zm-0.084,4.56a3.349,3.349,0,0,1,0-3.28,1.509,1.509,0,0,1,1.305-.58,1.488,1.488,0,0,1,1.29.58,3.37,3.37,0,0,1,0,3.28,1.488,1.488,0,0,1-1.29.58A1.509,1.509,0,0,1,194.464,3409.26Zm6.7,1.41v-4.52a2.2,2.2,0,0,1,.594-0.54,1.256,1.256,0,0,1,.7-0.2,1.029,1.029,0,0,1,.828.33,1.637,1.637,0,0,1,.282,1.05v3.88h1.176v-3.88a1.654,1.654,0,0,1,.1-0.6,1.2,1.2,0,0,1,.27-0.43,0.967,0.967,0,0,1,.4-0.26,1.3,1.3,0,0,1,.48-0.09,1.053,1.053,0,0,1,.867.35,1.537,1.537,0,0,1,.3,1.03v3.88h1.176v-3.88a3.271,3.271,0,0,0-.138-0.99,1.954,1.954,0,0,0-.4-0.72,1.652,1.652,0,0,0-.645-0.45,2.56,2.56,0,0,0-1.458-.08,2.146,2.146,0,0,0-.549.22,1.974,1.974,0,0,0-.81.94,1.9,1.9,0,0,0-.552-0.9,1.442,1.442,0,0,0-.984-0.33,1.787,1.787,0,0,0-.963.25,3.084,3.084,0,0,0-.747.66l-0.084-.58a0.287,0.287,0,0,0-.306-0.24H200v6.1h1.17Zm9.594-3.73a2.085,2.085,0,0,1,.537-1.18,1.791,1.791,0,0,1,1.8-.3,1.359,1.359,0,0,1,.468.33,1.574,1.574,0,0,1,.291.51,2.015,2.015,0,0,1,.1.64h-3.192Zm3.822,2.43a0.264,0.264,0,0,0-.222-0.11,0.48,0.48,0,0,0-.249.09c-0.094.06-.21,0.13-0.348,0.2a3.3,3.3,0,0,1-.492.19,2.252,2.252,0,0,1-.675.09,2,2,0,0,1-.75-0.13,1.531,1.531,0,0,1-.579-0.4,1.944,1.944,0,0,1-.381-0.68,3.309,3.309,0,0,1-.156-0.95h4a0.248,0.248,0,0,0,.222-0.09,0.77,0.77,0,0,0,.06-0.37,3.244,3.244,0,0,0-.195-1.16,2.448,2.448,0,0,0-.537-0.86,2.283,2.283,0,0,0-.813-0.53,2.859,2.859,0,0,0-1.029-.18,3.063,3.063,0,0,0-1.2.23,2.691,2.691,0,0,0-.9.64,3.01,3.01,0,0,0-.567.96,3.488,3.488,0,0,0-.2,1.19,4.173,4.173,0,0,0,.219,1.4,2.954,2.954,0,0,0,.612,1.02,2.61,2.61,0,0,0,.93.62,3.177,3.177,0,0,0,1.167.21,3.811,3.811,0,0,0,.669-0.05,3.643,3.643,0,0,0,.657-0.17,2.68,2.68,0,0,0,.6-0.29,2.5,2.5,0,0,0,.5-0.44Zm2.718-4.48a0.481,0.481,0,0,0-.1-0.25,0.4,0.4,0,0,0-.261-0.07H216.27v6.1h1.17v-3.82a3.945,3.945,0,0,1,.246-0.52,1.811,1.811,0,0,1,.3-0.39,1.047,1.047,0,0,1,.387-0.24,1.511,1.511,0,0,1,.5-0.08,2.048,2.048,0,0,1,.36.03,1.577,1.577,0,0,0,.252.03,0.187,0.187,0,0,0,.2-0.16l0.078-.88a0.96,0.96,0,0,0-.309-0.13,1.573,1.573,0,0,0-1.371.29,2.8,2.8,0,0,0-.708.94Zm7.182,0.31a2.452,2.452,0,0,0-.837-0.53,2.934,2.934,0,0,0-1.095-.19,2.729,2.729,0,0,0-.939.15,1.873,1.873,0,0,0-.69.39,1.653,1.653,0,0,0-.573,1.25,1.54,1.54,0,0,0,.135.67,1.557,1.557,0,0,0,.354.47,2.072,2.072,0,0,0,.5.31,5.957,5.957,0,0,0,.576.23q0.294,0.09.576,0.18a2.849,2.849,0,0,1,.5.19,1.174,1.174,0,0,1,.354.28,0.587,0.587,0,0,1,.135.4,0.877,0.877,0,0,1-.072.35,0.891,0.891,0,0,1-.219.3,1.176,1.176,0,0,1-.369.2,1.627,1.627,0,0,1-.522.08,2.026,2.026,0,0,1-.6-0.08,3.406,3.406,0,0,1-.408-0.18c-0.112-.07-0.208-0.13-0.288-0.19a0.45,0.45,0,0,0-.234-0.08,0.361,0.361,0,0,0-.192.04,0.417,0.417,0,0,0-.12.13l-0.276.45a2.85,2.85,0,0,0,.894.54,3.153,3.153,0,0,0,1.164.21,3.086,3.086,0,0,0,1-.15,2.077,2.077,0,0,0,.735-0.42,1.669,1.669,0,0,0,.45-0.62,2.059,2.059,0,0,0,.153-0.79,1.308,1.308,0,0,0-.489-1.07,1.816,1.816,0,0,0-.5-0.31,5.781,5.781,0,0,0-.57-0.22q-0.291-.09-0.57-0.18a3.965,3.965,0,0,1-.5-0.2,1.13,1.13,0,0,1-.354-0.26,0.527,0.527,0,0,1-.135-0.37,0.7,0.7,0,0,1,.078-0.33,0.746,0.746,0,0,1,.222-0.26,0.956,0.956,0,0,1,.351-0.18,1.646,1.646,0,0,1,.459-0.06,2.041,2.041,0,0,1,.528.06q0.222,0.075.387,0.15c0.11,0.05.2,0.1,0.282,0.14a0.393,0.393,0,0,0,.213.07,0.282,0.282,0,0,0,.138-0.03,0.369,0.369,0,0,0,.1-0.12Z" transform="translate(-80 -3263.38)"/>
  </g>
  <g id="head">
    <text id="Statistics" class="cls-13" transform="translate(28.651 38.155)">Statistics</text>
    <circle class="cls-14" cx="312.578" cy="33" r="2.578"/>
    <circle id="Ellipse_4_copy" data-name="Ellipse 4 copy" class="cls-14" cx="320.266" cy="33" r="2.578"/>
    <path id="Ellipse_4_copy_2" data-name="Ellipse 4 copy 2" class="cls-15" d="M407.422,3293.89a2.5,2.5,0,1,1-2.578,2.5A2.54,2.54,0,0,1,407.422,3293.89Z" transform="translate(-80 -3263.38)"/>
    <path id="Rectangle_6_copy_2" data-name="Rectangle 6 copy 2" class="cls-2" d="M80,3323.39H440v1H80v-1Z" transform="translate(-80 -3263.38)"/>
  </g>
</svg>
