<svg id="Statistics_2" data-name="Statistics 2" xmlns="http://www.w3.org/2000/svg" xmlns:xlink="http://www.w3.org/1999/xlink" width="360" height="445.06" viewBox="0 0 360 445.06">
  <metadata><?xpacket begin="﻿" id="W5M0MpCehiHzreSzNTczkc9d"?>
<x:xmpmeta xmlns:x="adobe:ns:meta/" x:xmptk="Adobe XMP Core 5.6-c138 79.159824, 2016/09/14-01:09:01        ">
   <rdf:RDF xmlns:rdf="http://www.w3.org/1999/02/22-rdf-syntax-ns#">
      <rdf:Description rdf:about=""/>
   </rdf:RDF>
</x:xmpmeta>
                                                                                                    
                                                                                                    
                                                                                                    
                                                                                                    
                                                                                                    
                                                                                                    
                                                                                                    
                                                                                                    
                                                                                                    
                                                                                                    
                                                                                                    
                                                                                                    
                                                                                                    
                                                                                                    
                                                                                                    
                                                                                                    
                                                                                                    
                                                                                                    
                                                                                                    
                                                                                                    
                           
<?xpacket end="w"?></metadata>
<defs>
    <style>
      .cls-1, .cls-9 {
        fill: #fff;
      }

      .cls-2 {
        fill: #ecf1f5;
      }

      .cls-11, .cls-15, .cls-2, .cls-5, .cls-6, .cls-9 {
        fill-rule: evenodd;
      }

      .cls-10, .cls-12, .cls-3 {
        font-size: 12px;
      }

      .cls-3 {
        fill: #6a6f7b;
        text-anchor: middle;
        text-transform: uppercase;
      }

      .cls-10, .cls-12, .cls-13, .cls-3, .cls-4 {
        font-family: Lato;
      }

      .cls-13, .cls-3, .cls-4 {
        font-weight: 500;
      }

      .cls-4 {
        font-size: 44px;
      }

      .cls-10, .cls-13, .cls-4 {
        fill: #32394d;
      }

      .cls-5 {
        fill: #4f5158;
        opacity: 0.76;
      }

      .cls-6, .cls-7, .cls-8 {
        fill: #0a95dd;
      }

      .cls-6, .cls-8 {
        opacity: 0.3;
      }

      .cls-9 {
        filter: url(#filter);
      }

      .cls-10, .cls-12 {
        font-weight: 700;
      }

      .cls-11 {
        fill: #f5f7f9;
        stroke: #e7ebee;
        stroke-width: 1px;
      }

      .cls-12 {
        fill: #a0a1a4;
      }

      .cls-13 {
        font-size: 16px;
      }

      .cls-14, .cls-15 {
        fill: #d9e0e5;
      }
    </style>
    <filter id="filter" x="637" y="3482" width="52" height="42" filterUnits="userSpaceOnUse">
      <feOffset result="offset" dy="4" in="SourceAlpha"/>
      <feGaussianBlur result="blur" stdDeviation="2.646"/>
      <feFlood result="flood" flood-opacity="0.1"/>
      <feComposite result="composite" operator="in" in2="blur"/>
      <feBlend result="blend" in="SourceGraphic"/>
    </filter>
  </defs>
  <rect id="frame" class="cls-1" width="360" height="445.06" rx="4" ry="4"/>
  <g id="Month">
    <path id="Rectangle_6_copy_10" data-name="Rectangle 6 copy 10" class="cls-2" d="M470,3657.43H830v1H470v-1Z" transform="translate(-470 -3263.38)"/>
    <text id="Jan" class="cls-3" transform="translate(34.15 423.701)">Jan</text>
    <text id="Mar" class="cls-3" transform="translate(86.651 423.701)">Mar</text>
    <text id="May" class="cls-3" transform="translate(140.151 423.701)">May</text>
    <text id="Jul" class="cls-3" transform="translate(194.151 423.701)">Jul</text>
    <text id="Sep" class="cls-3" transform="translate(247.651 423.701)">Sep</text>
    <text id="Nov" class="cls-3" transform="translate(301.151 423.701)">Nov</text>
  </g>
  <g id="title">
    <text id="_1_829" data-name="1,829" class="cls-4" transform="translate(28.651 173.171)">1,829</text>
    <path id="Sales" class="cls-5" d="M507.332,3450.36a3.174,3.174,0,0,0-1.059-.67,3.825,3.825,0,0,0-1.335-.23,3.174,3.174,0,0,0-1.152.2,2.733,2.733,0,0,0-.849.54,2.306,2.306,0,0,0-.525.76,2.332,2.332,0,0,0-.18.9,2.438,2.438,0,0,0,.174.97,1.878,1.878,0,0,0,.462.65,2.331,2.331,0,0,0,.654.42,6.677,6.677,0,0,0,.75.29q0.384,0.12.75,0.24a2.944,2.944,0,0,1,.654.27,1.437,1.437,0,0,1,.462.4,1.038,1.038,0,0,1,.174.62,1.543,1.543,0,0,1-.114.61,1.289,1.289,0,0,1-.327.48,1.451,1.451,0,0,1-.525.3,2.623,2.623,0,0,1-1.533-.03,3.752,3.752,0,0,1-.582-0.29c-0.162-.11-0.3-0.21-0.408-0.29a0.5,0.5,0,0,0-.291-0.14,0.329,0.329,0,0,0-.171.05,0.432,0.432,0,0,0-.129.12l-0.366.61a2.989,2.989,0,0,0,.543.47,3.137,3.137,0,0,0,.651.35,3.9,3.9,0,0,0,1.542.31,3.4,3.4,0,0,0,1.233-.21,2.589,2.589,0,0,0,.915-0.59,2.371,2.371,0,0,0,.567-0.87,2.853,2.853,0,0,0,.195-1.06,2.11,2.11,0,0,0-.177-0.91,2,2,0,0,0-.465-0.62,2.577,2.577,0,0,0-.654-0.42,5.237,5.237,0,0,0-.75-0.3c-0.256-.09-0.506-0.17-0.75-0.25a3.515,3.515,0,0,1-.654-0.28,1.582,1.582,0,0,1-.465-0.39,0.923,0.923,0,0,1-.177-0.58,1.24,1.24,0,0,1,.1-0.5,1.121,1.121,0,0,1,.291-0.4,1.224,1.224,0,0,1,.477-0.27,1.918,1.918,0,0,1,.663-0.1,2.026,2.026,0,0,1,.69.1,2.432,2.432,0,0,1,.5.22c0.138,0.08.253,0.16,0.345,0.22a0.415,0.415,0,0,0,.246.1,0.235,0.235,0,0,0,.168-0.05,0.445,0.445,0,0,0,.126-0.15Zm4.71,6.31a4.5,4.5,0,0,1-.354.33,1.669,1.669,0,0,1-.378.24,1.987,1.987,0,0,1-.423.16,2.513,2.513,0,0,1-.5.05,1.5,1.5,0,0,1-.378-0.05,0.784,0.784,0,0,1-.3-0.15,0.732,0.732,0,0,1-.2-0.27,0.936,0.936,0,0,1-.075-0.39,0.751,0.751,0,0,1,.138-0.44,1.137,1.137,0,0,1,.45-0.34,3.743,3.743,0,0,1,.81-0.23,9.282,9.282,0,0,1,1.212-.11v1.2Zm-3.222-3.36a0.66,0.66,0,0,0,.141.16,0.356,0.356,0,0,0,.207.06,0.534,0.534,0,0,0,.291-0.09c0.094-.07.2-0.14,0.33-0.22a2.141,2.141,0,0,1,.45-0.21,1.977,1.977,0,0,1,.645-0.1,1.075,1.075,0,0,1,.864.35,1.53,1.53,0,0,1,.294,1.03v0.44a9.079,9.079,0,0,0-1.749.19,4.2,4.2,0,0,0-1.152.44,1.712,1.712,0,0,0-.636.59,1.4,1.4,0,0,0-.195.7,1.73,1.73,0,0,0,.135.71,1.507,1.507,0,0,0,.369.51,1.376,1.376,0,0,0,.549.3,2.121,2.121,0,0,0,.675.1,3,3,0,0,0,.624-0.06,2.943,2.943,0,0,0,.531-0.17,3.163,3.163,0,0,0,.477-0.29,4.207,4.207,0,0,0,.462-0.38l0.126,0.54a0.408,0.408,0,0,0,.144.21,0.478,0.478,0,0,0,.264.06h0.522v-3.89a2.928,2.928,0,0,0-.141-0.94,2.065,2.065,0,0,0-.417-0.74,1.885,1.885,0,0,0-.678-0.47,2.241,2.241,0,0,0-.924-0.17,3.484,3.484,0,0,0-1.311.24,3.536,3.536,0,0,0-1.107.72Zm5.964-3.99v8.86h1.176v-8.86h-1.176Zm3.69,5.13a2.055,2.055,0,0,1,.537-1.18,1.542,1.542,0,0,1,1.161-.43,1.582,1.582,0,0,1,.636.12,1.262,1.262,0,0,1,.468.34,1.39,1.39,0,0,1,.291.51,1.971,1.971,0,0,1,.1.64h-3.192Zm3.822,2.42a0.256,0.256,0,0,0-.222-0.1,0.48,0.48,0,0,0-.249.09c-0.094.06-.21,0.12-0.348,0.19a3.252,3.252,0,0,1-.492.2,2.252,2.252,0,0,1-.675.09,2,2,0,0,1-.75-0.14,1.427,1.427,0,0,1-.579-0.4,1.9,1.9,0,0,1-.381-0.67,3.309,3.309,0,0,1-.156-0.95h4a0.231,0.231,0,0,0,.222-0.1,0.723,0.723,0,0,0,.06-0.36,3.205,3.205,0,0,0-.195-1.16,2.448,2.448,0,0,0-.537-0.86,2.283,2.283,0,0,0-.813-0.53,2.662,2.662,0,0,0-1.029-.19,2.9,2.9,0,0,0-1.2.24,2.558,2.558,0,0,0-.9.64,2.808,2.808,0,0,0-.567.96,3.43,3.43,0,0,0-.2,1.18,4.091,4.091,0,0,0,.219,1.4,2.778,2.778,0,0,0,.612,1.02,2.51,2.51,0,0,0,.93.63,3.177,3.177,0,0,0,1.167.21,5.1,5.1,0,0,0,.669-0.05,4.722,4.722,0,0,0,.657-0.17,3.234,3.234,0,0,0,.6-0.3,2.455,2.455,0,0,0,.5-0.43Zm5.538-4.17a2.43,2.43,0,0,0-.837-0.52,2.933,2.933,0,0,0-1.095-.2,2.729,2.729,0,0,0-.939.15,2.206,2.206,0,0,0-.69.39,1.8,1.8,0,0,0-.426.57,1.666,1.666,0,0,0-.147.68,1.48,1.48,0,0,0,.135.67,1.442,1.442,0,0,0,.354.47,1.831,1.831,0,0,0,.5.32,5.888,5.888,0,0,0,.576.22q0.294,0.105.576,0.18a2.842,2.842,0,0,1,.5.2,1.331,1.331,0,0,1,.354.27,0.605,0.605,0,0,1,.135.4,0.926,0.926,0,0,1-.072.36,0.77,0.77,0,0,1-.219.29,1.019,1.019,0,0,1-.369.21,1.641,1.641,0,0,1-.522.07,1.864,1.864,0,0,1-1.008-.26c-0.112-.06-0.208-0.13-0.288-0.18a0.392,0.392,0,0,0-.234-0.09,0.358,0.358,0,0,0-.192.05,0.33,0.33,0,0,0-.12.13l-0.276.45a3.032,3.032,0,0,0,.894.53,3.153,3.153,0,0,0,1.164.21,3.086,3.086,0,0,0,1-.15,2.224,2.224,0,0,0,.735-0.41,1.789,1.789,0,0,0,.45-0.63,1.988,1.988,0,0,0,.153-0.79,1.334,1.334,0,0,0-.135-0.63,1.432,1.432,0,0,0-.354-0.44,2.468,2.468,0,0,0-.5-0.31,5.716,5.716,0,0,0-.57-0.21c-0.194-.07-0.384-0.13-0.57-0.19a4.008,4.008,0,0,1-.5-0.19,1.13,1.13,0,0,1-.354-0.26,0.552,0.552,0,0,1-.135-0.38,0.766,0.766,0,0,1,.078-0.33,0.746,0.746,0,0,1,.222-0.26,1.125,1.125,0,0,1,.351-0.17,1.34,1.34,0,0,1,.459-0.07,2.01,2.01,0,0,1,.528.07,2.524,2.524,0,0,1,.387.14c0.11,0.06.2,0.1,0.282,0.15a0.474,0.474,0,0,0,.213.06,0.282,0.282,0,0,0,.138-0.03,0.323,0.323,0,0,0,.1-0.11Z" transform="translate(-470 -3263.38)"/>
  </g>
  <g id="Graph">
    <path id="Rectangle_9_copy_12" data-name="Rectangle 9 copy 12" class="cls-6" d="M502,3606.92h5a2,2,0,0,1,2,2v49.51h-9v-49.51A2,2,0,0,1,502,3606.92Z" transform="translate(-470 -3263.38)"/>
    <path id="Rectangle_9_copy" data-name="Rectangle 9 copy" class="cls-6" d="M528.5,3571.92h5a2,2,0,0,1,2,2v84.51h-9v-84.51A2,2,0,0,1,528.5,3571.92Z" transform="translate(-470 -3263.38)"/>
    <path id="Rectangle_9_copy_2" data-name="Rectangle 9 copy 2" class="cls-6" d="M555,3541.92h5a2,2,0,0,1,2,2v114.51h-9V3543.92A2,2,0,0,1,555,3541.92Z" transform="translate(-470 -3263.38)"/>
    <path id="Rectangle_9_copy_3" data-name="Rectangle 9 copy 3" class="cls-6" d="M581.5,3551.92h5a2,2,0,0,1,2,2v104.51h-9V3553.92A2,2,0,0,1,581.5,3551.92Z" transform="translate(-470 -3263.38)"/>
    <path id="Rectangle_9_copy_4" data-name="Rectangle 9 copy 4" class="cls-6" d="M608,3576.92h5a2,2,0,0,1,2,2v79.51h-9v-79.51A2,2,0,0,1,608,3576.92Z" transform="translate(-470 -3263.38)"/>
    <path id="Rectangle_9_copy_5" data-name="Rectangle 9 copy 5" class="cls-6" d="M634.5,3556.92h5a2,2,0,0,1,2,2v99.51h-9v-99.51A2,2,0,0,1,634.5,3556.92Z" transform="translate(-470 -3263.38)"/>
    <path id="Rectangle_9_copy_6" data-name="Rectangle 9 copy 6" class="cls-7" d="M190.5,265.03h5a2,2,0,0,1,2,2V395.06a0,0,0,0,1,0,0h-9a0,0,0,0,1,0,0V267.03A2,2,0,0,1,190.5,265.03Z"/>
    <path id="Rectangle_9_copy_7" data-name="Rectangle 9 copy 7" class="cls-6" d="M687,3591.92h5a2,2,0,0,1,2,2v64.51h-9v-64.51A2,2,0,0,1,687,3591.92Z" transform="translate(-470 -3263.38)"/>
    <path id="Rectangle_9_copy_8" data-name="Rectangle 9 copy 8" class="cls-6" d="M713.5,3566.92h5a2,2,0,0,1,2,2v89.51h-9v-89.51A2,2,0,0,1,713.5,3566.92Z" transform="translate(-470 -3263.38)"/>
    <path id="Rectangle_9_copy_9" data-name="Rectangle 9 copy 9" class="cls-8" d="M270,243.53h5a2,2,0,0,1,2,2V395.06a0,0,0,0,1,0,0h-9a0,0,0,0,1,0,0V245.53A2,2,0,0,1,270,243.53Z"/>
    <path id="Rectangle_9_copy_10" data-name="Rectangle 9 copy 10" class="cls-6" d="M766.5,3551.92h5a2,2,0,0,1,2,2v104.51h-9V3553.92A2,2,0,0,1,766.5,3551.92Z" transform="translate(-470 -3263.38)"/>
    <path id="Rectangle_9_copy_11" data-name="Rectangle 9 copy 11" class="cls-8" d="M323,268.53h5a2,2,0,0,1,2,2V395.06a0,0,0,0,1,0,0h-9a0,0,0,0,1,0,0V270.53A2,2,0,0,1,323,268.53Z"/>
    <g id="Tooltip">
      <path id="Rectangle_10_copy_3" data-name="Rectangle 10 copy 3" class="cls-9" d="M658.965,3509.41l3.535-3.53,3.536,3.53-3.536,3.54Zm-13.965-25h34.5a2,2,0,0,1,2,2v21a2,2,0,0,1-2,2H645a2,2,0,0,1-2-2v-21A2,2,0,0,1,645,3484.41Z" transform="translate(-470 -3263.38)"/>
      <text id="_312" data-name="312" class="cls-10" transform="translate(181 228.945)">312</text>
    </g>
  </g>
  <g id="time_switcher" data-name="time switcher">
    <path id="Rectangle_4_copy_9" data-name="Rectangle 4 copy 9" class="cls-11" d="M515,3344.39h48a15,15,0,0,1,15,15v0.01a15,15,0,0,1-15,15H515a15,15,0,0,1-15-15v-0.01A15,15,0,0,1,515,3344.39Z" transform="translate(-470 -3263.38)"/>
    <text id="Yearly" class="cls-10" transform="translate(50.151 100.661)">Yearly</text>
    <text id="Monthly" class="cls-12" transform="translate(129.651 100.661)">Monthly</text>
    <text id="Daily" class="cls-12" transform="translate(213.151 100.661)">Daily</text>
  </g>
  <g id="head">
    <text id="Statistics" class="cls-13" transform="translate(28.651 38.155)">Statistics</text>
    <circle class="cls-14" cx="312.578" cy="33" r="2.578"/>
    <circle id="Ellipse_4_copy" data-name="Ellipse 4 copy" class="cls-14" cx="320.25" cy="33" r="2.594"/>
    <path id="Ellipse_4_copy_2" data-name="Ellipse 4 copy 2" class="cls-15" d="M797.422,3293.89a2.5,2.5,0,1,1-2.578,2.5A2.54,2.54,0,0,1,797.422,3293.89Z" transform="translate(-470 -3263.38)"/>
    <path id="Rectangle_6_copy_2" data-name="Rectangle 6 copy 2" class="cls-2" d="M470,3323.39H830v1H470v-1Z" transform="translate(-470 -3263.38)"/>
  </g>
</svg>
