<svg id="Statistics_3" data-name="Statistics 3" xmlns="http://www.w3.org/2000/svg" width="360" height="445.06" viewBox="0 0 360 445.06">
  <metadata><?xpacket begin="﻿" id="W5M0MpCehiHzreSzNTczkc9d"?>
<x:xmpmeta xmlns:x="adobe:ns:meta/" x:xmptk="Adobe XMP Core 5.6-c138 79.159824, 2016/09/14-01:09:01        ">
   <rdf:RDF xmlns:rdf="http://www.w3.org/1999/02/22-rdf-syntax-ns#">
      <rdf:Description rdf:about=""/>
   </rdf:RDF>
</x:xmpmeta>
                                                                                                    
                                                                                                    
                                                                                                    
                                                                                                    
                                                                                                    
                                                                                                    
                                                                                                    
                                                                                                    
                                                                                                    
                                                                                                    
                                                                                                    
                                                                                                    
                                                                                                    
                                                                                                    
                                                                                                    
                                                                                                    
                                                                                                    
                                                                                                    
                                                                                                    
                                                                                                    
                           
<?xpacket end="w"?></metadata>
<defs>
    <style>
      .cls-1 {
        fill: #fff;
      }

      .cls-2 {
        fill: #b80add;
      }

      .cls-16, .cls-3 {
        font-size: 12px;
      }

      .cls-3 {
        fill: #a0a1a4;
      }

      .cls-14, .cls-16, .cls-17, .cls-3, .cls-4 {
        font-family: Lato;
      }

      .cls-16, .cls-3, .cls-4 {
        font-weight: 700;
      }

      .cls-4 {
        font-size: 18px;
      }

      .cls-14, .cls-16, .cls-17, .cls-4, .cls-8 {
        fill: #32394d;
      }

      .cls-5 {
        fill: #0a95dd;
      }

      .cls-6 {
        fill: #1cc327;
      }

      .cls-7 {
        fill: #ecf1f5;
      }

      .cls-10, .cls-11, .cls-12, .cls-13, .cls-15, .cls-19, .cls-7, .cls-8, .cls-9 {
        fill-rule: evenodd;
      }

      .cls-9 {
        fill: #4f5158;
        opacity: 0.76;
      }

      .cls-10, .cls-11, .cls-12, .cls-13 {
        fill: none;
        stroke-width: 6px;
      }

      .cls-10 {
        stroke: #eceff2;
      }

      .cls-11 {
        stroke: #1cc327;
      }

      .cls-12 {
        stroke: #b80add;
      }

      .cls-13 {
        stroke: #0a95dd;
      }

      .cls-14 {
        font-size: 29.248px;
      }

      .cls-14, .cls-17 {
        font-weight: 500;
      }

      .cls-15 {
        fill: #f5f7f9;
        stroke: #e7ebee;
        stroke-width: 1px;
      }

      .cls-17 {
        font-size: 16px;
      }

      .cls-18, .cls-19 {
        fill: #d9e0e5;
      }
    </style>
  </defs>
  <rect id="frame" class="cls-1" width="360" height="445.06" rx="4" ry="4"/>
  <g id="Legend">
    <circle class="cls-2" cx="265.5" cy="159.53" r="4.5"/>
    <text id="_18_y.o." data-name="&lt; 18 y.o." class="cls-3" transform="translate(280.151 163.669)">&lt; 18 y.o.</text>
    <text id="_48_" data-name="48%" class="cls-4" transform="translate(261.65 193.174)">48%</text>
    <circle id="Ellipse_7_copy" data-name="Ellipse 7 copy" class="cls-5" cx="265.5" cy="223.53" r="4.5"/>
    <text id="_18-22_y.o." data-name="18-22 y.o." class="cls-3" transform="translate(280.151 227.677)">18-22 y.o.</text>
    <text id="_24_" data-name="24%" class="cls-4" transform="translate(261.65 257.181)">24%</text>
    <circle id="Ellipse_7_copy_2" data-name="Ellipse 7 copy 2" class="cls-6" cx="265.5" cy="284.03" r="4.5"/>
    <text id="_23-30_y.o." data-name="23-30 y.o." class="cls-3" transform="translate(280.151 288.183)">23-30 y.o.</text>
    <text id="_16_" data-name="16%" class="cls-4" transform="translate(261.65 317.688)">16%</text>
  </g>
  <g id="Total">
    <path id="line" class="cls-7" d="M860,3614.42h360v1H860v-1Z" transform="translate(-860 -3263.38)"/>
    <path id="line-2" data-name="line" class="cls-7" d="M979.5,3615.42h1v93.02h-1v-93.02Z" transform="translate(-860 -3263.38)"/>
    <path id="line-3" data-name="line" class="cls-7" d="M1099.5,3615.42h1v93.02h-1v-93.02Z" transform="translate(-860 -3263.38)"/>
    <path id="_54_" data-name="54%" class="cls-8" d="M894.741,3647.99h6.118a1.7,1.7,0,0,0,1.239-.37,1.309,1.309,0,0,0,.371-0.96v-1.19h-9.632l-1.638,9.49,1.722,0.51a10.332,10.332,0,0,1,3.164-.53,5.815,5.815,0,0,1,1.862.27,3.413,3.413,0,0,1,1.33.79,3.22,3.22,0,0,1,.8,1.25,4.715,4.715,0,0,1,.266,1.63,5.491,5.491,0,0,1-.3,1.87,4.066,4.066,0,0,1-.868,1.44,3.865,3.865,0,0,1-1.386.93,4.889,4.889,0,0,1-1.841.33,5.053,5.053,0,0,1-1.6-.22,6.33,6.33,0,0,1-1.162-.48q-0.49-.27-0.847-0.48a1.237,1.237,0,0,0-.651-0.22,0.823,0.823,0,0,0-.714.39l-0.84,1.18a7.953,7.953,0,0,0,1.085.82,9.718,9.718,0,0,0,1.323.7,8.859,8.859,0,0,0,1.533.48,8.035,8.035,0,0,0,1.729.18,8.22,8.22,0,0,0,2.877-.5,6.692,6.692,0,0,0,2.317-1.42,6.6,6.6,0,0,0,1.54-2.22,7.3,7.3,0,0,0,.56-2.9,6.908,6.908,0,0,0-.413-2.42,5.347,5.347,0,0,0-1.232-1.93,5.7,5.7,0,0,0-2.023-1.29,7.66,7.66,0,0,0-2.772-.47,13.416,13.416,0,0,0-2.786.33Zm13.384,10.25,7.042-9.65c-0.047.33-.077,0.64-0.091,0.95s-0.021.59-.021,0.86v7.84h-6.93Zm9.324,0v-12.78h-2.576l-9.716,12.92,0.28,1.4a0.834,0.834,0,0,0,.28.44,0.767,0.767,0,0,0,.518.18h8.82v5.18h2.394v-5.18h2.324a0.569,0.569,0,0,0,.434-0.17,0.587,0.587,0,0,0,.154-0.41v-1.58h-2.912Zm13.53-10.05a4.54,4.54,0,0,0-.952-1.59,4.062,4.062,0,0,0-1.428-1,4.856,4.856,0,0,0-3.57,0,3.992,3.992,0,0,0-1.421,1,4.6,4.6,0,0,0-.945,1.59,6.183,6.183,0,0,0-.343,2.14,6.03,6.03,0,0,0,.343,2.1,4.465,4.465,0,0,0,.945,1.56,4.068,4.068,0,0,0,1.421.98,4.549,4.549,0,0,0,1.785.34,4.37,4.37,0,0,0,1.715-.34,4.217,4.217,0,0,0,1.435-.98,4.668,4.668,0,0,0,.987-1.56,5.634,5.634,0,0,0,.371-2.1A6.183,6.183,0,0,0,930.979,3648.19Zm-1.974,3.62a2.764,2.764,0,0,1-.511.98,1.8,1.8,0,0,1-.756.55,2.6,2.6,0,0,1-1.848,0,1.748,1.748,0,0,1-.749-0.55,2.75,2.75,0,0,1-.5-0.98,5.258,5.258,0,0,1-.182-1.48,5.51,5.51,0,0,1,.182-1.52,2.821,2.821,0,0,1,.5-1.01,1.858,1.858,0,0,1,.749-0.56,2.6,2.6,0,0,1,1.848,0,1.913,1.913,0,0,1,.756.56,2.832,2.832,0,0,1,.511,1.01,5.305,5.305,0,0,1,.189,1.52A5.062,5.062,0,0,1,929.005,3651.81Zm-5.439,13.77h2.03a1,1,0,0,0,.5-0.12,1.275,1.275,0,0,0,.364-0.32l14.756-19.67h-1.974a1.018,1.018,0,0,0-.567.13,1.761,1.761,0,0,0-.357.32Zm18.6-6.89a4.54,4.54,0,0,0-.952-1.59,4.036,4.036,0,0,0-1.428-.99,4.993,4.993,0,0,0-3.57,0,3.966,3.966,0,0,0-1.421.99,4.6,4.6,0,0,0-.945,1.59,6.183,6.183,0,0,0-.343,2.14,6.03,6.03,0,0,0,.343,2.1,4.465,4.465,0,0,0,.945,1.56,4.068,4.068,0,0,0,1.421.98,4.549,4.549,0,0,0,1.785.34,4.37,4.37,0,0,0,1.715-.34,4.217,4.217,0,0,0,1.435-.98,4.668,4.668,0,0,0,.987-1.56,5.634,5.634,0,0,0,.371-2.1A6.183,6.183,0,0,0,942.165,3658.69Zm-1.974,3.62a2.68,2.68,0,0,1-.511.98,1.8,1.8,0,0,1-.756.55,2.615,2.615,0,0,1-1.855,0,1.752,1.752,0,0,1-.742-0.55,2.668,2.668,0,0,1-.5-0.98,5.16,5.16,0,0,1-.182-1.48,5.385,5.385,0,0,1,.182-1.51,2.77,2.77,0,0,1,.5-1,1.777,1.777,0,0,1,.742-0.56,2.48,2.48,0,0,1,1.855,0,1.823,1.823,0,0,1,.756.56,2.781,2.781,0,0,1,.511,1,5.185,5.185,0,0,1,.189,1.51A4.969,4.969,0,0,1,940.191,3662.31Z" transform="translate(-860 -3263.38)"/>
    <path id="Revenue" class="cls-9" d="M893.34,3678.74v-3.15h1.206a2.325,2.325,0,0,1,1.467.38,1.319,1.319,0,0,1,.489,1.12,1.738,1.738,0,0,1-.126.67,1.433,1.433,0,0,1-.378.52,1.7,1.7,0,0,1-.627.34,2.847,2.847,0,0,1-.867.12H893.34Zm2.76,1.11a1.269,1.269,0,0,0-.414-0.4,3.26,3.26,0,0,0,.87-0.35,2.5,2.5,0,0,0,.651-0.54,2.2,2.2,0,0,0,.4-0.72,2.5,2.5,0,0,0,.138-0.84,2.546,2.546,0,0,0-.189-1,1.979,1.979,0,0,0-.582-0.76,2.721,2.721,0,0,0-1-.48,5.085,5.085,0,0,0-1.437-.17h-2.484v8.61h1.278v-3.53h0.834a0.836,0.836,0,0,1,.36.06,0.607,0.607,0,0,1,.222.21l2.13,2.99a0.533,0.533,0,0,0,.5.27h1.14Zm3.738-.37a2.085,2.085,0,0,1,.537-1.19,1.791,1.791,0,0,1,1.8-.3,1.359,1.359,0,0,1,.468.33,1.574,1.574,0,0,1,.291.51,2.033,2.033,0,0,1,.1.65h-3.192Zm3.822,2.42a0.264,0.264,0,0,0-.222-0.11,0.48,0.48,0,0,0-.249.09c-0.094.06-.21,0.13-0.348,0.2a3.3,3.3,0,0,1-.492.19,2.252,2.252,0,0,1-.675.09,2,2,0,0,1-.75-0.13,1.531,1.531,0,0,1-.579-0.4,1.944,1.944,0,0,1-.381-0.68,3.251,3.251,0,0,1-.156-0.95h4a0.248,0.248,0,0,0,.222-0.09,0.723,0.723,0,0,0,.06-0.36,3.261,3.261,0,0,0-.2-1.17,2.542,2.542,0,0,0-.537-0.86,2.426,2.426,0,0,0-.813-0.53,2.859,2.859,0,0,0-1.029-.18,3.063,3.063,0,0,0-1.2.23,2.582,2.582,0,0,0-.9.65,2.86,2.86,0,0,0-.567.95,3.488,3.488,0,0,0-.2,1.19,4.132,4.132,0,0,0,.219,1.4,2.778,2.778,0,0,0,.612,1.02,2.61,2.61,0,0,0,.93.62,2.987,2.987,0,0,0,1.167.22,3.833,3.833,0,0,0,.669-0.06,2.967,2.967,0,0,0,.657-0.17,2.68,2.68,0,0,0,.6-0.29,2.223,2.223,0,0,0,.5-0.44Zm5.922-4.79a0.38,0.38,0,0,0-.216.06,0.373,0.373,0,0,0-.126.17l-1.476,3.74c-0.056.16-.1,0.32-0.144,0.47s-0.076.31-.108,0.46c-0.032-.15-0.067-0.31-0.1-0.46s-0.083-.31-0.135-0.47l-1.458-3.74a0.335,0.335,0,0,0-.12-0.17,0.4,0.4,0,0,0-.228-0.06H904.5l2.472,6.09h1.056l2.472-6.09h-0.918Zm2.526,2.37a2.085,2.085,0,0,1,.537-1.19,1.791,1.791,0,0,1,1.8-.3,1.359,1.359,0,0,1,.468.33,1.574,1.574,0,0,1,.291.51,2.033,2.033,0,0,1,.1.65h-3.192Zm3.822,2.42a0.264,0.264,0,0,0-.222-0.11,0.48,0.48,0,0,0-.249.09c-0.094.06-.21,0.13-0.348,0.2a3.3,3.3,0,0,1-.492.19,2.252,2.252,0,0,1-.675.09,2,2,0,0,1-.75-0.13,1.531,1.531,0,0,1-.579-0.4,1.944,1.944,0,0,1-.381-0.68,3.251,3.251,0,0,1-.156-0.95h4a0.248,0.248,0,0,0,.222-0.09,0.723,0.723,0,0,0,.06-0.36,3.261,3.261,0,0,0-.2-1.17,2.542,2.542,0,0,0-.537-0.86,2.426,2.426,0,0,0-.813-0.53,2.859,2.859,0,0,0-1.029-.18,3.063,3.063,0,0,0-1.2.23,2.582,2.582,0,0,0-.9.65,2.86,2.86,0,0,0-.567.95,3.488,3.488,0,0,0-.2,1.19,4.132,4.132,0,0,0,.219,1.4,2.778,2.778,0,0,0,.612,1.02,2.61,2.61,0,0,0,.93.62,2.987,2.987,0,0,0,1.167.22,3.833,3.833,0,0,0,.669-0.06,2.967,2.967,0,0,0,.657-0.17,2.68,2.68,0,0,0,.6-0.29,2.223,2.223,0,0,0,.5-0.44Zm2.694-4.56a0.279,0.279,0,0,0-.306-0.23h-0.7v6.09h1.17v-4.47a3.091,3.091,0,0,1,.729-0.58,1.762,1.762,0,0,1,.843-0.21,1.127,1.127,0,0,1,.918.36,1.57,1.57,0,0,1,.3,1.02v3.88h1.176v-3.88a3.159,3.159,0,0,0-.132-0.94,1.979,1.979,0,0,0-.39-0.73,1.755,1.755,0,0,0-.639-0.47,2.21,2.21,0,0,0-.885-0.17,2.294,2.294,0,0,0-.6.07,2.832,2.832,0,0,0-.522.19,2.321,2.321,0,0,0-.459.3,3.489,3.489,0,0,0-.414.38Zm9.606-.23v4.46a3.024,3.024,0,0,1-.732.59,1.745,1.745,0,0,1-.84.21,1.127,1.127,0,0,1-.918-0.36,1.588,1.588,0,0,1-.3-1.02v-3.88h-1.176v3.88a3.159,3.159,0,0,0,.132.94,2.062,2.062,0,0,0,.39.73,1.755,1.755,0,0,0,.639.47,2.21,2.21,0,0,0,.885.17,2.261,2.261,0,0,0,.594-0.07,2.942,2.942,0,0,0,.522-0.19,2.284,2.284,0,0,0,.462-0.3,4.611,4.611,0,0,0,.414-0.38l0.084,0.61a0.3,0.3,0,0,0,.312.23h0.7v-6.09h-1.17Zm3.654,2.37a2.085,2.085,0,0,1,.537-1.19,1.791,1.791,0,0,1,1.8-.3,1.359,1.359,0,0,1,.468.33,1.574,1.574,0,0,1,.291.51,2.033,2.033,0,0,1,.1.65h-3.192Zm3.822,2.42a0.264,0.264,0,0,0-.222-0.11,0.48,0.48,0,0,0-.249.09c-0.094.06-.21,0.13-0.348,0.2a3.3,3.3,0,0,1-.492.19,2.252,2.252,0,0,1-.675.09,2,2,0,0,1-.75-0.13,1.531,1.531,0,0,1-.579-0.4,1.944,1.944,0,0,1-.381-0.68,3.251,3.251,0,0,1-.156-0.95h4a0.248,0.248,0,0,0,.222-0.09,0.723,0.723,0,0,0,.06-0.36,3.261,3.261,0,0,0-.195-1.17,2.542,2.542,0,0,0-.537-0.86,2.426,2.426,0,0,0-.813-0.53,2.859,2.859,0,0,0-1.029-.18,3.063,3.063,0,0,0-1.2.23,2.582,2.582,0,0,0-.9.65,2.86,2.86,0,0,0-.567.95,3.488,3.488,0,0,0-.2,1.19,4.132,4.132,0,0,0,.219,1.4,2.778,2.778,0,0,0,.612,1.02,2.61,2.61,0,0,0,.93.62,2.987,2.987,0,0,0,1.167.22,3.833,3.833,0,0,0,.669-0.06,2.967,2.967,0,0,0,.657-0.17,2.68,2.68,0,0,0,.6-0.29,2.223,2.223,0,0,0,.5-0.44Z" transform="translate(-860 -3263.38)"/>
    <path id="_253" data-name="253" class="cls-8" d="M1016.61,3662.99a7.439,7.439,0,0,0-1.12.09c-0.4.07-.79,0.15-1.19,0.26l5.1-5.21c0.56-.56,1.09-1.12,1.59-1.66a12.6,12.6,0,0,0,1.31-1.69,8.184,8.184,0,0,0,.9-1.83,6.344,6.344,0,0,0,.33-2.08,5.7,5.7,0,0,0-.46-2.35,5.237,5.237,0,0,0-1.28-1.78,5.694,5.694,0,0,0-1.92-1.11,7.286,7.286,0,0,0-2.43-.38,7.931,7.931,0,0,0-2.43.36,5.669,5.669,0,0,0-1.99,1.09,6.058,6.058,0,0,0-1.45,1.78,7.324,7.324,0,0,0-.77,2.46l1.43,0.26a1.042,1.042,0,0,0,1.37-.8,3.7,3.7,0,0,1,.47-1.12,3.414,3.414,0,0,1,.79-0.9,3.694,3.694,0,0,1,1.09-.59,4.051,4.051,0,0,1,1.34-.21,4.243,4.243,0,0,1,1.35.21,3.073,3.073,0,0,1,1.1.63,2.973,2.973,0,0,1,.72,1.06,3.794,3.794,0,0,1,.27,1.48,5.087,5.087,0,0,1-.25,1.62,6.6,6.6,0,0,1-.69,1.51,11.41,11.41,0,0,1-1.09,1.48c-0.43.49-.91,1-1.44,1.54l-6.36,6.37a1.4,1.4,0,0,0-.38.56,1.91,1.91,0,0,0-.11.6v0.94h13.5v-1.66a0.938,0.938,0,0,0-.25-0.67,0.92,0.92,0,0,0-.7-0.26h-6.35Zm14.87-15h6.12a1.7,1.7,0,0,0,1.24-.37,1.337,1.337,0,0,0,.37-0.96v-1.19h-9.63l-1.64,9.49,1.72,0.51a10.352,10.352,0,0,1,3.16-.53,5.9,5.9,0,0,1,1.87.27,3.465,3.465,0,0,1,1.33.79,3.18,3.18,0,0,1,.79,1.25,4.644,4.644,0,0,1,.27,1.63,5.516,5.516,0,0,1-.3,1.87,4.027,4.027,0,0,1-.87,1.44,3.911,3.911,0,0,1-1.38.93,4.919,4.919,0,0,1-1.85.33,5.048,5.048,0,0,1-1.59-.22,6.054,6.054,0,0,1-1.16-.48c-0.33-.18-0.61-0.34-0.85-0.48a1.256,1.256,0,0,0-.65-0.22,0.835,0.835,0,0,0-.72.39l-0.84,1.18a7.95,7.95,0,0,0,1.09.82,10.306,10.306,0,0,0,1.32.7,8.937,8.937,0,0,0,1.54.48,7.958,7.958,0,0,0,1.72.18,8.221,8.221,0,0,0,2.88-.5,6.687,6.687,0,0,0,2.32-1.42,6.6,6.6,0,0,0,1.54-2.22,7.351,7.351,0,0,0,.56-2.9,7.024,7.024,0,0,0-.41-2.42,5.38,5.38,0,0,0-1.24-1.93,5.655,5.655,0,0,0-2.02-1.29,7.656,7.656,0,0,0-2.77-.47,13.482,13.482,0,0,0-2.79.33Zm13.33,3.21a1.284,1.284,0,0,0,.86-0.09,1.34,1.34,0,0,0,.5-0.71,3.443,3.443,0,0,1,.46-1.12,3.279,3.279,0,0,1,.8-0.9,3.573,3.573,0,0,1,1.09-.59,4.412,4.412,0,0,1,2.69,0,2.867,2.867,0,0,1,1.08.61,2.918,2.918,0,0,1,.71,1.03,4.18,4.18,0,0,1,.01,2.82,2.644,2.644,0,0,1-.8,1.06,3.9,3.9,0,0,1-1.43.7,8.355,8.355,0,0,1-2.18.27v1.99a9.89,9.89,0,0,1,2.55.26,3.9,3.9,0,0,1,1.53.74,2.324,2.324,0,0,1,.75,1.12,5.082,5.082,0,0,1,.2,1.45,3.629,3.629,0,0,1-.25,1.27,3.52,3.52,0,0,1-.76,1.17,3.937,3.937,0,0,1-1.26.85,4.352,4.352,0,0,1-1.76.33,4.116,4.116,0,0,1-1.75-.32,3.9,3.9,0,0,1-1.15-.79,4.261,4.261,0,0,1-.74-0.99c-0.18-.35-0.34-0.67-0.48-0.95a0.854,0.854,0,0,0-.63-0.49,1.505,1.505,0,0,0-.9.11l-1.19.51a12.841,12.841,0,0,0,.89,2.13,5.635,5.635,0,0,0,3.26,2.75,8.64,8.64,0,0,0,2.71.38,8.311,8.311,0,0,0,2.62-.41,6.567,6.567,0,0,0,2.14-1.19,5.506,5.506,0,0,0,1.46-1.91,5.949,5.949,0,0,0,.53-2.54,4.7,4.7,0,0,0-.96-3.03,5.5,5.5,0,0,0-2.89-1.73,6.586,6.586,0,0,0,1.42-.64,4.024,4.024,0,0,0,1.07-.94,4.23,4.23,0,0,0,.68-1.3,5.946,5.946,0,0,0,.23-1.71,4.961,4.961,0,0,0-.43-2.1,4.666,4.666,0,0,0-1.21-1.63,5.255,5.255,0,0,0-1.87-1.05,7.348,7.348,0,0,0-2.39-.37,7.931,7.931,0,0,0-2.43.36,5.8,5.8,0,0,0-2,1.09,5.876,5.876,0,0,0-1.44,1.78,7.562,7.562,0,0,0-.78,2.46Z" transform="translate(-860 -3263.38)"/>
    <path id="Sales" class="cls-9" d="M1016.83,3675.38a3.115,3.115,0,0,0-1.06-.66,3.789,3.789,0,0,0-1.33-.23,3.147,3.147,0,0,0-1.15.2,2.508,2.508,0,0,0-.85.53,2.36,2.36,0,0,0-.53.77,2.488,2.488,0,0,0,0,1.86,1.863,1.863,0,0,0,.46.66,2.589,2.589,0,0,0,.65.42c0.25,0.11.5,0.2,0.75,0.29s0.51,0.16.75,0.23a3.638,3.638,0,0,1,.66.28,1.5,1.5,0,0,1,.46.4,1.08,1.08,0,0,1,.17.62,1.7,1.7,0,0,1-.11.61,1.427,1.427,0,0,1-.33.47,1.48,1.48,0,0,1-.52.3,2.442,2.442,0,0,1-1.54-.03,2.616,2.616,0,0,1-.58-0.29,4.044,4.044,0,0,1-.41-0.29,0.462,0.462,0,0,0-.29-0.13,0.337,0.337,0,0,0-.17.05,0.489,0.489,0,0,0-.13.12l-0.36.61a3.5,3.5,0,0,0,.54.47,4.477,4.477,0,0,0,.65.35,3.921,3.921,0,0,0,1.54.31,3.468,3.468,0,0,0,1.24-.21,2.753,2.753,0,0,0,.91-0.59,2.527,2.527,0,0,0,.57-0.87,2.9,2.9,0,0,0,.19-1.07,2.223,2.223,0,0,0-.17-0.9,1.957,1.957,0,0,0-.47-0.62,2.623,2.623,0,0,0-.65-0.43,7.707,7.707,0,0,0-.75-0.29c-0.26-.09-0.51-0.17-0.75-0.25a3.36,3.36,0,0,1-.66-0.29,1.261,1.261,0,0,1-.46-0.39,0.884,0.884,0,0,1-.18-0.57,1.219,1.219,0,0,1,.39-0.91,1.582,1.582,0,0,1,.48-0.27,2.195,2.195,0,0,1,.66-0.09,2.31,2.31,0,0,1,.69.09,2.585,2.585,0,0,1,.5.23c0.13,0.08.25,0.15,0.34,0.22a0.471,0.471,0,0,0,.25.1,0.277,0.277,0,0,0,.16-0.05,0.392,0.392,0,0,0,.13-0.15Zm4.71,6.32a3.606,3.606,0,0,1-.35.33,3.03,3.03,0,0,1-.38.24,1.5,1.5,0,0,1-.42.15,1.958,1.958,0,0,1-.5.06,1.583,1.583,0,0,1-.38-0.05,0.847,0.847,0,0,1-.3-0.15,0.683,0.683,0,0,1-.2-0.27,0.983,0.983,0,0,1-.08-0.4,0.736,0.736,0,0,1,.14-0.43,1.028,1.028,0,0,1,.45-0.34,3.3,3.3,0,0,1,.81-0.23,7.834,7.834,0,0,1,1.21-.11v1.2Zm-3.22-3.36a0.5,0.5,0,0,0,.14.15,0.314,0.314,0,0,0,.21.07,0.485,0.485,0,0,0,.29-0.1q0.135-.09.33-0.21a2.348,2.348,0,0,1,.45-0.21,1.721,1.721,0,0,1,.64-0.1,1.088,1.088,0,0,1,.87.34,1.582,1.582,0,0,1,.29,1.03v0.45a8.423,8.423,0,0,0-1.75.19,4.332,4.332,0,0,0-1.15.43,1.742,1.742,0,0,0-.63.6,1.254,1.254,0,0,0-.2.69,1.812,1.812,0,0,0,.14.72,1.569,1.569,0,0,0,.36.51,1.721,1.721,0,0,0,.55.3,2.152,2.152,0,0,0,.68.1,2.964,2.964,0,0,0,.62-0.06,2.206,2.206,0,0,0,.53-0.18,2.867,2.867,0,0,0,.48-0.28,5.132,5.132,0,0,0,.46-0.38l0.13,0.53a0.367,0.367,0,0,0,.14.22,0.616,0.616,0,0,0,.27.05h0.52v-3.89a3.139,3.139,0,0,0-.14-0.94,2.183,2.183,0,0,0-.42-0.73,1.99,1.99,0,0,0-.68-0.48,2.4,2.4,0,0,0-.92-0.17,3.435,3.435,0,0,0-1.31.24,3.393,3.393,0,0,0-1.11.73Zm5.96-3.99v8.85h1.18v-8.85h-1.18Zm3.69,5.13a2.127,2.127,0,0,1,.54-1.19,1.573,1.573,0,0,1,1.16-.42,1.623,1.623,0,0,1,.64.12,1.427,1.427,0,0,1,.47.33,1.826,1.826,0,0,1,.29.51,2.215,2.215,0,0,1,.1.65h-3.2Zm3.83,2.42a0.284,0.284,0,0,0-.23-0.11,0.508,0.508,0,0,0-.25.09c-0.09.06-.21,0.13-0.34,0.2a3.51,3.51,0,0,1-.5.19,2.217,2.217,0,0,1-.67.09,1.967,1.967,0,0,1-.75-0.13,1.55,1.55,0,0,1-.58-0.4,1.942,1.942,0,0,1-.38-0.68,3.612,3.612,0,0,1-.16-0.95h4a0.241,0.241,0,0,0,.22-0.09,0.723,0.723,0,0,0,.06-0.36,3.264,3.264,0,0,0-.19-1.17,2.518,2.518,0,0,0-.54-0.86,2.474,2.474,0,0,0-.81-0.53,2.9,2.9,0,0,0-1.03-.18,3.021,3.021,0,0,0-1.2.23,2.61,2.61,0,0,0-.91.65,2.912,2.912,0,0,0-.56.95,3.537,3.537,0,0,0-.2,1.19,4.035,4.035,0,0,0,.22,1.4,2.722,2.722,0,0,0,.61,1.02,2.575,2.575,0,0,0,.93.62,3.009,3.009,0,0,0,1.17.22,3.879,3.879,0,0,0,.67-0.06,2.965,2.965,0,0,0,.65-0.17,2.383,2.383,0,0,0,.6-0.29,2.109,2.109,0,0,0,.5-0.44Zm5.53-4.17a2.623,2.623,0,0,0-.83-0.53,2.953,2.953,0,0,0-1.1-.19,2.767,2.767,0,0,0-.94.15,2.3,2.3,0,0,0-.69.39,1.567,1.567,0,0,0-.42.57,1.6,1.6,0,0,0-.15.68,1.392,1.392,0,0,0,.49,1.14,1.947,1.947,0,0,0,.5.32c0.19,0.08.38,0.15,0.58,0.22l0.57,0.18a2.086,2.086,0,0,1,.5.2,1,1,0,0,1,.36.27,0.6,0.6,0,0,1,.13.4,0.842,0.842,0,0,1-.07.35,0.894,0.894,0,0,1-.22.3,1.009,1.009,0,0,1-.37.2,1.623,1.623,0,0,1-.52.08,2.026,2.026,0,0,1-.6-0.08,3.309,3.309,0,0,1-.41-0.18c-0.11-.07-0.21-0.13-0.29-0.19a0.426,0.426,0,0,0-.23-0.08,0.356,0.356,0,0,0-.19.05,0.345,0.345,0,0,0-.12.12l-0.28.45a2.836,2.836,0,0,0,.9.54,3.109,3.109,0,0,0,1.16.21,3.049,3.049,0,0,0,1-.15,2.136,2.136,0,0,0,.74-0.42,1.868,1.868,0,0,0,.45-0.62,2.058,2.058,0,0,0,.15-0.79,1.333,1.333,0,0,0-.14-0.63,1.364,1.364,0,0,0-.35-0.44,2.1,2.1,0,0,0-.5-0.31c-0.18-.08-0.37-0.15-0.57-0.22l-0.57-.18a3.256,3.256,0,0,1-.5-0.2,1.161,1.161,0,0,1-.35-0.25,0.549,0.549,0,0,1-.13-0.38,0.725,0.725,0,0,1,.07-0.33,0.815,0.815,0,0,1,.23-0.26,1.048,1.048,0,0,1,.35-0.18,1.881,1.881,0,0,1,.98.01,2.491,2.491,0,0,1,.39.14c0.11,0.05.2,0.1,0.28,0.14a0.4,0.4,0,0,0,.22.07,0.25,0.25,0,0,0,.13-0.03,0.38,0.38,0,0,0,.11-0.11Z" transform="translate(-860 -3263.38)"/>
    <path id="_18" data-name="18" class="cls-8" d="M1139.58,3663.49v-18.06h-2.22l-6.02,5.19,0.85,1.19a1.04,1.04,0,0,0,.22.19,0.729,0.729,0,0,0,.3.12,1.226,1.226,0,0,0,.38-0.01,1.037,1.037,0,0,0,.39-0.2l3.41-2.9c-0.02.45-.04,0.88-0.04,1.3v13.18h-4.25v2.09h10.86v-2.09h-3.88Zm12.24-.13a3.419,3.419,0,0,1-1.26-.74,3.2,3.2,0,0,1-.79-1.16,4.528,4.528,0,0,1,.05-3.16,3.174,3.174,0,0,1,.86-1.16,3.561,3.561,0,0,1,1.28-.67,5.535,5.535,0,0,1,3.09,0,3.436,3.436,0,0,1,1.27.67,3.089,3.089,0,0,1,.87,1.16,3.984,3.984,0,0,1,.32,1.69,3.919,3.919,0,0,1-.26,1.47,3.2,3.2,0,0,1-.79,1.16,3.419,3.419,0,0,1-1.26.74A5.424,5.424,0,0,1,1151.82,3663.36Zm3.21-15.75a2.929,2.929,0,0,1,1.08.7,3.07,3.07,0,0,1,.66,1.04,3.7,3.7,0,0,1,.21,1.26,4.268,4.268,0,0,1-.19,1.28,2.926,2.926,0,0,1-.6,1.11,2.823,2.823,0,0,1-1.08.77,3.84,3.84,0,0,1-1.6.3,3.889,3.889,0,0,1-1.61-.3,2.863,2.863,0,0,1-1.07-.77,2.926,2.926,0,0,1-.6-1.11,4.268,4.268,0,0,1-.19-1.28,3.478,3.478,0,0,1,.22-1.26,2.9,2.9,0,0,1,.65-1.04,3.013,3.013,0,0,1,1.08-.7A4.573,4.573,0,0,1,1155.03,3647.61Zm3.83,5.72a4.879,4.879,0,0,0,.78-2.78,4.93,4.93,0,0,0-.44-2.09,5.035,5.035,0,0,0-1.24-1.69,6.06,6.06,0,0,0-1.94-1.12,8.075,8.075,0,0,0-5.02,0,5.9,5.9,0,0,0-1.93,1.12,4.932,4.932,0,0,0-1.25,1.69,5.086,5.086,0,0,0-.44,2.09,4.879,4.879,0,0,0,.78,2.78,4.73,4.73,0,0,0,2.34,1.76,5.407,5.407,0,0,0-2.85,1.81,4.952,4.952,0,0,0-.97,3.15,5.457,5.457,0,0,0,.5,2.38,5.053,5.053,0,0,0,1.4,1.81,6.373,6.373,0,0,0,2.16,1.15,9.562,9.562,0,0,0,5.54,0,6.519,6.519,0,0,0,2.17-1.15,5.286,5.286,0,0,0,1.4-1.81,5.6,5.6,0,0,0,.49-2.38,4.952,4.952,0,0,0-.97-3.15,5.407,5.407,0,0,0-2.85-1.81A4.686,4.686,0,0,0,1158.86,3653.33Z" transform="translate(-860 -3263.38)"/>
    <path id="Contracts" class="cls-9" d="M1137.97,3681.38a0.673,0.673,0,0,0-.11.07,3.2,3.2,0,0,1-.43.34,2.826,2.826,0,0,1-1.02.37,4.554,4.554,0,0,1-.67.04,2.861,2.861,0,0,1-1.14-.22,2.7,2.7,0,0,1-.92-0.65,3.043,3.043,0,0,1-.61-1.04,4.035,4.035,0,0,1-.22-1.4,4.254,4.254,0,0,1,.21-1.38,2.874,2.874,0,0,1,.6-1.04,2.575,2.575,0,0,1,.92-0.65,3.028,3.028,0,0,1,1.18-.23,3.067,3.067,0,0,1,1.52.37,3.774,3.774,0,0,1,.41.26,0.5,0.5,0,0,0,.26.11,0.286,0.286,0,0,0,.17-0.04,0.266,0.266,0,0,0,.1-0.11l0.42-.59a4.071,4.071,0,0,0-1.24-.8,4.157,4.157,0,0,0-1.63-.3,4.541,4.541,0,0,0-1.72.32,3.979,3.979,0,0,0-2.2,2.3,4.9,4.9,0,0,0-.31,1.78,5.376,5.376,0,0,0,.29,1.79,4.284,4.284,0,0,0,.83,1.39,3.614,3.614,0,0,0,1.3.9,4.226,4.226,0,0,0,1.7.33,4.512,4.512,0,0,0,1.82-.34,3.547,3.547,0,0,0,1.29-.97l-0.5-.55a0.262,0.262,0,0,0-.19-0.09A0.2,0.2,0,0,0,1137.97,3681.38Zm3.11-4.15a2.641,2.641,0,0,0-.93.63,2.72,2.72,0,0,0-.59.99,4.129,4.129,0,0,0,0,2.6,2.72,2.72,0,0,0,.59.99,2.641,2.641,0,0,0,.93.63,3.356,3.356,0,0,0,1.22.22,3.3,3.3,0,0,0,1.21-.22,2.735,2.735,0,0,0,.93-0.63,2.7,2.7,0,0,0,.58-0.99,4.129,4.129,0,0,0,0-2.6,2.7,2.7,0,0,0-.58-0.99,2.735,2.735,0,0,0-.93-0.63,3.107,3.107,0,0,0-1.21-.22A3.158,3.158,0,0,0,1141.08,3677.23Zm-0.09,4.56a3.342,3.342,0,0,1,0-3.28,1.747,1.747,0,0,1,2.6,0,3.412,3.412,0,0,1,0,3.28A1.747,1.747,0,0,1,1140.99,3681.79Zm6.55-4.45a0.286,0.286,0,0,0-.31-0.23h-0.7v6.09h1.17v-4.47a2.871,2.871,0,0,1,.73-0.58,1.745,1.745,0,0,1,.84-0.21,1.134,1.134,0,0,1,.92.36,1.57,1.57,0,0,1,.3,1.02v3.88h1.17v-3.88a3.1,3.1,0,0,0-.13-0.94,2.04,2.04,0,0,0-.39-0.73,1.694,1.694,0,0,0-.64-0.47,2.192,2.192,0,0,0-.88-0.17,2.349,2.349,0,0,0-.6.07,2.661,2.661,0,0,0-.52.19,2.271,2.271,0,0,0-.46.3,3.621,3.621,0,0,0-.41.38Zm8.35,5.81a2.005,2.005,0,0,0,.68-0.4l-0.35-.57a0.142,0.142,0,0,0-.07-0.08,0.122,0.122,0,0,0-.09-0.03,0.186,0.186,0,0,0-.11.04,0.851,0.851,0,0,1-.14.09,0.933,0.933,0,0,1-.2.1,1.108,1.108,0,0,1-.28.04,0.6,0.6,0,0,1-.45-0.18,0.733,0.733,0,0,1-.18-0.54v-3.57h1.73v-0.85h-1.73v-2.04h-0.59a0.243,0.243,0,0,0-.18.05,0.236,0.236,0,0,0-.09.16l-0.27,1.82-0.99.14v0.47a0.223,0.223,0,0,0,.07.19,0.252,0.252,0,0,0,.17.06h0.71v3.65a1.607,1.607,0,0,0,.4,1.18,1.48,1.48,0,0,0,1.14.42A2.331,2.331,0,0,0,1155.89,3683.15Zm2.64-5.73a0.385,0.385,0,0,0-.1-0.24,0.337,0.337,0,0,0-.26-0.07h-0.67v6.09h1.17v-3.81a4.382,4.382,0,0,1,.25-0.53,2.011,2.011,0,0,1,.3-0.39,1.28,1.28,0,0,1,.39-0.24,1.5,1.5,0,0,1,.5-0.08,2.186,2.186,0,0,1,.36.03,0.963,0.963,0,0,0,.25.04,0.2,0.2,0,0,0,.2-0.17l0.07-.88a0.879,0.879,0,0,0-.31-0.13,1.438,1.438,0,0,0-.37-0.05,1.571,1.571,0,0,0-1,.34,2.831,2.831,0,0,0-.7.95Zm6.55,4.28c-0.12.12-.23,0.23-0.35,0.33a3.03,3.03,0,0,1-.38.24,1.567,1.567,0,0,1-.43.15,1.879,1.879,0,0,1-.49.06,1.518,1.518,0,0,1-.38-0.05,0.771,0.771,0,0,1-.3-0.15,0.705,0.705,0,0,1-.21-0.27,0.986,0.986,0,0,1-.07-0.4,0.736,0.736,0,0,1,.14-0.43,1.028,1.028,0,0,1,.45-0.34,3.3,3.3,0,0,1,.81-0.23,7.714,7.714,0,0,1,1.21-.11v1.2Zm-3.22-3.36a0.4,0.4,0,0,0,.14.15,0.314,0.314,0,0,0,.21.07,0.485,0.485,0,0,0,.29-0.1q0.135-.09.33-0.21a1.889,1.889,0,0,1,.45-0.21,1.721,1.721,0,0,1,.64-0.1,1.088,1.088,0,0,1,.87.34,1.582,1.582,0,0,1,.29,1.03v0.45a8.344,8.344,0,0,0-1.75.19,4.2,4.2,0,0,0-1.15.43,1.779,1.779,0,0,0-.64.6,1.331,1.331,0,0,0-.19.69,1.813,1.813,0,0,0,.13.72,1.594,1.594,0,0,0,.37.51,1.721,1.721,0,0,0,.55.3,2.152,2.152,0,0,0,.68.1,3.034,3.034,0,0,0,.62-0.06,2.365,2.365,0,0,0,.53-0.18,2.867,2.867,0,0,0,.48-0.28c0.15-.11.3-0.24,0.46-0.38l0.13,0.53a0.367,0.367,0,0,0,.14.22,0.6,0.6,0,0,0,.26.05h0.53v-3.89a2.851,2.851,0,0,0-.15-0.94,2.007,2.007,0,0,0-.41-0.73,2.092,2.092,0,0,0-.68-0.48,2.433,2.433,0,0,0-.92-0.17,3.523,3.523,0,0,0-1.32.24,3.46,3.46,0,0,0-1.1.73Zm10.52-.53a2.822,2.822,0,0,0-.89-0.59,2.914,2.914,0,0,0-1.15-.21,3,3,0,0,0-1.23.24,2.521,2.521,0,0,0-.91.65,2.685,2.685,0,0,0-.56.99,4.3,4.3,0,0,0,.02,2.59,2.846,2.846,0,0,0,.57.98,2.4,2.4,0,0,0,.86.62,2.723,2.723,0,0,0,1.07.21,3.573,3.573,0,0,0,.65-0.06,3.073,3.073,0,0,0,1.17-.46,2.434,2.434,0,0,0,.47-0.44l-0.34-.43a0.253,0.253,0,0,0-.22-0.11,0.3,0.3,0,0,0-.22.1c-0.07.06-.16,0.12-0.27,0.2a2.24,2.24,0,0,1-.41.2,1.806,1.806,0,0,1-.62.09,1.642,1.642,0,0,1-.71-0.15,1.4,1.4,0,0,1-.54-0.43,1.988,1.988,0,0,1-.34-0.7,3.477,3.477,0,0,1-.12-0.95,3.3,3.3,0,0,1,.11-0.93,2.166,2.166,0,0,1,.33-0.7,1.5,1.5,0,0,1,.55-0.45,1.841,1.841,0,0,1,.76-0.15,1.819,1.819,0,0,1,.56.07,2.9,2.9,0,0,1,.38.16,2.621,2.621,0,0,1,.27.17,0.325,0.325,0,0,0,.2.07,0.2,0.2,0,0,0,.14-0.04,0.5,0.5,0,0,0,.11-0.1Zm3.89,5.34a2.005,2.005,0,0,0,.68-0.4l-0.34-.57a0.3,0.3,0,0,0-.07-0.08,0.169,0.169,0,0,0-.1-0.03,0.162,0.162,0,0,0-.1.04,0.988,0.988,0,0,1-.15.09,0.745,0.745,0,0,1-.2.1,1.108,1.108,0,0,1-.28.04,0.611,0.611,0,0,1-.45-0.18,0.733,0.733,0,0,1-.18-0.54v-3.57h1.73v-0.85h-1.73v-2.04h-0.59a0.273,0.273,0,0,0-.18.05,0.236,0.236,0,0,0-.09.16l-0.27,1.82-0.99.14v0.47a0.256,0.256,0,0,0,.07.19,0.272,0.272,0,0,0,.17.06h0.71v3.65a1.607,1.607,0,0,0,.4,1.18,1.51,1.51,0,0,0,1.14.42A2.291,2.291,0,0,0,1176.27,3683.15Zm5.47-5.42a2.79,2.79,0,0,0-.84-0.53,2.953,2.953,0,0,0-1.1-.19,2.767,2.767,0,0,0-.94.15,2.3,2.3,0,0,0-.69.39,1.69,1.69,0,0,0-.42.57,1.6,1.6,0,0,0-.15.68,1.508,1.508,0,0,0,.14.67,1.482,1.482,0,0,0,.35.47,2.136,2.136,0,0,0,.5.32c0.19,0.08.38,0.15,0.58,0.22s0.39,0.12.57,0.18a2.086,2.086,0,0,1,.5.2,1,1,0,0,1,.36.27,0.6,0.6,0,0,1,.13.4,0.842,0.842,0,0,1-.07.35,0.894,0.894,0,0,1-.22.3,1.009,1.009,0,0,1-.37.2,1.579,1.579,0,0,1-.52.08,2.026,2.026,0,0,1-.6-0.08,4.144,4.144,0,0,1-.41-0.18c-0.11-.07-0.2-0.13-0.28-0.19a0.458,0.458,0,0,0-.24-0.08,0.356,0.356,0,0,0-.19.05,0.345,0.345,0,0,0-.12.12l-0.28.45a2.836,2.836,0,0,0,.9.54,3.109,3.109,0,0,0,1.16.21,3.049,3.049,0,0,0,1-.15,2.048,2.048,0,0,0,.74-0.42,1.626,1.626,0,0,0,.45-0.62,2.058,2.058,0,0,0,.15-0.79,1.336,1.336,0,0,0-.13-0.63,1.394,1.394,0,0,0-.36-0.44,1.922,1.922,0,0,0-.5-0.31c-0.18-.08-0.37-0.15-0.57-0.22l-0.57-.18a2.778,2.778,0,0,1-.49-0.2,1.1,1.1,0,0,1-.36-0.25,0.549,0.549,0,0,1-.13-0.38,0.622,0.622,0,0,1,.08-0.33,0.682,0.682,0,0,1,.22-0.26,1.048,1.048,0,0,1,.35-0.18,1.653,1.653,0,0,1,.46-0.06,1.7,1.7,0,0,1,.53.07,2.765,2.765,0,0,1,.38.14c0.11,0.05.21,0.1,0.28,0.14a0.4,0.4,0,0,0,.22.07,0.319,0.319,0,0,0,.14-0.03,0.364,0.364,0,0,0,.1-0.11Z" transform="translate(-860 -3263.38)"/>
  </g>
  <g id="diagram">
    <path class="cls-10" d="M1058.55,3473.23a87.722,87.722,0,0,1-23.02,88.76" transform="translate(-860 -3263.38)"/>
    <path id="Ellipse_5_copy_2" data-name="Ellipse 5 copy 2" class="cls-11" d="M1035.51,3562.02a87.128,87.128,0,0,1-60.575,24.4" transform="translate(-860 -3263.38)"/>
    <path id="Ellipse_5_copy" data-name="Ellipse 5 copy" class="cls-12" d="M888.586,3512.5a92.972,92.972,0,0,1-1.086-13.59,87.541,87.541,0,0,1,65.708-84.79,88.539,88.539,0,0,1,13.227-2.31q4.2-.405,8.5-0.41a87.487,87.487,0,0,1,83.615,61.85" transform="translate(-860 -3263.38)"/>
    <path id="Ellipse_5_copy_3" data-name="Ellipse 5 copy 3" class="cls-13" d="M974.935,3586.42a87.48,87.48,0,0,1-86.388-73.93" transform="translate(-860 -3263.38)"/>
    <text id="_13_6k" data-name="$13,6k" class="cls-14" transform="translate(55.97 249.727) scale(1.263 1.264)">$13,6k</text>
  </g>
  <g id="time_switcher" data-name="time switcher">
    <path id="Rectangle_4_copy_21" data-name="Rectangle 4 copy 21" class="cls-15" d="M904.5,3344.39h48a15,15,0,0,1,15,15v0.01a15,15,0,0,1-15,15h-48a15,15,0,0,1-15-15v-0.01A15,15,0,0,1,904.5,3344.39Z" transform="translate(-860 -3263.38)"/>
    <text id="Yearly_copy" data-name="Yearly copy" class="cls-16" transform="translate(49.652 100.661)">Yearly</text>
    <text id="Monthly_copy" data-name="Monthly copy" class="cls-3" transform="translate(129.15 100.661)">Monthly</text>
    <text id="Daily_copy" data-name="Daily copy" class="cls-3" transform="translate(212.651 100.661)">Daily</text>
  </g>
  <g id="head">
    <text id="Statistics" class="cls-17" transform="translate(28.651 38.155)">Statistics</text>
    <circle id="Ellipse_4_copy_10" data-name="Ellipse 4 copy 10" class="cls-18" cx="312.58" cy="33" r="2.58"/>
    <circle id="Ellipse_4_copy_10-2" data-name="Ellipse 4 copy 10" class="cls-18" cx="320.235" cy="33" r="2.575"/>
    <path id="Ellipse_4_copy_10-3" data-name="Ellipse 4 copy 10" class="cls-19" d="M1187.42,3293.89a2.5,2.5,0,1,1-2.58,2.5A2.538,2.538,0,0,1,1187.42,3293.89Z" transform="translate(-860 -3263.38)"/>
    <path id="Rectangle_6_copy_11" data-name="Rectangle 6 copy 11" class="cls-7" d="M860,3323.39h360v1H860v-1Z" transform="translate(-860 -3263.38)"/>
  </g>
</svg>
