<svg xmlns="http://www.w3.org/2000/svg" xmlns:xlink="http://www.w3.org/1999/xlink" width="11.2mm" height="8.92mm" viewBox="0 0 31.75 25.3"><defs><style>.cls-1{fill:url(#linear-gradient);}.cls-2{fill:url(#linear-gradient-2);}.cls-3{fill:url(#linear-gradient-3);}</style><linearGradient id="linear-gradient" y1="11.63" x2="31.75" y2="11.63" gradientUnits="userSpaceOnUse"><stop offset="0" stop-color="#5d69b1"/><stop offset="1" stop-color="#f15b6f"/></linearGradient><linearGradient id="linear-gradient-2" x1="9.39" y1="6.51" x2="16.37" y2="6.51" xlink:href="#linear-gradient"/><linearGradient id="linear-gradient-3" x1="8.44" y1="18.76" x2="23.31" y2="18.76" xlink:href="#linear-gradient"/></defs><title>Asset 6</title><g id="Layer_2" data-name="Layer 2"><g id="Layer_1-2" data-name="Layer 1"><path class="cls-1" d="M24.37,23.25a1,1,0,0,1,0-2,5.38,5.38,0,1,0,0-10.75,1,1,0,0,1-1-1,7.5,7.5,0,0,0-15,0,1,1,0,0,1-1,1,5.38,5.38,0,1,0,0,10.75,1,1,0,0,1,0,2,7.38,7.38,0,0,1-1-14.69,9.5,9.5,0,0,1,18.9,0,7.38,7.38,0,0,1-1,14.69Z"/><path class="cls-2" d="M9.89,10a.5.5,0,0,1-.5-.5A6.49,6.49,0,0,1,15.87,3a.5.5,0,1,1,0,1A5.49,5.49,0,0,0,10.39,9.5.5.5,0,0,1,9.89,10Z"/><path class="cls-3" d="M15.88,25.3a1,1,0,0,1-.68-.27L8.75,19a1,1,0,0,1,.69-1.73h2.94v-4a1,1,0,0,1,1-1h5a1,1,0,0,1,1,1v4h2.94A1,1,0,0,1,23,19l-6.44,6A1,1,0,0,1,15.88,25.3Zm-3.91-6,3.91,3.68,3.91-3.68H18.38a1,1,0,0,1-1-1v-4h-3v4a1,1,0,0,1-1,1Z"/></g></g></svg>