<svg xmlns="http://www.w3.org/2000/svg" width="85.13" height="24" viewBox="0 0 85.13 24"><defs><style>.cls-1{fill:#fff;}.cls-2{fill:#ff5a6e;}</style></defs><title>Asset 6</title><g id="Layer_2" data-name="Layer 2"><g id="Layer_1-2" data-name="Layer 1"><rect class="cls-1" x="61.13" width="24" height="24" rx="4" ry="4"/><path class="cls-2" d="M72.69,13.46v4.68H69.22V5.29h4.21q5.24,0,5.24,3.8a3.79,3.79,0,0,1-2.18,3.45l3.74,5.6H76.3l-2.72-4.68Zm0-2.61h.65q1.82,0,1.82-1.61,0-1.33-1.78-1.33h-.69Z" transform="translate(-0.79)"/><path class="cls-1" d="M9.79,14.17a3.79,3.79,0,0,1-.61,2.12,4,4,0,0,1-1.75,1.44,6.48,6.48,0,0,1-2.68.51,10.85,10.85,0,0,1-2.15-.18,8,8,0,0,1-1.81-.63V14.35a10.34,10.34,0,0,0,2.07.8,7.7,7.7,0,0,0,2,.29A1.91,1.91,0,0,0,6,15.16a.82.82,0,0,0,.36-.69A.76.76,0,0,0,6.17,14a1.69,1.69,0,0,0-.47-.4q-.32-.2-1.71-.83a8.2,8.2,0,0,1-1.89-1.11,3.4,3.4,0,0,1-.93-1.23A4.08,4.08,0,0,1,.88,8.8,3.29,3.29,0,0,1,2.17,6,5.7,5.7,0,0,1,5.72,5,10,10,0,0,1,9.79,6L8.73,8.65a7.71,7.71,0,0,0-3.11-.83,1.62,1.62,0,0,0-1,.24.72.72,0,0,0-.31.59.85.85,0,0,0,.39.68,14.91,14.91,0,0,0,2.12,1.09A5.87,5.87,0,0,1,9.15,12,3.48,3.48,0,0,1,9.79,14.17Z" transform="translate(-0.79)"/><path class="cls-1" d="M17.45,18.08H14v-10H10.84V5.23h9.74V8.06H17.45Z" transform="translate(-0.79)"/><path class="cls-1" d="M30.3,18.08l-.63-2.41H25.49l-.65,2.41H21l4.19-12.9h4.63l4.25,12.9Zm-1.35-5.26-.55-2.11q-.19-.7-.47-1.82t-.36-1.6q-.08.45-.31,1.48t-1,4.05Z" transform="translate(-0.79)"/><path class="cls-1" d="M39,13.4v4.68H35.48V5.23h4.21q5.24,0,5.24,3.8a3.79,3.79,0,0,1-2.18,3.45l3.74,5.6H42.56L39.83,13.4Zm0-2.61h.65q1.82,0,1.82-1.61,0-1.33-1.78-1.33H39Z" transform="translate(-0.79)"/><path class="cls-1" d="M53.33,18.08H49.86v-10H46.72V5.23h9.74V8.06H53.33Z" transform="translate(-0.79)"/></g></g></svg>