<svg xmlns="http://www.w3.org/2000/svg" xmlns:xlink="http://www.w3.org/1999/xlink" width="10.97mm" height="9.62mm" viewBox="0 0 31.1 27.26"><defs><style>.cls-1{fill:url(#linear-gradient);}.cls-2{fill:url(#linear-gradient-2);}.cls-3{fill:url(#linear-gradient-3);}.cls-4{fill:url(#linear-gradient-4);}.cls-5{fill:url(#linear-gradient-5);}.cls-6{fill:url(#linear-gradient-6);}.cls-7{fill:url(#linear-gradient-7);}.cls-8{fill:url(#linear-gradient-8);}.cls-9{fill:url(#linear-gradient-9);}.cls-10{fill:url(#linear-gradient-10);}.cls-11{fill:url(#linear-gradient-11);}.cls-12{fill:url(#linear-gradient-12);}.cls-13{fill:url(#linear-gradient-13);}.cls-14{fill:url(#linear-gradient-14);}.cls-15{fill:url(#linear-gradient-15);}.cls-16{fill:url(#linear-gradient-16);}</style><linearGradient id="linear-gradient" y1="13.63" x2="31.1" y2="13.63" gradientUnits="userSpaceOnUse"><stop offset="0" stop-color="#5d69b1"/><stop offset="1" stop-color="#f15b6f"/></linearGradient><linearGradient id="linear-gradient-2" x1="11.98" y1="6.25" x2="19.12" y2="6.25" xlink:href="#linear-gradient"/><linearGradient id="linear-gradient-3" x1="11.98" y1="8.97" x2="19.12" y2="8.97" xlink:href="#linear-gradient"/><linearGradient id="linear-gradient-4" x1="11.98" y1="11.37" x2="17.31" y2="11.37" xlink:href="#linear-gradient"/><linearGradient id="linear-gradient-5" x1="11.98" y1="14.42" x2="19.12" y2="14.42" xlink:href="#linear-gradient"/><linearGradient id="linear-gradient-6" x1="11.98" y1="17.14" x2="19.12" y2="17.14" xlink:href="#linear-gradient"/><linearGradient id="linear-gradient-7" x1="11.98" y1="19.31" x2="16.05" y2="19.31" xlink:href="#linear-gradient"/><linearGradient id="linear-gradient-8" x1="2.7" y1="8.9" x2="9.42" y2="8.9" xlink:href="#linear-gradient"/><linearGradient id="linear-gradient-9" x1="2.7" y1="14.42" x2="9.42" y2="14.42" xlink:href="#linear-gradient"/><linearGradient id="linear-gradient-10" x1="2.7" y1="17.5" x2="7.41" y2="17.5" xlink:href="#linear-gradient"/><linearGradient id="linear-gradient-11" x1="21.66" y1="5.79" x2="28.38" y2="5.79" xlink:href="#linear-gradient"/><linearGradient id="linear-gradient-12" x1="21.66" y1="8.73" x2="26.38" y2="8.73" xlink:href="#linear-gradient"/><linearGradient id="linear-gradient-13" x1="21.66" y1="11.67" x2="28.38" y2="11.67" xlink:href="#linear-gradient"/><linearGradient id="linear-gradient-14" x1="21.66" y1="14.6" x2="26.38" y2="14.6" xlink:href="#linear-gradient"/><linearGradient id="linear-gradient-15" x1="21.66" y1="17.54" x2="28.38" y2="17.54" xlink:href="#linear-gradient"/><linearGradient id="linear-gradient-16" x1="21.66" y1="20.48" x2="26.38" y2="20.48" xlink:href="#linear-gradient"/></defs><title>Asset 11</title><g id="Layer_2" data-name="Layer 2"><g id="Layer_1-2" data-name="Layer 1"><path class="cls-1" d="M30.67.18a1,1,0,0,0-.91-.12L20.4,3.44,11,.06a1,1,0,0,0-.68,0L.66,3.56A1,1,0,0,0,0,4.5V26.26a1,1,0,0,0,1.34.94l9.36-3.38,9.36,3.38a1,1,0,0,0,.68,0l9.7-3.5a1,1,0,0,0,.66-.94V1A1,1,0,0,0,30.67.18ZM11.2,2.24l8.7,3.14V25l-8.7-3.14ZM2,5.2l8.2-3V21.88l-8.2,3ZM29.1,22.06l-8.2,3V5.38l8.2-3Z"/><path class="cls-2" d="M12.31,5.61l6.14,2.21.17,0a.5.5,0,0,0,.17-1L12.65,4.67a.5.5,0,1,0-.34.94Z"/><path class="cls-3" d="M18.79,9.61,12.65,7.4a.51.51,0,0,0-.64.3.5.5,0,0,0,.3.64l6.14,2.21.17,0a.5.5,0,0,0,.17-1Z"/><path class="cls-4" d="M12.31,11.06l4.33,1.56.17,0a.5.5,0,0,0,.17-1l-4.33-1.56a.5.5,0,0,0-.34.94Z"/><path class="cls-5" d="M18.79,15.05l-6.14-2.21a.5.5,0,0,0-.34.94L18.45,16l.17,0a.5.5,0,0,0,.17-1Z"/><path class="cls-6" d="M18.79,17.77l-6.14-2.21a.5.5,0,0,0-.34.94l6.14,2.21.17,0a.5.5,0,0,0,.17-1Z"/><path class="cls-7" d="M15.72,19.39l-3.07-1.11a.5.5,0,0,0-.34.94l3.07,1.11.17,0a.5.5,0,0,0,.17-1Z"/><path class="cls-8" d="M9.42,5.14a.47.47,0,0,0,0-.08.48.48,0,0,0,0-.09h0a.49.49,0,0,0-.06-.1l0-.07-.1-.07-.06,0L9,4.66l-.08,0h0l-.09,0H8.75L3,6.74a.5.5,0,0,0-.33.47v5.44a.5.5,0,0,0,.5.5l.17,0,5.72-2.06h0L9.19,11l.07-.05.05-.07a.5.5,0,0,0,.06-.08.51.51,0,0,0,0-.07.49.49,0,0,0,0-.12h0ZM3.7,7.56l4.72-1.7v4.38L3.7,11.94Z"/><path class="cls-9" d="M8.75,12.91,3,15a.5.5,0,0,0,.17,1l.17,0,5.72-2.06a.5.5,0,0,0-.34-.94Z"/><path class="cls-10" d="M6.74,16.36,3,17.7a.5.5,0,0,0,.17,1l.17,0L7.08,17.3a.5.5,0,0,0-.34-.94Z"/><path class="cls-11" d="M22.16,7.33l.17,0,5.72-2.06a.5.5,0,1,0-.34-.94L22,6.35a.5.5,0,0,0,.17,1Z"/><path class="cls-12" d="M22.16,9.9l.17,0L26,8.53a.5.5,0,1,0-.34-.94L22,8.93a.5.5,0,0,0,.17,1Z"/><path class="cls-13" d="M22.16,13.2l.17,0,5.72-2.06a.5.5,0,1,0-.34-.94L22,12.23a.5.5,0,0,0,.17,1Z"/><path class="cls-14" d="M22.16,15.77l.17,0L26,14.4a.5.5,0,1,0-.34-.94L22,14.8a.5.5,0,0,0,.17,1Z"/><path class="cls-15" d="M22.16,19.07l.17,0L28.05,17a.5.5,0,1,0-.34-.94L22,18.1a.5.5,0,0,0,.17,1Z"/><path class="cls-16" d="M25.71,19.34,22,20.68a.5.5,0,0,0,.17,1l.17,0L26,20.28a.5.5,0,1,0-.34-.94Z"/></g></g></svg>