<svg xmlns="http://www.w3.org/2000/svg" xmlns:xlink="http://www.w3.org/1999/xlink" width="7.85mm" height="8.64mm" viewBox="0 0 22.24 24.5"><defs><style>.cls-1{fill:url(#linear-gradient);}</style><linearGradient id="linear-gradient" y1="12.25" x2="22.24" y2="12.25" gradientUnits="userSpaceOnUse"><stop offset="0" stop-color="#5d69b1"/><stop offset="1" stop-color="#f15b6f"/></linearGradient></defs><title>Asset 8</title><g id="Layer_2" data-name="Layer 2"><g id="Layer_1-2" data-name="Layer 1"><path class="cls-1" d="M22.24,9.76a1,1,0,0,0-.61-.9l-3-1.26,3-1.41a1,1,0,0,0,0-1.83L11.51.08a1,1,0,0,0-.78,0L.61,4.36a1,1,0,0,0,0,1.83l3,1.41-3,1.26a1,1,0,0,0,0,1.83l3,1.41-3,1.26a1,1,0,0,0,0,1.83l3,1.41-3,1.26a1,1,0,0,0,0,1.83L10.7,24.41a1,1,0,0,0,.84,0l10.12-4.72a1,1,0,0,0,0-1.83l-3-1.26,3-1.41a1,1,0,0,0,0-1.83l-3-1.26,3-1.41A1,1,0,0,0,22.24,9.76ZM11.12,2.09l7.66,3.24L11.12,8.9,3.46,5.33Zm7.66,16.74L11.12,22.4,3.46,18.83,6,17.73l4.66,2.17a1,1,0,0,0,.84,0l4.66-2.17Zm0-4.5L11.12,17.9,3.46,14.33,6,13.23l4.66,2.17a1,1,0,0,0,.84,0l4.66-2.17Zm-7.66-.93L3.46,9.83,6,8.73l4.66,2.17a1,1,0,0,0,.84,0L16.2,8.73l2.58,1.09Z"/></g></g></svg>