<svg xmlns="http://www.w3.org/2000/svg" xmlns:xlink="http://www.w3.org/1999/xlink" width="10.97mm" height="10.95mm" viewBox="0 0 31.09 31.03"><defs><style>.cls-1{fill:url(#linear-gradient);}.cls-2{fill:url(#linear-gradient-2);}.cls-3{fill:url(#linear-gradient-3);}</style><linearGradient id="linear-gradient" y1="15.52" x2="31.09" y2="15.52" gradientUnits="userSpaceOnUse"><stop offset="0" stop-color="#5d69b1"/><stop offset="1" stop-color="#f15b6f"/></linearGradient><linearGradient id="linear-gradient-2" x1="6.9" y1="10.51" x2="24.19" y2="10.51" xlink:href="#linear-gradient"/><linearGradient id="linear-gradient-3" x1="6.9" y1="14.51" x2="16.37" y2="14.51" xlink:href="#linear-gradient"/></defs><title>Asset 18</title><g id="Layer_2" data-name="Layer 2"><g id="Layer_1-2" data-name="Layer 1"><path class="cls-1" d="M12.51,31a1,1,0,0,1-.28,0c-.08,0-7.36-2.27-7.65-9.57A11.5,11.5,0,0,1,0,12.54C0,5.62,7,0,15.54,0S31.09,5.62,31.09,12.54s-7,12.54-15.54,12.54a18.55,18.55,0,0,1-2.2-.13c-1,1-1,2.52,0,4.47A1,1,0,0,1,12.53,31Zm3-29C8.08,2,2,6.73,2,12.54a9.51,9.51,0,0,0,4.17,7.58,1,1,0,0,1,.4.8,8.18,8.18,0,0,0,4.14,7.15,4.75,4.75,0,0,1,1.71-5,1,1,0,0,1,.75-.2,17.14,17.14,0,0,0,2.37.17c7.47,0,13.54-4.73,13.54-10.54S23,2,15.54,2Z"/><path class="cls-2" d="M23.19,11.51H7.9a1,1,0,0,1,0-2H23.19a1,1,0,0,1,0,2Z"/><path class="cls-3" d="M15.37,15.51H7.9a1,1,0,0,1,0-2h7.47a1,1,0,1,1,0,2Z"/></g></g></svg>