<svg xmlns="http://www.w3.org/2000/svg" xmlns:xlink="http://www.w3.org/1999/xlink" width="11.3mm" height="11.29mm" viewBox="0 0 32.04 32.01"><defs><style>.cls-1{fill:url(#linear-gradient);}.cls-2{fill:url(#linear-gradient-2);}.cls-3{fill:url(#linear-gradient-3);}</style><linearGradient id="linear-gradient" y1="16" x2="32.04" y2="16" gradientUnits="userSpaceOnUse"><stop offset="0" stop-color="#5d69b1"/><stop offset="1" stop-color="#f15b6f"/></linearGradient><linearGradient id="linear-gradient-2" x1="26.89" y1="27.68" x2="28.54" y2="27.68" gradientTransform="translate(27.68 -11.49) rotate(44.99)" xlink:href="#linear-gradient"/><linearGradient id="linear-gradient-3" x1="14.92" y1="10.8" x2="27.49" y2="10.8" xlink:href="#linear-gradient"/></defs><title>Asset 12</title><g id="Layer_2" data-name="Layer 2"><g id="Layer_1-2" data-name="Layer 1"><path class="cls-1" d="M21.81,16.73,31,7.51a3.47,3.47,0,0,0,0-4.9L29.4,1a3.55,3.55,0,0,0-4.9,0L16,9.48A7.84,7.84,0,0,0,5.22,1,1,1,0,0,0,4.9,2.64l3,3L7.27,7.24,5.7,7.89l-3-3A1,1,0,0,0,1,5.18a7.83,7.83,0,0,0,9.42,10.57A3.29,3.29,0,0,0,10.71,18L4.51,24.22l-1.22.68,0,0a1,1,0,0,0-.19.17,1,1,0,0,0-.13.13h0L.16,29.61a1,1,0,0,0,.14,1.24l.86.86a1,1,0,0,0,1.24.14l4.38-2.77h0a1,1,0,0,0,.13-.13,1,1,0,0,0,.17-.19l0,0,.68-1.23L14,21.3a3.28,3.28,0,0,0,2.48.17l9.05,9.05a3.57,3.57,0,1,0,5-5ZM4.14,12.37A5.81,5.81,0,0,1,2.47,7.49L4.76,9.78A1,1,0,0,0,5.85,10L8.42,8.93A1,1,0,0,0,9,8.38L10,5.8A1,1,0,0,0,9.8,4.71L7.52,2.44a5.84,5.84,0,0,1,6.12,8.07,1,1,0,0,0,.21,1.1h0l-2.22,2.22h0a1,1,0,0,0-1.1-.21A5.82,5.82,0,0,1,4.14,12.37ZM7,25.48,6.53,25,12,19.59l.45.45Zm-3,1.89,0,0,.66.66L2.74,29.27Zm10.53-8.11-1.76-1.76a1.45,1.45,0,0,1,.08-2L25.92,2.39a1.46,1.46,0,0,1,2.07,0L29.61,4a1.47,1.47,0,0,1,0,2.07L16.49,19.22A1.49,1.49,0,0,1,14.48,19.25Zm14.68,9.87a1.61,1.61,0,0,1-2.22,0l-8.76-8.76,2.22-2.22,8.76,8.76a1.57,1.57,0,0,1,0,2.22Z"/><circle class="cls-2" cx="27.71" cy="27.68" r="0.82" transform="translate(-11.45 27.69) rotate(-44.99)"/><path class="cls-3" d="M27.32,4.69a.58.58,0,0,0-.82,0L15.09,16.1a.58.58,0,0,0,.82.82L27.32,5.51A.58.58,0,0,0,27.32,4.69Z"/></g></g></svg>