<svg xmlns="http://www.w3.org/2000/svg" width="38.72mm" height="38.72mm" viewBox="0 0 109.74 109.74"><defs><style>.cls-1{fill:#8e91a9;}.cls-2{fill:#fff;}</style></defs><title>Asset 1</title><g id="Layer_2" data-name="Layer 2"><g id="Ebene_1" data-name="Ebene 1"><circle class="cls-1" cx="54.87" cy="54.87" r="36.51"/><path class="cls-1" d="M54.87,109.74a54.87,54.87,0,1,1,54.87-54.87A54.93,54.93,0,0,1,54.87,109.74Zm0-108.52a53.65,53.65,0,1,0,53.65,53.65A53.71,53.71,0,0,0,54.87,1.22Z"/><path class="cls-1" d="M43.55,8l1.93,6.43-1.29.39L43.35,12l-2.55.77.84,2.81L40.37,16,38.43,9.55l1.28-.38.78,2.6L43,11l-.78-2.6Z"/><path class="cls-1" d="M51.2,12l-2.53.29-.39,1.64-1.45.17,1.69-6.95L50.19,7l3.21,6.39L52,13.52Zm-.58-1.15-.39-.8-.36-.71-.32-.65-.29,1.17-.11.43-.09.38-.08.36Z"/><path class="cls-1" d="M60.18,13.71l-1.76-.11L56.26,8.42l-.31,5-1.27-.08.41-6.7,1.76.11L59,12l.31-5L60.59,7Z"/><path class="cls-1" d="M62.14,14l1.6-6.52,2.42.59a3.35,3.35,0,0,1,1.24.56,2.91,2.91,0,0,1,.82.93,3.15,3.15,0,0,1,.37,1.19,4.06,4.06,0,0,1-.64,2.59,3.09,3.09,0,0,1-.88.88,3,3,0,0,1-1.15.44,3.38,3.38,0,0,1-1.36-.07Zm1.58-.71,1,.24a1.74,1.74,0,0,0,.83,0,1.83,1.83,0,0,0,.7-.33,2.1,2.1,0,0,0,.53-.62,3.1,3.1,0,0,0,.33-.83,3.14,3.14,0,0,0,.09-.9,2.13,2.13,0,0,0-.19-.8,1.82,1.82,0,0,0-.47-.62,1.74,1.74,0,0,0-.74-.37l-1-.24Z"/><path class="cls-1" d="M79,13.05l-2.9,6.06-1.15-.55,2.34-4.89-4,4.09-1.09-.52.65-5.7-2.34,4.89-1.15-.55,2.9-6.06,1.84.88L73.43,16l3.72-3.81Z"/><path class="cls-1" d="M81.87,21.38l-2-1.54-1.42.91-1.16-.88,6-3.85,1.34,1-2.09,6.84L81.37,23Zm.38-1.23.26-.85.24-.76.21-.69-1,.65-.38.24-.33.21-.31.2Z"/><path class="cls-1" d="M83.49,24.82l4.93-4.55,1.69,1.83a3.35,3.35,0,0,1,.72,1.15A2.92,2.92,0,0,1,91,24.48a3.14,3.14,0,0,1-.35,1.2,4,4,0,0,1-2,1.81,3.09,3.09,0,0,1-1.22.25,3,3,0,0,1-1.2-.27,3.37,3.37,0,0,1-1.09-.81Zm1.71.28.69.75a1.74,1.74,0,0,0,.68.47,1.82,1.82,0,0,0,.77.11,2.14,2.14,0,0,0,.78-.22,3.06,3.06,0,0,0,.74-.51,3.17,3.17,0,0,0,.57-.7,2.13,2.13,0,0,0,.29-.77,1.84,1.84,0,0,0,0-.77,1.74,1.74,0,0,0-.41-.72L88.57,22Z"/><path class="cls-1" d="M90,30.94l1.45,2.17-.89.59-2.19-3.29,5.59-3.71L96.12,30l-1,.41-1.32-2-1.37.91,1.32,2-.89.59-1.32-2Z"/><path class="cls-1" d="M102.2,44.93l-6.88.49-.53-1.68,4.7-2.92-5.52.3-.53-1.68,5.92-3.53.4,1.26-4.7,2.63,5.47-.19.5,1.59-4.59,3,5.36-.52Z"/><path class="cls-1" d="M102.6,48.63l-6.64,1-.19-1.32,6.64-1Z"/><path class="cls-1" d="M103.06,55.72l-1,0-.07-1.92-5.66.2,0-1.33,5.66-.2-.07-1.93,1,0Z"/><path class="cls-1" d="M102.31,63.42l-6.66-.81.16-1.33,2.91.36L99,59l-2.91-.36.16-1.32,6.66.81-.16,1.32-2.7-.33-.32,2.64,2.7.33Z"/><path class="cls-1" d="M92.71,71.88l1.44-3.76,6.27,2.4-.48,1.25-5.27-2-1,2.51Z"/><path class="cls-1" d="M96.57,79.11a4.36,4.36,0,0,1-.67.86,2.83,2.83,0,0,1-1,.65,3,3,0,0,1-1.33.16,4.79,4.79,0,0,1-3-1.74,2.86,2.86,0,0,1-.5-1.23,2.8,2.8,0,0,1,.08-1.18,4.16,4.16,0,0,1,1.09-1.88,2.84,2.84,0,0,1,1-.66,2.88,2.88,0,0,1,1.32-.17,4.79,4.79,0,0,1,3,1.74,3,3,0,0,1,.51,1.24A2.87,2.87,0,0,1,97,78.09,4.42,4.42,0,0,1,96.57,79.11Zm-5.08-3a1.92,1.92,0,0,0-.25.72,1.56,1.56,0,0,0,.08.73,2.08,2.08,0,0,0,.45.71,3.73,3.73,0,0,0,.86.66,3.67,3.67,0,0,0,1,.41,2.13,2.13,0,0,0,.85,0,1.58,1.58,0,0,0,.69-.29,1.86,1.86,0,0,0,.51-.57,1.89,1.89,0,0,0,.25-.72,1.63,1.63,0,0,0-.09-.75,2.14,2.14,0,0,0-.45-.72,3.61,3.61,0,0,0-.85-.66,3.7,3.7,0,0,0-1-.42,2,2,0,0,0-.84,0,1.59,1.59,0,0,0-.68.3A1.94,1.94,0,0,0,91.49,76.15Z"/><path class="cls-1" d="M89.5,88.44l-3.65-6.07,1.08-1.27,6.6,2.6-.88,1-5.17-2.06,2.89,4.74Z"/><path class="cls-1" d="M83,86.68l-2,1.71-.7-.81,3-2.59,4.39,5.08-3,2.59-.53-1L86,90.15,84.95,88.9l-1.81,1.56-.7-.81,1.81-1.56Z"/><path class="cls-1" d="M78,94.37,76.83,95l-.66-1.17,1.17-.66Z"/><path class="cls-1" d="M66.52,101.65l-2-6.41,1.28-.4.86,2.8,2.54-.78-.86-2.8,1.28-.39,2,6.41-1.28.39-.8-2.6L67,98.66l.8,2.6Z"/><path class="cls-1" d="M58.88,97.7l2.53-.31.38-1.64,1.45-.18-1.64,7-1.67.2-3.27-6.36,1.45-.18Zm.58,1.15.4.79.36.71.33.65.28-1.18.1-.43L61,99l.08-.36Z"/><path class="cls-1" d="M49.86,96.07l1.76.09,2.19,5.17.27-5,1.28.07-.36,6.7-1.76-.1L51,97.82l-.27,5-1.28-.07Z"/><path class="cls-1" d="M47.92,95.79l-1.55,6.53-2.42-.57a3.36,3.36,0,0,1-1.24-.55,2.91,2.91,0,0,1-.82-.92,3.13,3.13,0,0,1-.38-1.18,4.06,4.06,0,0,1,.61-2.6,3.07,3.07,0,0,1,.87-.88,3,3,0,0,1,1.15-.45,3.38,3.38,0,0,1,1.36.06Zm-1.57.72-1-.23a1.72,1.72,0,0,0-.83,0,1.8,1.8,0,0,0-.7.34,2.15,2.15,0,0,0-.53.62A3.23,3.23,0,0,0,42.89,99a2.12,2.12,0,0,0,.19.8,1.83,1.83,0,0,0,.47.62,1.75,1.75,0,0,0,.74.36l1,.23Z"/><path class="cls-1" d="M31.07,96.87l2.85-6.08,1.16.54-2.3,4.91,4-4.12,1.1.51-.61,5.71,2.3-4.91,1.16.54-2.85,6.08L36,99.2l.58-5.29-3.7,3.83Z"/><path class="cls-1" d="M28.13,88.56l2,1.52,1.41-.92,1.17.87-6,3.9-1.35-1,2-6.85,1.17.87Zm-.37,1.23-.26.85-.23.76-.21.7,1-.65.37-.24.33-.21.31-.21Z"/><path class="cls-1" d="M26.48,85.13l-4.9,4.59-1.7-1.82a3.36,3.36,0,0,1-.73-1.15A2.92,2.92,0,0,1,19,85.54a3.16,3.16,0,0,1,.34-1.2,4.06,4.06,0,0,1,1.95-1.83,3.1,3.1,0,0,1,1.22-.26,3,3,0,0,1,1.2.26,3.36,3.36,0,0,1,1.1.8Zm-1.71-.27-.7-.74a1.75,1.75,0,0,0-.68-.46,1.85,1.85,0,0,0-.77-.1,2.14,2.14,0,0,0-.78.23,3.11,3.11,0,0,0-.73.52,3.17,3.17,0,0,0-.57.7,2.13,2.13,0,0,0-.28.77,1.82,1.82,0,0,0,.05.77,1.74,1.74,0,0,0,.42.71l.7.74Z"/><path class="cls-1" d="M20,79.07,18.49,76.9l.88-.6,2.21,3.28L16,83.34l-2.21-3.28,1-.41,1.34,2,1.36-.92-1.34-2,.88-.6,1.34,2Z"/><path class="cls-1" d="M7.62,65.18l6.88-.55L15,66.3l-4.68,3,5.52-.34.54,1.67-5.9,3.58-.41-1.26,4.68-2.67-5.47.23-.51-1.59,4.57-3L8,66.43Z"/><path class="cls-1" d="M7.2,61.49l6.64-1,.2,1.32-6.64,1Z"/><path class="cls-1" d="M6.68,54.37l1,0,.08,1.92L13.47,56l.06,1.33-5.66.24L8,59.5l-1,0Z"/><path class="cls-1" d="M7.37,46.7l6.67.76-.15,1.34L11,48.47l-.3,2.64,2.91.33-.15,1.33L6.76,52l.15-1.33,2.7.31.3-2.64L7.21,48Z"/><path class="cls-1" d="M16.9,38.15l-1.41,3.77L9.21,39.57l.47-1.25,5.29,2,.94-2.52Z"/><path class="cls-1" d="M13,31a4.36,4.36,0,0,1,.67-.87,2.78,2.78,0,0,1,1-.65A3,3,0,0,1,16,29.26a4,4,0,0,1,1.66.58A4,4,0,0,1,19,31a2.89,2.89,0,0,1,.51,1.22,2.82,2.82,0,0,1-.07,1.18,4.19,4.19,0,0,1-1.08,1.88,2.77,2.77,0,0,1-2.3.85,4,4,0,0,1-1.66-.58A4,4,0,0,1,13,34.39a3,3,0,0,1-.52-1.23A2.85,2.85,0,0,1,12.58,32,4.39,4.39,0,0,1,13,31Zm5.1,2.92a2,2,0,0,0,.25-.72,1.56,1.56,0,0,0-.08-.73,2.06,2.06,0,0,0-.46-.71,3.69,3.69,0,0,0-.87-.66,3.62,3.62,0,0,0-1-.41,2.12,2.12,0,0,0-.85,0,1.57,1.57,0,0,0-.68.3,2,2,0,0,0-.74,1.3,1.62,1.62,0,0,0,.09.74,2.14,2.14,0,0,0,.46.72,3.62,3.62,0,0,0,.86.65,3.68,3.68,0,0,0,1,.41,2,2,0,0,0,.84,0,1.6,1.6,0,0,0,.68-.3A1.9,1.9,0,0,0,18.09,33.87Z"/><path class="cls-1" d="M20,21.57l3.69,6-1.07,1.28L16,26.34l.87-1,5.19,2-2.92-4.72Z"/><path class="cls-1" d="M26.48,23.28l2-1.72.7.8-3,2.61-4.42-5,3-2.61.54.95-1.8,1.58,1.08,1.23,1.8-1.58.7.8-1.8,1.57Z"/><path class="cls-1" d="M31.45,15.55l1.16-.67L33.29,16l-1.16.67Z"/><path class="cls-2" d="M77,44.08a.52.52,0,0,0-.06-.12.49.49,0,0,0,0-.85.4.4,0,0,0-.43-.24.18.18,0,0,0-.2-.24h0a.15.15,0,0,0-.11,0h0a.18.18,0,0,0-.19-.09c-.23.06-.46.12-.68.19h0l0-.08c-.68.22-1.38.41-2.09.58l.14.38h0l-.14-.38c-1.36.34-2.75.63-4,.88-.23,0-.15-.05,0-.1-1.07.19-2,.44-3,.7,3.42-1.28,10-4.87,2.77-3.35l.27-.15c.13-.06.11-.2,0-.28l.08,0a.15.15,0,0,0,.08-.19l.18-.08h0l0,0a.16.16,0,0,0,.07-.23h0a.19.19,0,0,0,0-.34.17.17,0,0,0,0-.17.17.17,0,0,0,0-.1l.1,0a.17.17,0,0,0,.1-.25.14.14,0,0,0-.18-.17l-.1,0a.14.14,0,0,0-.15,0l-.22.07h0l-.38.13a67.8,67.8,0,0,1-8.27,2.08,15.83,15.83,0,0,1,3.11-1.2l0,0a8.93,8.93,0,0,0,1.36-.55l1-.26a.5.5,0,0,0-.27-1c-.92.22-1.82.48-2.71.78-2.33.41-5.63,2.13-6.86,3.94a.13.13,0,0,1,0-.11c-.21.2-.19.11.13,1.06.07.21,1.7.24,1.58.25a1.6,1.6,0,0,1-.47.32l0,0c-1.07.63-.24,1,.57.84a.94.94,0,0,1,.44-.08l.68-.13a69.87,69.87,0,0,1-7,2.63v0a12,12,0,0,0,1.82-1.26.36.36,0,0,0,.14-.35l.06,0q.22-1.78-2.62-.8c.71-.26,1.57-.6.56-.51.69-.52.69-.94-.29-.84,1-.63-9.55,2.73-10.58,3.06.4-.19,2-.79,4-1.52a46.78,46.78,0,0,0,5.28-2.09c1.58-.68,2.7-1.25,2.6-1.49q.3-.82-.3-.74c0,.08.08.1,0,.15s-.08-.11,0-.15c-4.16-.23-8.46,2.08-12.3,3.35.49-.22,10-3.4,8.66-5.17a13.22,13.22,0,0,0-2.61.23c.06-.14-.12-.26-.26-.21s0-.11-.09-.24l-.41.08a.17.17,0,0,0-.1,0h0l.1-.11a.18.18,0,0,0,0-.14c.19-.12.3-.26.18-.48,0,.08-.07.08,0,.06a.58.58,0,0,1-.06.12.41.41,0,0,0-.1.08l0-.06h0s.2-.14.12-.14-.58.09-.52.14a.18.18,0,0,0-.1,0h0a.16.16,0,0,0-.13,0L44,39.37a.6.6,0,0,1,.33-.21,5.84,5.84,0,0,0-2.6.91c-.32.12-.63.25-.94.39-.06,0,0,.13,0,.1l.31-.11c-.2.09-.4.19-.56.28l.58-.29.54-.18-.39.2s0,.07,0,.05a13.7,13.7,0,0,1,2.51-.83q-1.87.83-3.72,1.71c-.37.14-1,.42-1.36.55-.11.08.21,0,.53-.15l0,0q-1.15.49-2.29,1a.15.15,0,0,0-.08.18l-.48.22a.73.73,0,0,1,0,.21l.68-.3h0l-.71.37a.75.75,0,0,1-.11.22l1.6-.84h0c-.5.27-1,.55-1.48.86a.19.19,0,0,0-.07.09l-.18.07-.24.3.28-.1-.22.08.46-.13a.19.19,0,0,0,.16,0l.22-.1a.19.19,0,0,0,.27.17L37.4,44l-.27.14-.51.19a.18.18,0,0,0-.12.14l-1.34.68-.09.11.33-.11-.45.28-.05.07c.8-.4,1.66-.7,2.5-1l-.91.52c.35-.19,1.29-.63,2.35-1.11l3.09-1.18-.28.14h0l-4.33,1.93a13.86,13.86,0,0,0-3.78,2.3c-.13.11,0,.36.17.29a1.57,1.57,0,0,1-.88.85s0,0,0,0c.34.62,1.37-.06,2.2-.57l.46-.21-.13,0A7,7,0,0,1,36.59,47c3.1-1.32,5.85-2.18,9-3.25-.33.13-.8.28-1.14.42l1.78-.58L45,44l.08,0c-.26.1,1.25-.33,1.8-.43a.51.51,0,0,0,.16.48,6.84,6.84,0,0,0-1.37.4c.57-.2-.22.17.18.05-2.27,1-4.88,1.37-6.92,2.88.67-.5-2.54,1.15-2.64,1.2.48-.29,1-.57,1.47-.82l-5.29,2.51.24.63a.42.42,0,0,0,.07.19c.13.37.1.27.21.16l.09,0h.24c-.12.05-.07.06.3,0A5.82,5.82,0,0,0,35,50.93h0l.07,0a1,1,0,0,1-.29.2s0,.06-.08.08c.34.52,1.53,0,1.78-.12a6.15,6.15,0,0,1-.75.1,30.35,30.35,0,0,0,3-.91l-.06,0,.35-.12c-.37.16-.24.14-.15.14-.45.19-1,.43-1.17.51h0a4.36,4.36,0,0,1,.48-.3A25.67,25.67,0,0,0,35.71,52c-.18.05-.46.13-.76.24l0,0-.21.08-.1,0s0-.06,0,0c-.75.3-1.5.76-1.17,1.42a.76.76,0,0,0,.68.39.53.53,0,0,0,0,.19c-.24.06-.38.1-.26.09l.28,0a.48.48,0,0,0,.53.23l.27-.05v0h0c-.52.32-.49.25-.16,1.06a1.13,1.13,0,0,0,1,.61c-1.06-1.8-.21-.37,0,0a2.9,2.9,0,0,0,1-.09l-.22.12L37.89,56c0-.06-.28-.07-1.33.23a20.54,20.54,0,0,1,2.14-.67,26.68,26.68,0,0,0,2.66-1,8,8,0,0,0-1.48.81A72,72,0,0,1,50.61,52,132.47,132.47,0,0,0,35.9,58.42l.29-.08c-.43.14-.46.29-.37.46a.49.49,0,0,0,.31.73,6.06,6.06,0,0,0,1.37.08.59.59,0,0,0,.13.17.51.51,0,0,0,.35.4.64.64,0,0,0,.36.36,1.21,1.21,0,0,0,1.08-.09.44.44,0,0,0,.19-.19Q43.26,59,46.9,57.67l-1.56.81a1.8,1.8,0,0,1,.46-.31c-.88.41-1.85.88-2.49,1.21s-3,1.53-3.33,1.73c-.44,0-1.08.51-1.61.55l.11.27a.46.46,0,0,0,.35.84,15.55,15.55,0,0,0,2.93-1,.47.47,0,0,0,.17-.12L44.19,61c.42-.17,5-1.58,3.91-1.23q4.84-1.33,3-1.08l.28-.07.91-.32.28-.13-.1.06c.44-.16.87-.32,1.31-.46l-.27.18a84.87,84.87,0,0,1,11.75-3.65s0,0-.07,0c2-.36,3.9-.85,5.87-1.17a.67.67,0,0,1-.31.08h.13c-2.23.91-4.51,1.71-6.81,2.43-.85.32-2.38.82-3.41,1.11l.88-.32c-2.38.75-4.64,1.41-7.29,2.48,1.76-.06-5.38,2-6.38,2.43-.33.09,0-.07.92-.47-.77.29-6.26,2.39-6.23,2.51q.17.64.35,1.28c.68-.48,2.3-.34,1.71-.05,1.19,1,6-1.05,7.58-1.62l-.25.1c.58-.17,1.16-.36,1.73-.56-2.64,1.18-7.48,2.21-9.39,3.94a5.71,5.71,0,0,0-.89.48.51.51,0,0,0-.18.22c-.09,0-.11,0,0,.16a.46.46,0,0,0,.21.46l.19.43a.56.56,0,0,1,0-.37,13.08,13.08,0,0,0,1.53.25,3.85,3.85,0,0,0,.64.08,8.7,8.7,0,0,0,2.26.06.51.51,0,0,0,.44-.34c4.5-.78,12.07-5.37,16.86-5.81l-.42.18c-.22.06,0-.05.16-.12-3.55,1.5-8.57,2.41-11.74,4.86-.29.09.1-.09.08-.11-1,.47-5.41,1.58-5.66,2.24-.23.13-.47.26-.69.4a.42.42,0,0,0-.14.14l-.06,0,0,0-.16.1a.1.1,0,0,0,0,.06l-.44.34a.13.13,0,0,0,0,.21l0,0-.12.09a.14.14,0,0,0,0,.21h0l-.07.06a.72.72,0,0,0-.09.51.75.75,0,0,0,.14.24l0,0a.18.18,0,0,0,.17.07h0a.47.47,0,0,0,0,.18l.05,0h0l.14.13.15.13.06.06h.11a.2.2,0,0,0,.12,0l.12,0,.28,0a.17.17,0,0,0,.21.16l.15,0,.14.06a.67.67,0,0,1,.19,0,.67.67,0,0,1,.23.11c.84-.24,1.68-.48,2.52-.73a.45.45,0,0,0,.27-.66c3.07-1.21,7-2.58,7.28-2.69-2,1-3.26,1.38-3.68,2.41a29.69,29.69,0,0,0-5,2.71,4.53,4.53,0,0,0,3.12-.16h0l-.05.05-.08,0s0,.06,0,0h0a.16.16,0,0,0,.21.18l.31-.1c-.18.1-.05.42.15.34l0,0h0l.3-.13a.46.46,0,0,0-.19.37.2.2,0,0,0,.25.19l.15-.06a.2.2,0,0,0,.13.27l.24,0-.17.18c-.06.07,0,.16.1.1l0,0-.21.26c-.09.12.06.27.19.24h.05l.07,0a1.51,1.51,0,0,0,0,.29l0,0a.17.17,0,0,0,.18.12.2.2,0,0,0,0,.3.2.2,0,0,0,.21.31l.48-.12h.05a.26.26,0,0,0,0,0,.19.19,0,0,0,0,.31l-.1.05a.2.2,0,0,0,.16.37l.1,0a.19.19,0,0,0,.14.06h.11a.2.2,0,0,0,0,.07c-.14.16.06.45.25.31l1-.73a.15.15,0,0,0,0-.18l.07-.07a.17.17,0,0,0,.06-.13,1,1,0,0,0,.36-.45.17.17,0,0,0,0-.08l.33-.25a.15.15,0,0,0,0-.18c.24-.21.48-.43.71-.66s.38-.34.43-.61A9.54,9.54,0,0,0,61.49,72a.17.17,0,0,0,0-.13c1.46-1.4,1.8-2.38-1.92-1.59l-.2.15a3.53,3.53,0,0,1,1.35.08c.23,0,2.13-.25,1.51.28.49-.7-4.58.48-4.16.35a2.16,2.16,0,0,1,.26-.25.13.13,0,0,0,.1,0l.3-.09a.16.16,0,0,0,.19,0l.35-.16a.14.14,0,0,0,.06-.2l0,0h-.07l.23-.14h0l.09-.07-.06,0a.16.16,0,0,0,0-.12l.26-.1-.23.2c1.23-.5,6-2.44,5.77-2.93-.53-1.22,1.12-2,2.28-2.47l0,0a7.74,7.74,0,0,0,1-.89c-.39-1.41-.6-1.1-2.35-.88.21-.12,1.7-1.13,2.85-2,.45-.64.86-1.3,1.3-1.95a5.46,5.46,0,0,1,1-2.12,11.63,11.63,0,0,0,1.91-2.45l.13,0,0-.13.17-.31c1.72-2.37,2.08-3.89-6.09-1.44l.2-.11a14.61,14.61,0,0,1-2.53.68c2.56-.85,11.47-3.88,11.49-7.15.16-.24.32-.49.46-.75a.34.34,0,0,0,0-.41A.51.51,0,0,0,77,44.08Zm-9.21-1.49a.54.54,0,0,1,.55-.15l-.67.22Zm-.55-1.19h0a.55.55,0,0,1,.18.07q.1-.05.2.07a8.36,8.36,0,0,1-1.12.34A1.42,1.42,0,0,0,67.21,41.39ZM48.82,40.18a5.52,5.52,0,0,1-.58.16.19.19,0,0,0,0-.09A4.23,4.23,0,0,1,48.82,40.18Zm-.78.63-.16.09a.2.2,0,0,0,0-.06Zm-1.46,1.12.37-.18-.33.16.1-.06.23-.1c-.21.12-.39.21-.48.26ZM46,39.19l-.06.07h0Zm-1,3.19a.21.21,0,0,0-.1-.06l.13-.07,1.12-.5C45.77,42,45.38,42.18,45,42.38Zm1.27-1.27h.07l-.54.32-1,.35Zm-7.74,2.43a.17.17,0,0,0,0-.05l.69-.26Zm3.1-1.1c.53-.25,1.06-.51,1.58-.79-.47.26-.06.13.75-.14-.49.19-1,.39-1.45.59Zm-7.7,4.83h0l.08.26ZM47,44.08l.08.05-1,.32Zm5.81,17.42c-1.46.41-2.93.88-4.34,1.44h.07a14.06,14.06,0,0,1-4,1.21c-.17-.52,5-2,5.24-2,.45-.09-.76.26-.95.38l1.38-.41,6.6-2.35,2.67-.91-.07.11.3-.1-.2,0c2.93-1,5.9-1.85,8.9-2.58-.41.2-.8.4-1.14.58-.18,0,0-.07.44-.31-3.55,1.5-7,2.55-10.66,3.8-2.09.51,2.85-1,1.52-.63C58.76,59.75,56.57,60.34,52.83,61.49Zm16.91-3c-1,.73-3.75.42-4.92.71a11.38,11.38,0,0,1,4-.65Zm-.7-.7c.36-.12.7-.42.85-.05Zm-20.27,9q-1,.27-2.09.45l-.1,0H46c1.05-.88,10.75-3.67,11.24-3.84C54.37,64.38,51.54,65.49,48.78,66.75Zm1.49,2.69c.78-.49.78-.43.38-.15l-.43.19Zm-2.23,1c.25-.13.5-.26.75-.4a.43.43,0,0,0,.2-.3c.25-.16.5-.31.75-.45C50,70,49,70.35,48,70.61A.59.59,0,0,0,48,70.44Zm.07,1a.55.55,0,0,0-.16-.16c2.42-1,7-2.64,10.37-3.75l-2.13.49c3.9-1.14,8.3-2.48,9.28-4-.94,1.48-3,2.38-5.27,3C56.16,68.57,52.2,70.17,48.1,71.48Zm6.44.46-.08,0c-.56.21-1.13.41-1.7.59a24.27,24.27,0,0,1,4.6-2Q55.94,71.25,54.54,71.94Zm1.09,2.41-.1.06.12-.1h0Zm.22-2.14h-.07a.18.18,0,0,0-.19,0l0,0-.44,0c.84-.33,1.69-.65,2.55-.93a2,2,0,0,1-.58.58.14.14,0,0,0-.11,0l-.24.14a.16.16,0,0,0-.25-.15Zm5.73-1.31c.07.09-.29.34-.41.51l-.14.13c-1.42,1.24-3.21,1.62-4.71,2.52a.19.19,0,0,0-.09-.07c.23-.29.77-.64,1-.4-.31-.65-.22-.42-.91,0C57,71.51,59.6,70.79,61.58,70.91ZM64.14,67c-1.81,1.16-6.25,3.3-8.58,3.61a18.65,18.65,0,0,1,8.67-3.66ZM64,66.36a.92.92,0,0,1,1-.09A4.9,4.9,0,0,0,64,66.36Zm3.55-2.76c.28,0,1.29-.08.56.22A24.1,24.1,0,0,1,65.93,65c-.3.1.06-.05.22-.16l-1.1.47C66.28,64.1,65.6,63.57,67.55,63.61Zm.55-2.88c-1.56.93-1.74.73-3.45.94,1.25-.39,2.37-1.08,3.7-1.1Zm-.49-1a2.64,2.64,0,0,1-1.13.33c-.16,0-.17,0-.11,0a87.13,87.13,0,0,0-10.12,2.8c1.39-.57,3.51-1,4.76-1.91.3-.06.13,0,0,.14a29.19,29.19,0,0,1,7.55-1.83Zm1.3.14A4.5,4.5,0,0,1,70,59.24C69.69,59.7,69.29,60,68.91,59.91Zm2.21-3.78a25.06,25.06,0,0,1-3.26,1.15,29.3,29.3,0,0,1,3.71-1.63Zm2-2.62-.18.29a4.2,4.2,0,0,1-.56.49l-.07.05,0,0c-1.27.86-3.68.82-5.11,1.14,2-.66,4-1.21,6-2.06A.19.19,0,0,1,73.11,53.51ZM73,52.28h.75a3.08,3.08,0,0,1-2.48.13C71.84,52.36,72.42,52.34,73,52.28ZM66.88,46c.28-.13,1.12-.43,2.17-.78l.21-.07,2.49-.7-.4.19a2,2,0,0,1,1.81,0C73.06,44.88,66.53,46.1,66.88,46Zm5.36.92-.93.19Q72,46.37,72.24,46.94Zm-3.06-.09.5-.09a5.79,5.79,0,0,1-3.23.68C67.3,47.24,68.22,47,69.18,46.86ZM64.6,43.54c.13.13,1.1-.26-1.3.49A13.28,13.28,0,0,1,64.6,43.54Zm-5.94-.45c-.49.32-.27,0-.73.23l.18-.11-.5.05c1.49-1.31,1.48-.62,3.23-.86A9.11,9.11,0,0,1,58.66,43.09Zm2,1.84-.46.17Q60.57,44.65,60.61,44.93Zm-.79.19.23,0a1.3,1.3,0,0,1-.77.18,1.24,1.24,0,0,1,.39-.11l-.09,0C59.67,45.21,60,45.14,59.82,45.12Zm-.33-1.49c.24-.15.28-.56.56-.25A1.12,1.12,0,0,1,59.49,43.63Zm-3.58,6.83.33-.11c2.71-.94,3.9-1.26,6.09-1.85-.34.1-.78.24-1.45.4a50.57,50.57,0,0,0,5.42-1.42c.2.71-1,1-1.8,1.25-2.88,1.11-6,1-9.11,2ZM51.61,45a1,1,0,0,1-.94.21A1.39,1.39,0,0,1,51.61,45ZM38.24,50.23l-.33.12a10.47,10.47,0,0,1-2.5.69s.31-.09.11-.06c.1-.08.92-.5.35-.28l.28-.21a6.59,6.59,0,0,0-.59.41,1.13,1.13,0,0,1,.72-.5l-.13.1c.43-.28,2.76-1,0,.12,1.6-.61,3.24-1.2,4.8-1.9-2.75,1.22,2.83-1.06,5.6-2l-1.25.34c-.88.21,1.1-.46,1.67-.63l.11,0a5.13,5.13,0,0,0,1.24-.22l-.66.23.13,0a56.6,56.6,0,0,0-5.38,2.18c2.51-1.1-1.87.95-2.21,1.07.4-.19.58-.26,1-.43l-.18.05c.52-.25,1-.49,1.36-.69C40.73,49.2,39.24,50,38.24,50.23Zm-1.55,2.69c.46-.1.35-.07,0,0Zm.07,0a12.65,12.65,0,0,0,1.55-.34,5,5,0,0,1-1.3.54A.58.58,0,0,0,36.76,53Zm.66,2.21-.21.05c.4-.25.26-.13,1.09-.32l-.79.25Zm1-1.32a1.41,1.41,0,0,1,.32-.23c-1,.51-1.33.61-1.65.8h0l.33-.22a2.55,2.55,0,0,1-.55.27,4.26,4.26,0,0,0,.59-.4l-.58.27a14.18,14.18,0,0,1,1.51-.72,1.4,1.4,0,0,1-.47.12,3,3,0,0,1,.82-.31l-.35.18A12.09,12.09,0,0,1,39.83,53c-1.81,1,.8-.29,1.4-.49l-.49.21c.06.06.6-.18.46,0C40.24,53.2,39.43,53.33,38.46,53.84Zm4.7-1.31q-1.52.59-3.07,1.07a28.1,28.1,0,0,1,4.07-1.72C43.81,52.1,43.47,52.32,43.15,52.53Zm2.61-3c.9-.4-2.26.93-3.16,1.27.37-.2.74-.39,1.11-.58a5.45,5.45,0,0,1-.94.35,31.35,31.35,0,0,1,6.59-2.63,30.7,30.7,0,0,1-2.82,1.31A4.34,4.34,0,0,1,45.77,49.5Zm3.84-.66-1,.31c.33-.15.72-.3,1.1-.45a.43.43,0,0,0,0,.05Zm.16-.06h0l-.06,0Zm0,2.35-.42.17s0,0,0,0c-.51.18-1.06.31-1.6.45.83-.33,1.49-.62,2.47-1Zm-.64-3.94a7.3,7.3,0,0,1,4.21-.91,14.55,14.55,0,0,1-1.87,1.27,1,1,0,0,0,0-.79C51.39,46.68,47.83,47.49,49.09,47.18Zm-4.34,9.07c.83-.31,1.64-.7-.22.08,4.82-2,9.67-4.63,14.81-5.78-3.56,1.34-7.16,3.06-11,4.45.39-.18.47-.25,1-.47C47.8,55.11,46.34,55.7,44.75,56.26Zm21-4.3A46.38,46.38,0,0,1,59,54.4c.13-.07.56-.22.88-.34-4.88,1.53-9.76,4.16-14.7,5.3,7.08-3.34,14.31-6.94,22.14-8C66.34,51.59,66.8,51.59,65.77,52Zm-3-1.46c2.43-1.5,6.4-2.11,9.18-2.68-1.72.52-3.45,1.14-5.2,1.57l.65-.1C65.87,49.66,64.32,50.07,62.79,50.5Zm9.5-.41a1.19,1.19,0,0,0-.84.06l.82,0a4.79,4.79,0,0,1-1.31.46c-1.28.34.42-.19.88-.42-.8.2-3.77,1.77-4.07.79a11.16,11.16,0,0,1,3-.68l-.58,0a12.33,12.33,0,0,1,2.2-.2Zm0-3.38a6.84,6.84,0,0,1,2.7-.33.52.52,0,0,0,.35,0l-.12.07C75.68,46.37,72.62,47.15,72.32,46.71Z"/></g></g></svg>