<svg xmlns="http://www.w3.org/2000/svg" width="29.46mm" height="33.37mm" viewBox="0 0 83.5 94.59"><defs><style>.cls-1{fill:#8e91a9;}</style></defs><title>Asset 2</title><g id="Layer_2" data-name="Layer 2"><g id="Ebene_1" data-name="Ebene 1"><path class="cls-1" d="M14.24,80.22c0,1-.84,1.65-2.1,1.65h-1.8v-6H12c1,0,1.86.54,1.86,1.51a1.58,1.58,0,0,1-.95,1.33A1.58,1.58,0,0,1,14.24,80.22Zm-3.32-3.86v2.15H12a1.12,1.12,0,0,0,1.24-1.09c0-.62-.43-1.06-1.46-1.06Zm2.71,3.85A1.3,1.3,0,0,0,12.23,79h-1.3v2.34h1.2C13.07,81.35,13.64,81,13.64,80.21Z"/><path class="cls-1" d="M23.44,81.34v.54H20.22v-6h.59v5.51Z"/><path class="cls-1" d="M28.6,78.92c0-2,.91-3.2,2.54-3.2s2.41,1.16,2.41,3.07S32.64,82,31,82,28.6,80.82,28.6,78.92Zm4.33-.05c0-1.82-.75-2.63-1.85-2.63s-1.85.79-1.85,2.62.73,2.61,1.86,2.61S32.92,80.66,32.92,78.87Z"/><path class="cls-1" d="M43.7,78.71v2.64a2.87,2.87,0,0,1-1.93.64c-1.62,0-2.58-1-2.58-3s1-3.25,2.72-3.25a3,3,0,0,1,1.77.55l-.21.51h0a2.8,2.8,0,0,0-1.59-.53c-1.39,0-2,.88-2,2.61s.64,2.59,2,2.59a3,3,0,0,0,1.33-.3V79.24H41.54v-.53Z"/><path class="cls-1" d="M54,78.71v2.64A2.87,2.87,0,0,1,52,82c-1.62,0-2.58-1-2.58-3s1-3.25,2.72-3.25a3,3,0,0,1,1.77.55l-.21.51h0a2.8,2.8,0,0,0-1.59-.53c-1.39,0-2,.88-2,2.61s.64,2.59,2,2.59a3,3,0,0,0,1.33-.3V79.24H51.82v-.53Z"/><path class="cls-1" d="M63.39,81.35v.53H60.12v-6h3.22v.53H60.71v2.11H63L62.9,79H60.71v2.37Z"/><path class="cls-1" d="M73.52,81.82v.06h-.65l-2-2.8H70v2.8h-.59v-6h1.72c1.1,0,1.93.49,1.93,1.53A1.66,1.66,0,0,1,71.49,79l.44.59ZM70,78.56h1c.9,0,1.4-.41,1.4-1.12s-.4-1.08-1.43-1.08H70Z"/><path class="cls-1" d="M18.28,37.46c2.29,0,4.87.95,4.87,3.33,0,3-2.82,3.83-6.14,3.83H10.57v-.3H12V31.83h-1.4v-.3h6.52c3.69,0,5.53.66,5.53,2.86s-2.35,3-4.13,3h-.21Zm-2.14-5.62h-.32v5.51h.42c1.59,0,2.39-1.33,2.39-2.84A2.4,2.4,0,0,0,16.14,31.83Zm.13,5.83h-.45v6.65h.57c2.29,0,2.78-1.53,2.78-3.37C19.17,38.16,17.73,37.67,16.27,37.67Z"/><path class="cls-1" d="M24.33,44.31h1.21V31.83H24.33v-.3H31v.3H29.4V44.31h.66c2.84,0,4.28-2.56,4.28-6.23h.38v6.53H24.33Z"/><path class="cls-1" d="M40.28,32.76a1.77,1.77,0,0,1,1.93-1.44l4.53,13h.8v.3h-6.1v-.3h1.23l-1.46-4.2H38.08l-.66,2a4.58,4.58,0,0,0-.25,1.1c0,1,.74,1.15,1.7,1.15h.66v.3H34.67v-.3c1.57,0,1.82-.8,2.33-2.27Zm-2.08,7h2.92L39.65,35.6Z"/><path class="cls-1" d="M56.27,35.18l4.85,9.13h.76v.3H55.46v-.3h1.19l-2.9-6-.95,1.17v4.87H54v.3H47.73v-.3h1.21V31.83H47.73v-.3h6v.3h-.89v7l4.34-5.32a1.9,1.9,0,0,0,.51-1.06c0-.49-.47-.61-1.67-.61H55v-.3h5.57v.3A2.92,2.92,0,0,0,58,33Z"/><path class="cls-1" d="M62.17,44.31h1.21V31.83H62.17v-.3H72.91v4.32h-.3c0-2.67-.91-4-3.94-4H67.25v5.83h.7c1.5,0,2.5-.7,2.5-2.71h.32v5.78h-.32c0-1.86-1-2.77-2.58-2.77h-.62v6.35H68.4c4,0,4.56-2.12,4.56-5.09h.3v5.4H62.17Z"/><path class="cls-1" d="M10.55,67.05h1.21V54.57H10.55v-.3h6.67v.3H15.63V67.05h.66c2.84,0,4.28-2.56,4.28-6.23H21v6.53H10.55Z"/><path class="cls-1" d="M27.1,55.5A1.77,1.77,0,0,1,29,54.06l4.53,13h.8v.3h-6.1v-.3h1.23L28,62.85H24.9l-.66,2A4.58,4.58,0,0,0,24,65.9c0,1,.74,1.15,1.7,1.15h.66v.3H21.5v-.3c1.57,0,1.82-.8,2.33-2.27Zm-2.08,7h2.92l-1.46-4.21Z"/><path class="cls-1" d="M36.54,56c-.28-.45-.78-1.46-1.7-1.46v-.3h3.88A2.3,2.3,0,0,1,41,55.65l4.79,7.71h.07V58.7c0-2.71-.07-4.13-2.14-4.13h-.62v-.3h5.51v.3h-.23c-2.06.06-2.14,1.65-2.14,4.15v8.64H45.17A2.3,2.3,0,0,1,42.84,66l-5.61-8.83V63.3c0,2.71.07,3.75,2.14,3.75h.36v.3H34.42v-.3h.3c2.06-.06,2.14-1.27,2.14-3.77V56.54Z"/><path class="cls-1" d="M49.24,67.05h1.21V54.57H49.24v-.3H60v4.32h-.3c0-2.67-.91-4-3.94-4H54.32V60.4H55c1.5,0,2.5-.7,2.5-2.71h.32v5.78h-.32c0-1.86-1-2.76-2.58-2.76h-.62v6.34h1.15c4,0,4.56-2.12,4.56-5.09h.3v5.4H49.24Z"/><path class="cls-1" d="M73.09,63.46c0,3-2.58,4.26-5.34,4.26-1.8,0-2.8-.72-3.83-.72a1.4,1.4,0,0,0-1.06.72h-.3V62.34h.3c1,2.61,2,5,4.87,5a2,2,0,0,0,2.14-2.1c0-1.46-1.84-2.12-3.48-2.92-1.88-.89-3.71-1.93-3.71-4.38s2.2-4.07,5-4.07c1.8,0,2.65.66,3.67.66a.93.93,0,0,0,.87-.66h.3v4.64h-.3c-.57-2-2.12-4.3-4.34-4.3-1.06,0-2,.4-2,1.91s1.25,2.1,2.9,2.88C70.59,59.93,73.09,60.67,73.09,63.46Z"/><path class="cls-1" d="M42.51,12H43a7.52,7.52,0,0,1-2,3.19,3.88,3.88,0,0,1-.45.32,2.2,2.2,0,0,1-2,.09c-.54,1.22-2,4-3.76,2.7-1.16-1.24-.27-4.41.13-6,.08-.35.19-.73.3-1.16a3.2,3.2,0,0,1-4.32-.27c-1.75.35-3.46.45-5.28.78s-4.28,1.59-3.65,3.82c.25.7,1,1.63,1.89,1.27.4-.16.89-.65.52-1.1a.47.47,0,0,0-.57-.19l0,0a.52.52,0,0,1-.73-.06.49.49,0,0,1,.09-.7c.32-.25.78,0,1.06.16a2.5,2.5,0,0,1,.52.48c.54.67,0,1.46-.65,1.78-1,.59-2.19-.51-2.49-1.52-.76-2.43,2-3.93,4-4.32,1.7-.32,3.41-.46,5.16-.75A1.41,1.41,0,0,1,31,8.89a.84.84,0,0,1,1.36.3c.14.75-.44,1.25-1.08,1.52a3,3,0,0,0,4.16-.4c1-3.21,2.74-7.81,5.59-9.79.73-.51,2-1,2.35.29.38,1.93-4.57,8-5.89,9.27a42.49,42.49,0,0,0-1.7,6c0,.22-.24,1.54.33,1.43s1.33-1.89,1.67-2.57a2.91,2.91,0,0,1-.55-1.4,6.52,6.52,0,0,1,.13-2.24c.22-.7.59-1.7,1.44-1.7,1.83.25,0,5.16,0,5.16l-.14.4a1.79,1.79,0,0,0,1.87-.14A7.18,7.18,0,0,0,42.51,12ZM31,10.39v0A1.15,1.15,0,0,0,32,9.54c.11-.48-.38-.65-.76-.35A1,1,0,0,0,31,10.39Zm7.24.44c-.79.49-.59,2.9-.29,3.55C38,14.19,39.12,10.31,38.26,10.83ZM37.9,8.75c1.25-1.62,4.28-5.25,4.73-7.52a.35.35,0,0,0-.54-.35C39.86,2,38.56,7.4,37.9,8.75Z"/><path class="cls-1" d="M62.71,7.8c-.54,1.81-2.43,2.59-4.21,2.81-1.13.14-2.28.13-5.19.44a1.38,1.38,0,0,1-.4,1.59c-.43.3-1.22.28-1.33-.38a1.4,1.4,0,0,1,1.16-1.44c-1.51-1.7-3.85-.62-4.9,1.16-1.94,3.33-3.35,7.85-5.7,6.6a2.72,2.72,0,0,1-.65-2.19A13.85,13.85,0,0,1,42,13.07c1.75-5.47,4.19-14.22,8-12.76a1.17,1.17,0,0,1,.54.76c.3,1.13-1.6,4-3.76,6.79a22.81,22.81,0,0,1-2.13,2.46A46.66,46.66,0,0,0,43,16.83s-.19,1.24.52,1.13c1.33-.38,2.92-4.63,3.87-6.09,1.6-2.47,4.24-3.33,5.78-1.14a47.2,47.2,0,0,1,5.3-.48C60,10,61.82,9.4,62.33,7.67c.25-.9-.49-2.84-1.79-2.4-.4.13-.92.6-.59,1.06a.45.45,0,0,0,.55.21h0a.51.51,0,0,1,.73.11.5.5,0,0,1-.14.7c-.33.22-.76,0-1-.24a2.42,2.42,0,0,1-.49-.49,1.19,1.19,0,0,1,.75-1.75C61.88,4.26,63.15,6.35,62.71,7.8ZM45.18,9A57.38,57.38,0,0,0,48.7,4.15C49,3.67,50,2,49.91,1.37c-.44-.82-1.56.13-3.68,4.81a27.47,27.47,0,0,0-1,2.75ZM53,11.13a1.23,1.23,0,0,0-1,.81c-.14.49.35.68.73.4A1.18,1.18,0,0,0,53,11.13Z"/><path class="cls-1" d="M83.5,94.59H0V11.09H19.47a.36.36,0,1,1,0,.71H.71V93.88H82.78V11.81H64a.36.36,0,1,1,0-.71H83.5Z"/></g></g></svg>