<svg xmlns="http://www.w3.org/2000/svg" width="52.44mm" height="63.01mm" viewBox="0 0 148.66 178.6"><defs><style>.cls-1{fill:#8e91a9;}</style></defs><title>Asset 1</title><g id="Layer_2" data-name="Layer 2"><g id="Ebene_1" data-name="Ebene 1"><path class="cls-1" d="M15.79,112.33a13,13,0,0,0-3.1-1.47,10.78,10.78,0,0,0-3.36-.55,7,7,0,0,0-3.93,1,3.63,3.63,0,0,0-1.53,3.27,3.82,3.82,0,0,0,.52,2,4.79,4.79,0,0,0,1.4,1.46,10.85,10.85,0,0,0,2,1.07q1.12.46,2.34.87t2.75,1a10.51,10.51,0,0,1,2.49,1.4,6.82,6.82,0,0,1,1.81,2.1,6.21,6.21,0,0,1,.7,3.06,6.74,6.74,0,0,1-.74,3.25,6.67,6.67,0,0,1-2,2.25,8.44,8.44,0,0,1-2.79,1.31,12.34,12.34,0,0,1-3.23.42A14,14,0,0,1,4.41,134a11.1,11.1,0,0,1-4-2.51l.85-2.14A12.81,12.81,0,0,0,5,131.67a11.47,11.47,0,0,0,4.3.85,9.94,9.94,0,0,0,2.3-.26,6.13,6.13,0,0,0,1.92-.79,3.93,3.93,0,0,0,1.31-1.38,4,4,0,0,0,.48-2,3.66,3.66,0,0,0-.59-2.21,6.13,6.13,0,0,0-1.62-1.6,11.46,11.46,0,0,0-2.25-1.18q-1.25-.5-2.47-.9a17.72,17.72,0,0,1-2.6-1.11,11.2,11.2,0,0,1-2.27-1.55,7.34,7.34,0,0,1-1.61-2,5.33,5.33,0,0,1-.61-2.54,6.51,6.51,0,0,1,.7-3.11,6.22,6.22,0,0,1,1.85-2.14,7.76,7.76,0,0,1,2.64-1.22,12.06,12.06,0,0,1,3-.39,13.84,13.84,0,0,1,3.8.53,12,12,0,0,1,3.28,1.47Z"/><path class="cls-1" d="M43.8,110.78H36.05v23.54H33.5V110.78H25.75v-2.21h18Z"/><path class="cls-1" d="M52.65,108.57H55.2v16.81a9.47,9.47,0,0,0,.39,2.74,6.58,6.58,0,0,0,1.2,2.29,5.71,5.71,0,0,0,2.1,1.59,7.38,7.38,0,0,0,3.1.59,7.26,7.26,0,0,0,3.08-.59,5.91,5.91,0,0,0,2.1-1.59,6.43,6.43,0,0,0,1.22-2.29,9.47,9.47,0,0,0,.39-2.74V108.57h2.54v16.71a10.7,10.7,0,0,1-.79,4.32,8.44,8.44,0,0,1-2.1,3,8.23,8.23,0,0,1-3,1.7,11.28,11.28,0,0,1-3.45.53,11,11,0,0,1-3.45-.55,8.28,8.28,0,0,1-5.09-4.67,10.55,10.55,0,0,1-.79-4.3Z"/><path class="cls-1" d="M102.21,121.5a17.62,17.62,0,0,1-.76,5.36,9.88,9.88,0,0,1-6.29,6.57,16.5,16.5,0,0,1-5.72.89H82.76V108.61h6.68a16.2,16.2,0,0,1,5.72.9,10,10,0,0,1,6.29,6.59,17.62,17.62,0,0,1,.76,5.36ZM89.4,132.11q5.05,0,7.62-2.84t2.64-7.86v0a13.7,13.7,0,0,0-.74-4.76,8.74,8.74,0,0,0-2.07-3.28,8.08,8.08,0,0,0-3.23-1.9,13.78,13.78,0,0,0-4.23-.61H85.35v21.29Z"/><path class="cls-1" d="M113,108.57h2.54v25.75H113Z"/><path class="cls-1" d="M137.33,108.09a13.57,13.57,0,0,1,3.73.57,9.41,9.41,0,0,1,3.67,2.06,11.33,11.33,0,0,1,2.79,4.05,16.6,16.6,0,0,1,1.11,6.54,17,17,0,0,1-1.11,6.6,11.63,11.63,0,0,1-2.79,4.15,9.63,9.63,0,0,1-3.67,2.14,11.89,11.89,0,0,1-7.49,0,9.76,9.76,0,0,1-3.69-2.14,11.72,11.72,0,0,1-2.82-4.15,16.8,16.8,0,0,1-1.12-6.6,16.37,16.37,0,0,1,1.12-6.54,11.42,11.42,0,0,1,2.82-4.05,9.54,9.54,0,0,1,3.69-2.06A13.7,13.7,0,0,1,137.33,108.09Zm0,24.5a8.83,8.83,0,0,0,3.23-.61,7.28,7.28,0,0,0,2.79-2,10,10,0,0,0,2-3.47,15.79,15.79,0,0,0,.74-5.16,15.34,15.34,0,0,0-.74-5.06,9.84,9.84,0,0,0-2-3.44,7.55,7.55,0,0,0-2.79-2,8.61,8.61,0,0,0-3.23-.63,8.75,8.75,0,0,0-3.25.63,7.61,7.61,0,0,0-2.82,2,10.24,10.24,0,0,0-2,3.48,15,15,0,0,0-.78,5.12,14.82,14.82,0,0,0,.78,5.1,10,10,0,0,0,2,3.44,7.51,7.51,0,0,0,2.82,1.94A9,9,0,0,0,137.33,132.59Z"/><path class="cls-1" d="M19.93,152.81v4H12.55V178.6H7.42V156.83H0v-4Z"/><path class="cls-1" d="M56.9,152.81,50.77,178.6H44L38.74,158,33.47,178.6H26.71l-6.12-25.79h5.09l4.24,20.26,5.61-20.26H42l5.61,20.26,4.28-20.26Z"/><path class="cls-1" d="M65.42,174.51h10v4.09H60.26V152.81h15.2l-.85,4.1H65.42v6.31h9.19v4.09H65.42Z"/><path class="cls-1" d="M101.62,178.6H94.83l-9.48-19.37V178.6H80.44V152.81h6.79l9.48,19.34V152.81h4.91Z"/><path class="cls-1" d="M124.57,152.81v4h-7.38V178.6h-5.13V156.83h-7.42v-4Z"/><path class="cls-1" d="M134.31,168.64l-9-15.2h5.31L137,164l6.35-10.55h5.35l-9.34,15.2v10h-5Z"/><path class="cls-1" d="M115.35,83.21H45.68a.7.7,0,0,1,0-1.4H114V13.53a.7.7,0,1,1,1.4,0Z"/><path class="cls-1" d="M32.85,85.42a.7.7,0,0,1-.5-1.2l84-84a.7.7,0,0,1,1,1l-84,84A.7.7,0,0,1,32.85,85.42Z"/><path class="cls-1" d="M60.52,22.11a10.35,10.35,0,0,0-2.46-1.36,6.77,6.77,0,0,0-2.38-.49,3.62,3.62,0,0,0-1.95.46A1.66,1.66,0,0,0,53,22.25a1.53,1.53,0,0,0,.29,1,2.92,2.92,0,0,0,.77.7,5.68,5.68,0,0,0,1.12.55q.65.24,1.35.46,1,.34,2.1.76a7.62,7.62,0,0,1,1.93,1.11A5.36,5.36,0,0,1,62,28.49a5.56,5.56,0,0,1,.55,2.61,5.67,5.67,0,0,1-.59,2.66,5.33,5.33,0,0,1-1.56,1.84,6.72,6.72,0,0,1-2.21,1.06,9.51,9.51,0,0,1-2.59.35,10.43,10.43,0,0,1-3.87-.76A9,9,0,0,1,48.39,34l1.46-3.17a9.34,9.34,0,0,0,2.83,2,7.11,7.11,0,0,0,3,.73,4,4,0,0,0,2.11-.52,1.84,1.84,0,0,0,.88-1.64,1.73,1.73,0,0,0-.28-1.09,3,3,0,0,0-.81-.79A5.75,5.75,0,0,0,56.4,29q-.67-.25-1.4-.48c-.69-.22-1.38-.48-2.07-.76a7.47,7.47,0,0,1-1.86-1.08A4.91,4.91,0,0,1,49.74,25a5.62,5.62,0,0,1-.5-2.52,5.55,5.55,0,0,1,.56-2.59,5.14,5.14,0,0,1,1.47-1.77,6.1,6.1,0,0,1,2.1-1,9.42,9.42,0,0,1,2.45-.32,9.86,9.86,0,0,1,3.24.55,10.19,10.19,0,0,1,2.84,1.5Z"/><path class="cls-1" d="M100.05,48.92V52h-5.6V68.5H90.56V52H84.93V48.92Z"/><path class="cls-1" d="M35.06,72.59a.7.7,0,0,1-.7-.7V2.22H104a.7.7,0,0,1,0,1.4H35.76V71.89A.7.7,0,0,1,35.06,72.59Z"/></g></g></svg>