<svg xmlns="http://www.w3.org/2000/svg" xmlns:xlink="http://www.w3.org/1999/xlink" width="10.88mm" height="8.58mm" viewBox="0 0 30.83 24.33"><defs><style>.cls-1{fill:url(#linear-gradient);}.cls-2{fill:url(#linear-gradient-2);}.cls-3{fill:url(#linear-gradient-3);}.cls-4{fill:url(#linear-gradient-4);}.cls-5{fill:url(#linear-gradient-5);}</style><linearGradient id="linear-gradient" x1="8.33" y1="23.33" x2="22.5" y2="23.33" gradientUnits="userSpaceOnUse"><stop offset="0" stop-color="#5d69b1"/><stop offset="1" stop-color="#f15b6f"/></linearGradient><linearGradient id="linear-gradient-2" x1="0" y1="10.17" x2="30.83" y2="10.17" xlink:href="#linear-gradient"/><linearGradient id="linear-gradient-3" x1="11" y1="21.33" x2="19.83" y2="21.33" xlink:href="#linear-gradient"/><linearGradient id="linear-gradient-4" x1="0.77" y1="14.48" x2="30.06" y2="14.48" xlink:href="#linear-gradient"/><linearGradient id="linear-gradient-5" x1="14.54" y1="16.66" x2="16.29" y2="16.66" xlink:href="#linear-gradient"/></defs><title>Asset 16</title><g id="Layer_2" data-name="Layer 2"><g id="Layer_1-2" data-name="Layer 1"><path class="cls-1" d="M21.5,24.33H9.33a1,1,0,1,1,0-2H21.5a1,1,0,0,1,0,2Z"/><path class="cls-2" d="M29.83,20.33H1a1,1,0,0,1-1-1V1A1,1,0,0,1,1,0H29.83a1,1,0,0,1,1,1V19.33A1,1,0,0,1,29.83,20.33ZM2,18.33H28.83V2H2Z"/><path class="cls-3" d="M19.33,23.83H11.5a.5.5,0,0,1-.5-.5v-4a.5.5,0,0,1,.5-.5h7.83a.5.5,0,0,1,.5.5v4A.5.5,0,0,1,19.33,23.83Zm-7.33-1h6.83v-3H12Z"/><path class="cls-4" d="M29.56,15H1.27a.5.5,0,1,1,0-1H29.56a.5.5,0,0,1,0,1Z"/><circle class="cls-5" cx="15.42" cy="16.66" r="0.88"/></g></g></svg>