<svg xmlns="http://www.w3.org/2000/svg" xmlns:xlink="http://www.w3.org/1999/xlink" width="11.06mm" height="9.85mm" viewBox="0 0 31.35 27.91"><defs><style>.cls-1{fill:url(#linear-gradient);}.cls-2{fill:url(#linear-gradient-2);}.cls-3{fill:url(#linear-gradient-3);}</style><linearGradient id="linear-gradient" y1="13.96" x2="31.35" y2="13.96" gradientUnits="userSpaceOnUse"><stop offset="0" stop-color="#5d69b1"/><stop offset="1" stop-color="#f15b6f"/></linearGradient><linearGradient id="linear-gradient-2" x1="6.26" y1="5.04" x2="23.55" y2="5.04" xlink:href="#linear-gradient"/><linearGradient id="linear-gradient-3" x1="6.26" y1="9.04" x2="15.73" y2="9.04" xlink:href="#linear-gradient"/></defs><title>Asset 5</title><g id="Layer_2" data-name="Layer 2"><g id="Layer_1-2" data-name="Layer 1"><path class="cls-1" d="M30.35,8.37H29.18V.5a.5.5,0,0,0-.5-.5H2.7a.5.5,0,0,0-.5.5V8.37H1a1,1,0,0,0-1,1V26.91a1,1,0,0,0,1,1H30.35a1,1,0,0,0,1-1V9.37A1,1,0,0,0,30.35,8.37ZM2,10.72l.33.25a.49.49,0,0,0,.18.13l9.57,7L2,25.56ZM28.15,25.91H3.2l12.47-9.17Zm-8.88-7.77,9.6-7.06a.49.49,0,0,0,.18-.13l.31-.22V25.56ZM28.18,1v9.35l-9.75,7.17L16,15.72a.5.5,0,0,0-.59,0l-2.45,1.8L3.2,10.37V1Z"/><path class="cls-2" d="M22.55,6H7.26a1,1,0,0,1,0-2H22.55a1,1,0,0,1,0,2Z"/><path class="cls-3" d="M14.73,10H7.26a1,1,0,1,1,0-2h7.47a1,1,0,1,1,0,2Z"/></g></g></svg>