<svg xmlns="http://www.w3.org/2000/svg" xmlns:xlink="http://www.w3.org/1999/xlink" width="10.35mm" height="9.33mm" viewBox="0 0 29.35 26.44"><defs><style>.cls-1{fill:url(#linear-gradient);}</style><linearGradient id="linear-gradient" y1="13.22" x2="29.35" y2="13.22" gradientUnits="userSpaceOnUse"><stop offset="0" stop-color="#5d69b1"/><stop offset="1" stop-color="#f15b6f"/></linearGradient></defs><title>Asset 13</title><g id="Layer_2" data-name="Layer 2"><g id="Layer_1-2" data-name="Layer 1"><path class="cls-1" d="M26.23,0a3.11,3.11,0,0,0-2.29,5.23L18.74,9.91a5,5,0,0,0-6.36,0L8.21,5.7a2.66,2.66,0,0,0,.4-1.38A2.69,2.69,0,1,0,5.92,7a2.66,2.66,0,0,0,1.62-.56l4.12,4.13a5.08,5.08,0,0,0-1.24,3.31c0,.11,0,.22,0,.34l-5.56.72A2.55,2.55,0,1,0,5.12,16s0-.06,0-.09l5.49-.71a5.09,5.09,0,0,0,1.07,2l-3.73,4a2.78,2.78,0,0,0-1.4-.39,2.81,2.81,0,1,0,2.81,2.81,2.79,2.79,0,0,0-.65-1.77l3.7-4a5,5,0,0,0,5.54.48l3,2.93a3,3,0,1,0,.79-.62L18.79,17.8a5,5,0,0,0,.67-7.2l5.28-4.75a3.08,3.08,0,0,0,1.49.4,3.12,3.12,0,0,0,0-6.25ZM2.56,17.56A1.56,1.56,0,1,1,4.12,16,1.56,1.56,0,0,1,2.56,17.56ZM25,23.25a1.94,1.94,0,1,1-1.94-1.94A1.94,1.94,0,0,1,25,23.25ZM5.92,6A1.69,1.69,0,1,1,7.6,4.31,1.69,1.69,0,0,1,5.92,6Zm.62,19.44a1.81,1.81,0,1,1,1.81-1.81A1.81,1.81,0,0,1,6.54,25.44Zm5.87-11.56A3.12,3.12,0,1,1,15.54,17,3.13,3.13,0,0,1,12.42,13.88ZM26.23,5.25a2.13,2.13,0,1,1,2.12-2.12A2.13,2.13,0,0,1,26.23,5.25Z"/></g></g></svg>